{
  "asset": {
    "version": "2.0",
    "generator": "THREE.GLTFExporter"
  },
  "scenes": [
    {
      "name": "AuxScene",
      "nodes": [
        3
      ]
    }
  ],
  "scene": 0,
  "nodes": [
    {
      "rotation": [
        0.000004949747535833849,
        -0.7071067811692233,
        0.7071067811692234,
        0.000004949747535833849
      ],
      "scale": [
        1.000000000098,
        1.000000000098,
        1
      ],
      "name": "Bone_0"
    },
    {
      "rotation": [
        0.5000034999877977,
        -0.4999964999877022,
        0.5000034999877978,
        -0.4999964999877022
      ],
      "scale": [
        1.000000000098,
        1.000000000098,
        1
      ],
      "name": "Bone_1"
    },
    {
      "mesh": 0,
      "children": [
        0,
        1
      ],
      "skin": 0
    },
    {
      "extras": {
        "silentHillModel": {
          "name": "b_do4.mdl",
          "characterId": 1062
        }
      },
      "children": [
        2
      ]
    }
  ],
  "bufferViews": [
    {
      "buffer": 0,
      "byteOffset": 0,
      "byteLength": 4608,
      "target": 34962,
      "byteStride": 12
    },
    {
      "buffer": 0,
      "byteOffset": 4608,
      "byteLength": 4608,
      "target": 34962,
      "byteStride": 12
    },
    {
      "buffer": 0,
      "byteOffset": 9216,
      "byteLength": 3072,
      "target": 34962,
      "byteStride": 8
    },
    {
      "buffer": 0,
      "byteOffset": 12288,
      "byteLength": 3072,
      "target": 34962,
      "byteStride": 8
    },
    {
      "buffer": 0,
      "byteOffset": 15360,
      "byteLength": 6144,
      "target": 34962,
      "byteStride": 16
    },
    {
      "buffer": 0,
      "byteOffset": 21504,
      "byteLength": 1620,
      "target": 34963
    },
    {
      "buffer": 0,
      "byteOffset": 23124,
      "byteLength": 128
    }
  ],
  "buffers": [
    {
      "byteLength": 23252,
      "uri": "data:application/octet-stream;base64,"
    }
  ],
  "accessors": [
    {
      "bufferView": 0,
      "componentType": 5126,
      "count": 384,
      "max": [
        3,
        0,
        12.453808784484863
      ],
      "min": [
        -796.9375,
        -1189.9375,
        -49.994510650634766
      ],
      "type": "VEC3"
    },
    {
      "bufferView": 1,
      "componentType": 5126,
      "count": 384,
      "max": [
        1,
        0.999969482421875,
        0.999969482421875
      ],
      "min": [
        -1,
        -1,
        -0.01954524591565132
      ],
      "type": "VEC3"
    },
    {
      "bufferView": 2,
      "componentType": 5126,
      "count": 384,
      "max": [
        0.249267578125,
        0.293212890625
      ],
      "min": [
        0.002197265625,
        0.001708984375
      ],
      "type": "VEC2"
    },
    {
      "bufferView": 3,
      "componentType": 5123,
      "count": 384,
      "max": [
        1,
        0,
        0,
        0
      ],
      "min": [
        0,
        0,
        0,
        0
      ],
      "type": "VEC4"
    },
    {
      "bufferView": 4,
      "componentType": 5126,
      "count": 384,
      "max": [
        1,
        0,
        0,
        0
      ],
      "min": [
        1,
        0,
        0,
        0
      ],
      "type": "VEC4"
    },
    {
      "bufferView": 5,
      "componentType": 5123,
      "count": 810,
      "max": [
        383
      ],
      "min": [
        0
      ],
      "type": "SCALAR"
    },
    {
      "bufferView": 6,
      "componentType": 5126,
      "count": 2,
      "max": [
        -1.1102541266161885e-16,
        2.220430564429246e-16,
        1,
        0,
        1.4145586170804133e-21,
        -2.220446049250313e-16,
        1.554312255794507e-21,
        0,
        0.000014000000192027073,
        -1,
        1.1102230246251565e-16,
        0,
        0,
        0,
        0,
        1
      ],
      "min": [
        -1,
        -0.000014000000192027073,
        -1.6940658945086007e-21,
        0,
        -1,
        -0.000014000000192027073,
        -1,
        0,
        0.000014000000192027073,
        -1,
        2.3716922848426925e-26,
        0,
        0,
        0,
        0,
        1
      ],
      "type": "MAT4"
    }
  ],
  "materials": [
    {
      "pbrMetallicRoughness": {
        "metallicFactor": 0,
        "roughnessFactor": 1,
        "baseColorTexture": {
          "index": 0,
          "texCoord": 0
        }
      },
      "alphaMode": "MASK",
      "alphaCutoff": 0.01,
      "doubleSided": true
    }
  ],
  "textures": [
    {
      "sampler": 0,
      "source": 0
    }
  ],
  "samplers": [
    {
      "magFilter": 9729,
      "minFilter": 9729,
      "wrapS": 33071,
      "wrapT": 33071
    }
  ],
  "images": [
    {
      "mimeType": "image/png",
      "uri": "data:image/png;base64,"
    }
  ],
  "meshes": [
    {
      "primitives": [
        {
          "mode": 4,
          "attributes": {
            "POSITION": 0,
            "NORMAL": 1,
            "TEXCOORD_0": 2,
            "JOINTS_0": 3,
            "WEIGHTS_0": 4
          },
          "indices": 5,
          "material": 0
        }
      ]
    }
  ],
  "skins": [
    {
      "inverseBindMatrices": 6,
      "joints": [
        0,
        1
      ],
      "skeleton": 0
    }
  ]
}