{
  "asset": {
    "version": "2.0",
    "generator": "THREE.GLTFExporter"
  },
  "scenes": [
    {
      "name": "AuxScene",
      "nodes": [
        4
      ]
    }
  ],
  "scene": 0,
  "nodes": [
    {
      "rotation": [
        0,
        0,
        0.004537566530449877,
        0.9999897051919993
      ],
      "translation": [
        245.05819882285485,
        0.000045913425924859474,
        1.1368683772161603e-13
      ],
      "scale": [
        0.999999217120205,
        0.9999992171202051,
        1
      ],
      "name": "Bone_1"
    },
    {
      "rotation": [
        0.7071067280983151,
        -0.00027400382386432045,
        0.00027400382386432045,
        0.7071067280983151
      ],
      "translation": [
        -245.0009307861328,
        -550,
        -0.9772300124168396
      ],
      "scale": [
        1.0000003003124722,
        1.0000003003124722,
        1
      ],
      "name": "Bone_0",
      "children": [
        0
      ]
    },
    {
      "mesh": 0,
      "children": [
        1
      ],
      "skin": 0
    },
    {
      "mesh": 1,
      "skin": 1
    },
    {
      "extras": {
        "silentHillModel": {
          "name": "b_doo.mdl",
          "characterId": 1036
        }
      },
      "children": [
        2,
        3
      ]
    }
  ],
  "bufferViews": [
    {
      "buffer": 0,
      "byteOffset": 0,
      "byteLength": 17112,
      "target": 34962,
      "byteStride": 12
    },
    {
      "buffer": 0,
      "byteOffset": 17112,
      "byteLength": 17112,
      "target": 34962,
      "byteStride": 12
    },
    {
      "buffer": 0,
      "byteOffset": 34224,
      "byteLength": 11408,
      "target": 34962,
      "byteStride": 8
    },
    {
      "buffer": 0,
      "byteOffset": 45632,
      "byteLength": 11408,
      "target": 34962,
      "byteStride": 8
    },
    {
      "buffer": 0,
      "byteOffset": 57040,
      "byteLength": 22816,
      "target": 34962,
      "byteStride": 16
    },
    {
      "buffer": 0,
      "byteOffset": 79856,
      "byteLength": 48,
      "target": 34963
    },
    {
      "buffer": 0,
      "byteOffset": 79904,
      "byteLength": 4404,
      "target": 34963
    },
    {
      "buffer": 0,
      "byteOffset": 84308,
      "byteLength": 48,
      "target": 34962,
      "byteStride": 12
    },
    {
      "buffer": 0,
      "byteOffset": 84356,
      "byteLength": 48,
      "target": 34962,
      "byteStride": 12
    },
    {
      "buffer": 0,
      "byteOffset": 84404,
      "byteLength": 32,
      "target": 34962,
      "byteStride": 8
    },
    {
      "buffer": 0,
      "byteOffset": 84436,
      "byteLength": 32,
      "target": 34962,
      "byteStride": 8
    },
    {
      "buffer": 0,
      "byteOffset": 84468,
      "byteLength": 64,
      "target": 34962,
      "byteStride": 16
    },
    {
      "buffer": 0,
      "byteOffset": 84532,
      "byteLength": 12,
      "target": 34963
    },
    {
      "buffer": 0,
      "byteOffset": 84544,
      "byteLength": 128
    },
    {
      "buffer": 0,
      "byteOffset": 84672,
      "byteLength": 128
    }
  ],
  "buffers": [
    {
      "byteLength": 84800,
      "uri": "data:application/octet-stream;base64,"
    }
  ],
  "accessors": [
    {
      "bufferView": 0,
      "componentType": 5126,
      "count": 1426,
      "max": [
        244.998779296875,
        0,
        1.0368441343307495
      ],
      "min": [
        -245.0016632080078,
        -1060,
        -39.71648025512695
      ],
      "type": "VEC3"
    },
    {
      "bufferView": 1,
      "componentType": 5126,
      "count": 1426,
      "max": [
        0.9999968409538269,
        0.999969482421875,
        0.9999968409538269
      ],
      "min": [
        -0.9999663233757019,
        -1,
        -0.9999663233757019
      ],
      "type": "VEC3"
    },
    {
      "bufferView": 2,
      "componentType": 5126,
      "count": 1426,
      "max": [
        0.998779296875,
        0.994873046875
      ],
      "min": [
        0.6884765625,
        0.2548828125
      ],
      "type": "VEC2"
    },
    {
      "bufferView": 3,
      "componentType": 5123,
      "count": 1426,
      "max": [
        1,
        0,
        0,
        0
      ],
      "min": [
        0,
        0,
        0,
        0
      ],
      "type": "VEC4"
    },
    {
      "bufferView": 4,
      "componentType": 5126,
      "count": 1426,
      "max": [
        1,
        0,
        0,
        0
      ],
      "min": [
        1,
        0,
        0,
        0
      ],
      "type": "VEC4"
    },
    {
      "bufferView": 5,
      "componentType": 5123,
      "count": 24,
      "max": [
        15
      ],
      "min": [
        0
      ],
      "type": "SCALAR"
    },
    {
      "bufferView": 6,
      "componentType": 5123,
      "count": 2202,
      "max": [
        1425
      ],
      "min": [
        16
      ],
      "type": "SCALAR"
    },
    {
      "bufferView": 7,
      "componentType": 5126,
      "count": 4,
      "max": [
        245.57289123535156,
        -510.5,
        -26.55767059326172
      ],
      "min": [
        218.88424682617188,
        -599.25,
        -26.570554733276367
      ],
      "type": "VEC3"
    },
    {
      "bufferView": 8,
      "componentType": 5126,
      "count": 4,
      "max": [
        0.0000824487506179139,
        0,
        -0.9998035430908203
      ],
      "min": [
        0.0000824487506179139,
        0,
        -0.9998035430908203
      ],
      "type": "VEC3"
    },
    {
      "bufferView": 9,
      "componentType": 5126,
      "count": 4,
      "max": [
        0.748046875,
        0.998046875
      ],
      "min": [
        0.376708984375,
        0.626708984375
      ],
      "type": "VEC2"
    },
    {
      "bufferView": 10,
      "componentType": 5123,
      "count": 4,
      "max": [
        1,
        0,
        0,
        0
      ],
      "min": [
        1,
        0,
        0,
        0
      ],
      "type": "VEC4"
    },
    {
      "bufferView": 11,
      "componentType": 5126,
      "count": 4,
      "max": [
        1,
        0,
        0,
        0
      ],
      "min": [
        1,
        0,
        0,
        0
      ],
      "type": "VEC4"
    },
    {
      "bufferView": 12,
      "componentType": 5123,
      "count": 6,
      "max": [
        3
      ],
      "min": [
        0
      ],
      "type": "SCALAR"
    },
    {
      "bufferView": 13,
      "componentType": 5126,
      "count": 2,
      "max": [
        0.9999994039535522,
        -0.0007749995565973222,
        0,
        0,
        0,
        0,
        -1,
        0,
        0.009850009344518185,
        0.9999994039535522,
        0,
        0,
        245.0015411376953,
        0.7877902388572693,
        -550,
        1
      ],
      "min": [
        0.999951958656311,
        -0.009850009344518185,
        0,
        0,
        0,
        0,
        -1,
        0,
        0.0007749995565973222,
        0.999951958656311,
        0,
        0,
        -0.049510691314935684,
        0.7873538136482239,
        -550,
        1
      ],
      "type": "MAT4"
    },
    {
      "bufferView": 14,
      "componentType": 5126,
      "count": 2,
      "max": [
        0.9999994039535522,
        -0.0007749995565973222,
        0,
        0,
        0,
        0,
        -1,
        0,
        0.009850009344518185,
        0.9999994039535522,
        0,
        0,
        245.0015411376953,
        0.7877902388572693,
        -550,
        1
      ],
      "min": [
        0.999951958656311,
        -0.009850009344518185,
        0,
        0,
        0,
        0,
        -1,
        0,
        0.0007749995565973222,
        0.999951958656311,
        0,
        0,
        -0.049510691314935684,
        0.7873538136482239,
        -550,
        1
      ],
      "type": "MAT4"
    }
  ],
  "materials": [
    {
      "pbrMetallicRoughness": {
        "metallicFactor": 0,
        "roughnessFactor": 1,
        "baseColorTexture": {
          "index": 0,
          "texCoord": 0
        }
      },
      "alphaMode": "MASK",
      "alphaCutoff": 0.01,
      "doubleSided": true
    },
    {
      "pbrMetallicRoughness": {
        "metallicFactor": 0,
        "roughnessFactor": 1,
        "baseColorTexture": {
          "index": 1,
          "texCoord": 0
        }
      },
      "alphaMode": "MASK",
      "alphaCutoff": 0.01,
      "doubleSided": true
    },
    {
      "pbrMetallicRoughness": {
        "metallicFactor": 0,
        "roughnessFactor": 1,
        "baseColorTexture": {
          "index": 2,
          "texCoord": 0
        }
      },
      "alphaMode": "BLEND",
      "doubleSided": true
    }
  ],
  "textures": [
    {
      "sampler": 0,
      "source": 0
    },
    {
      "sampler": 1,
      "source": 1
    },
    {
      "sampler": 2,
      "source": 2
    }
  ],
  "samplers": [
    {
      "magFilter": 9729,
      "minFilter": 9729,
      "wrapS": 33071,
      "wrapT": 33071
    },
    {
      "magFilter": 9729,
      "minFilter": 9729,
      "wrapS": 33071,
      "wrapT": 33071
    },
    {
      "magFilter": 9729,
      "minFilter": 9729,
      "wrapS": 33071,
      "wrapT": 33071
    }
  ],
  "images": [
    {
      "mimeType": "image/png",
      "uri": "data:image/png;base64,"
    },
    {
      "mimeType": "image/png",
      "uri": "data:image/png;base64,"
    },
    {
      "mimeType": "image/png",
      "uri": "data:image/png;base64,"
    }
  ],
  "meshes": [
    {
      "primitives": [
        {
          "mode": 4,
          "attributes": {
            "POSITION": 0,
            "NORMAL": 1,
            "TEXCOORD_0": 2,
            "JOINTS_0": 3,
            "WEIGHTS_0": 4
          },
          "indices": 5,
          "material": 0
        },
        {
          "mode": 4,
          "attributes": {
            "POSITION": 0,
            "NORMAL": 1,
            "TEXCOORD_0": 2,
            "JOINTS_0": 3,
            "WEIGHTS_0": 4
          },
          "indices": 6,
          "material": 1
        }
      ]
    },
    {
      "primitives": [
        {
          "mode": 4,
          "attributes": {
            "POSITION": 7,
            "NORMAL": 8,
            "TEXCOORD_0": 9,
            "JOINTS_0": 10,
            "WEIGHTS_0": 11
          },
          "indices": 12,
          "material": 2
        }
      ]
    }
  ],
  "skins": [
    {
      "inverseBindMatrices": 13,
      "joints": [
        1,
        0
      ],
      "skeleton": 1
    },
    {
      "inverseBindMatrices": 14,
      "joints": [
        1,
        0
      ],
      "skeleton": 1
    }
  ]
}