{
  "asset": {
    "version": "2.0",
    "generator": "THREE.GLTFExporter"
  },
  "scenes": [
    {
      "name": "AuxScene",
      "nodes": [
        3
      ]
    }
  ],
  "scene": 0,
  "nodes": [
    {
      "rotation": [
        -0.7071067811865475,
        0,
        0.7071067811865476,
        0
      ],
      "translation": [
        0,
        0,
        450
      ],
      "name": "Bone_0"
    },
    {
      "rotation": [
        0,
        -0.7071067811865475,
        0,
        0.7071067811865476
      ],
      "translation": [
        0,
        0,
        -450
      ],
      "name": "Bone_1"
    },
    {
      "mesh": 0,
      "children": [
        0,
        1
      ],
      "skin": 0
    },
    {
      "extras": {
        "silentHillModel": {
          "name": "b_ell.mdl",
          "characterId": 1328
        }
      },
      "children": [
        2
      ]
    }
  ],
  "bufferViews": [
    {
      "buffer": 0,
      "byteOffset": 0,
      "byteLength": 13872,
      "target": 34962,
      "byteStride": 12
    },
    {
      "buffer": 0,
      "byteOffset": 13872,
      "byteLength": 13872,
      "target": 34962,
      "byteStride": 12
    },
    {
      "buffer": 0,
      "byteOffset": 27744,
      "byteLength": 9248,
      "target": 34962,
      "byteStride": 8
    },
    {
      "buffer": 0,
      "byteOffset": 36992,
      "byteLength": 9248,
      "target": 34962,
      "byteStride": 8
    },
    {
      "buffer": 0,
      "byteOffset": 46240,
      "byteLength": 18496,
      "target": 34962,
      "byteStride": 16
    },
    {
      "buffer": 0,
      "byteOffset": 64736,
      "byteLength": 2412,
      "target": 34963
    },
    {
      "buffer": 0,
      "byteOffset": 67148,
      "byteLength": 2412,
      "target": 34963
    },
    {
      "buffer": 0,
      "byteOffset": 69560,
      "byteLength": 128
    }
  ],
  "buffers": [
    {
      "byteLength": 69688,
      "uri": "data:application/octet-stream;base64,"
    }
  ],
  "accessors": [
    {
      "bufferView": 0,
      "componentType": 5126,
      "count": 1156,
      "max": [
        12.5,
        0,
        462.5
      ],
      "min": [
        -12.4375,
        -1191.375,
        -462.4375
      ],
      "type": "VEC3"
    },
    {
      "bufferView": 1,
      "componentType": 5126,
      "count": 1156,
      "max": [
        0.999969482421875,
        1,
        1
      ],
      "min": [
        -1,
        -1,
        -1
      ],
      "type": "VEC3"
    },
    {
      "bufferView": 2,
      "componentType": 5126,
      "count": 1156,
      "max": [
        0.870361328125,
        0.436279296875
      ],
      "min": [
        -0.00048828125,
        0.002685546875
      ],
      "type": "VEC2"
    },
    {
      "bufferView": 3,
      "componentType": 5123,
      "count": 1156,
      "max": [
        1,
        0,
        0,
        0
      ],
      "min": [
        0,
        0,
        0,
        0
      ],
      "type": "VEC4"
    },
    {
      "bufferView": 4,
      "componentType": 5126,
      "count": 1156,
      "max": [
        1,
        0,
        0,
        0
      ],
      "min": [
        1,
        0,
        0,
        0
      ],
      "type": "VEC4"
    },
    {
      "bufferView": 5,
      "componentType": 5123,
      "count": 1206,
      "max": [
        577
      ],
      "min": [
        0
      ],
      "type": "SCALAR"
    },
    {
      "bufferView": 6,
      "componentType": 5123,
      "count": 1206,
      "max": [
        1155
      ],
      "min": [
        578
      ],
      "type": "SCALAR"
    },
    {
      "bufferView": 7,
      "componentType": 5126,
      "count": 2,
      "max": [
        2.220446049250313e-16,
        0,
        -1,
        0,
        0,
        1,
        0,
        0,
        1,
        0,
        2.220446049250313e-16,
        0,
        450,
        0,
        9.992007221626409e-14,
        1
      ],
      "min": [
        -2.220446049250313e-16,
        0,
        -1,
        0,
        0,
        -1,
        0,
        0,
        -1,
        0,
        2.220446049250313e-16,
        0,
        450,
        0,
        -9.992007221626409e-14,
        1
      ],
      "type": "MAT4"
    }
  ],
  "materials": [
    {
      "pbrMetallicRoughness": {
        "metallicFactor": 0,
        "roughnessFactor": 1,
        "baseColorTexture": {
          "index": 0,
          "texCoord": 0
        }
      },
      "alphaMode": "MASK",
      "alphaCutoff": 0.01,
      "doubleSided": true
    }
  ],
  "textures": [
    {
      "sampler": 0,
      "source": 0
    }
  ],
  "samplers": [
    {
      "magFilter": 9729,
      "minFilter": 9729,
      "wrapS": 33071,
      "wrapT": 33071
    }
  ],
  "images": [
    {
      "mimeType": "image/png",
      "uri": "data:image/png;base64,"
    }
  ],
  "meshes": [
    {
      "primitives": [
        {
          "mode": 4,
          "attributes": {
            "POSITION": 0,
            "NORMAL": 1,
            "TEXCOORD_0": 2,
            "JOINTS_0": 3,
            "WEIGHTS_0": 4
          },
          "indices": 5,
          "material": 0
        },
        {
          "mode": 4,
          "attributes": {
            "POSITION": 0,
            "NORMAL": 1,
            "TEXCOORD_0": 2,
            "JOINTS_0": 3,
            "WEIGHTS_0": 4
          },
          "indices": 6,
          "material": 0
        }
      ]
    }
  ],
  "skins": [
    {
      "inverseBindMatrices": 7,
      "joints": [
        0,
        1
      ],
      "skeleton": 0
    }
  ]
}