{
  "asset": {
    "version": "2.0",
    "generator": "THREE.GLTFExporter"
  },
  "scenes": [
    {
      "name": "AuxScene",
      "nodes": [
        24
      ]
    }
  ],
  "scene": 0,
  "nodes": [
    {
      "rotation": [
        -5.86419485679874e-8,
        1.6049579635927888e-7,
        -0.3357316955580255,
        0.9419576575397071
      ],
      "translation": [
        38.47462436538794,
        0.000009672076879824187,
        -0.00001309677653438257
      ],
      "scale": [
        0.999999818617012,
        0.9999998192754127,
        1.000000000018009
      ],
      "name": "Bone_18"
    },
    {
      "rotation": [
        -1.3140811722013154e-7,
        -1.0415277027432678e-7,
        0.27840003255234935,
        0.9604652111736265
      ],
      "translation": [
        29.4517466954852,
        0.000007626615797562408,
        0.00000410575476195163
      ],
      "scale": [
        1.000000776375308,
        1.0000000538370284,
        1.0000000000051128
      ],
      "name": "Bone_13",
      "children": [
        0
      ]
    },
    {
      "rotation": [
        -0.17652616227348644,
        0.681229303714617,
        -0.0698494643295305,
        0.7070262178756781
      ],
      "translation": [
        6.423916636937495,
        -5.094749545115375,
        -14.824653193465737
      ],
      "scale": [
        0.9999997268417613,
        0.9999994389367326,
        1.0000000375366764
      ],
      "name": "Bone_7",
      "children": [
        1
      ]
    },
    {
      "rotation": [
        1.1211029707483837e-8,
        -9.555837760986104e-8,
        -0.3339980595346597,
        0.942573761690327
      ],
      "translation": [
        39.25426676180375,
        0.000006720249810854284,
        0.000012219948484215593
      ],
      "scale": [
        0.9999997449761183,
        0.9999998755119159,
        1.0000000212464193
      ],
      "name": "Bone_19"
    },
    {
      "rotation": [
        -5.001748099980216e-7,
        5.07185785735544e-8,
        0.27705901833442453,
        0.9608529025606665
      ],
      "translation": [
        29.765878642037976,
        0.00023900710111846024,
        -0.0000033346262284794648
      ],
      "scale": [
        1.000000451943424,
        1.0000007642628588,
        0.9999999216068002
      ],
      "name": "Bone_14",
      "children": [
        3
      ]
    },
    {
      "rotation": [
        0.9975058089975454,
        0.07057822463914716,
        0.000932206952835154,
        -0.00007901160022587491
      ],
      "translation": [
        26.275995278285926,
        -2.7417162341702124,
        -10.691898484872539
      ],
      "scale": [
        1.0000000885205507,
        0.9999994437056412,
        0.9999998492091169
      ],
      "name": "Bone_8",
      "children": [
        4
      ]
    },
    {
      "rotation": [
        1.1689656765041001e-7,
        1.8606433938386107e-7,
        -0.34091742382101714,
        0.9400932454470421
      ],
      "translation": [
        39.254305695173926,
        -0.000007292528383828767,
        0.0000061362255543429
      ],
      "scale": [
        1.0000005537699834,
        1.00000056829428,
        1.0000000382088075
      ],
      "name": "Bone_20"
    },
    {
      "rotation": [
        -2.966806265725076e-7,
        2.22872348869464e-7,
        0.28046358966502394,
        0.9598646648731268
      ],
      "translation": [
        29.765875662127613,
        0.0001457458837030856,
        -0.000005252409856382201
      ],
      "scale": [
        0.9999999246256044,
        0.9999998539430444,
        1.0000001135077912
      ],
      "name": "Bone_15",
      "children": [
        6
      ]
    },
    {
      "rotation": [
        0.9974981358826439,
        0.07068662096763142,
        0.0009296981667281527,
        -0.00007885305149207137
      ],
      "translation": [
        26.276003916210517,
        -2.7417049898654504,
        10.691899470870922
      ],
      "scale": [
        1.0000002111379618,
        0.9999995421378627,
        0.999999886902488
      ],
      "name": "Bone_9",
      "children": [
        7
      ]
    },
    {
      "rotation": [
        -3.847538683817614e-8,
        1.7955624758459177e-7,
        -0.3944088630680133,
        0.9189350623049125
      ],
      "translation": [
        38.47465530195553,
        0.0000015273480329369704,
        -0.00001931234975671714
      ],
      "scale": [
        1.0000004768056812,
        0.9999997478591837,
        0.9999999999999417
      ],
      "name": "Bone_21"
    },
    {
      "rotation": [
        2.0235763744536105e-7,
        -1.3349015472702504e-7,
        0.30530735993796015,
        0.952253861093553
      ],
      "translation": [
        29.451748942845654,
        -0.0000015335118703774242,
        -0.000009184730661360163
      ],
      "scale": [
        0.9999998202083175,
        1.0000001045763844,
        1.0000000000000238
      ],
      "name": "Bone_16",
      "children": [
        9
      ]
    },
    {
      "rotation": [
        0.17547606429705445,
        -0.6885156839626357,
        -0.06637720945211119,
        0.7005343839506583
      ],
      "translation": [
        6.423923525928121,
        -5.094733274978568,
        14.824649610579053
      ],
      "scale": [
        0.9999989696534861,
        1.0000003417614527,
        1.000000216282623
      ],
      "name": "Bone_10",
      "children": [
        10
      ]
    },
    {
      "rotation": [
        -0.0484022680669449,
        0.0075036435492582265,
        -0.15301274752595365,
        0.9870096315812791
      ],
      "translation": [
        42.1820931886347,
        0.000029368601246915205,
        -0.000007899880733797104
      ],
      "scale": [
        0.9999993203138998,
        1.0000007721423163,
        1.0000002388783589
      ],
      "name": "Bone_1",
      "children": [
        2,
        5,
        8,
        11
      ]
    },
    {
      "rotation": [
        -3.18715742175936e-7,
        -6.498323169593414e-8,
        0.2651034316113261,
        0.9642199803715825
      ],
      "translation": [
        43.24082051450242,
        -0.000023507157213442653,
        0.0000202980995567259
      ],
      "scale": [
        0.9999994532595814,
        0.99999982270379,
        1.000000026580592
      ],
      "name": "Bone_12"
    },
    {
      "rotation": [
        7.91369076473411e-8,
        1.9007106436175427e-7,
        -0.22375373580704647,
        0.9746457129194767
      ],
      "translation": [
        32.39393009677799,
        9.92413589528951e-7,
        -0.000005743473398212018
      ],
      "scale": [
        1.0000007229455758,
        1.00000002515699,
        0.9999999920109249
      ],
      "name": "Bone_6",
      "children": [
        13
      ]
    },
    {
      "rotation": [
        0.010219710624595087,
        -0.0023752809320182968,
        0.9970691486371739,
        -0.07578277146904612
      ],
      "translation": [
        32.78375486714254,
        -4.812848548683185,
        -11.579355027156712
      ],
      "scale": [
        0.9999997222975435,
        0.9999996630008056,
        1.0000003349920974
      ],
      "name": "Bone_2",
      "children": [
        14
      ]
    },
    {
      "rotation": [
        -8.918503711271591e-8,
        -1.1447670259886335e-7,
        0.2867294244341996,
        0.9580116059649562
      ],
      "translation": [
        43.24082611383918,
        -0.000005963434813072155,
        0.000020891629588959404
      ],
      "scale": [
        1.0000002685398806,
        1.0000005056288874,
        1.0000010308304037
      ],
      "name": "Bone_17"
    },
    {
      "rotation": [
        4.8180744613360596e-8,
        1.228758684592204e-7,
        -0.2341882705632407,
        0.9721912640682061
      ],
      "translation": [
        32.39391813918915,
        -0.000012126213746910253,
        -0.000006935831493137812
      ],
      "scale": [
        0.9999999988003696,
        0.9999994316171412,
        0.9999999599996103
      ],
      "name": "Bone_11",
      "children": [
        16
      ]
    },
    {
      "rotation": [
        0.009751349761131704,
        -0.0021613998910636366,
        0.9977976361511431,
        -0.06557527636736915
      ],
      "translation": [
        32.78377118652571,
        -4.812840107334971,
        11.579348306153573
      ],
      "scale": [
        1.0000000894168641,
        1.0000000740364943,
        0.9999995234386369
      ],
      "name": "Bone_3",
      "children": [
        17
      ]
    },
    {
      "rotation": [
        0.07622605648750491,
        0.7029861395018927,
        0.7064063236768178,
        0.031466560400272625
      ],
      "translation": [
        4.469850509995865,
        -1.9428140503788924,
        7.603424884885712
      ],
      "scale": [
        1.0000002011538762,
        0.9999999973574556,
        1.000000203813668
      ],
      "name": "Bone_4"
    },
    {
      "rotation": [
        -0.07622608340161677,
        -0.7029858381896597,
        0.7064066303332853,
        0.0314670399971241
      ],
      "translation": [
        4.469834649139365,
        -1.9428174750582414,
        -7.603424039303994
      ],
      "scale": [
        1.0000002616277786,
        0.9999997667475307,
        1.0000001119340018
      ],
      "name": "Bone_5"
    },
    {
      "rotation": [
        -0.6992607413684186,
        0.08791232710207823,
        0.7091667778415837,
        -0.019706927868071746
      ],
      "translation": [
        0,
        -18.514734268188477,
        71.21051788330078
      ],
      "scale": [
        0.9999999813072725,
        0.9999999424962112,
        1.0000000510752372
      ],
      "name": "Bone_0",
      "children": [
        12,
        15,
        18,
        19,
        20
      ]
    },
    {
      "mesh": 0,
      "children": [
        21
      ],
      "skin": 0
    },
    {
      "mesh": 1,
      "skin": 1
    },
    {
      "extras": {
        "silentHillModel": {
          "name": "tyu.mdl",
          "characterId": 514
        }
      },
      "children": [
        22,
        23
      ]
    }
  ],
  "bufferViews": [
    {
      "buffer": 0,
      "byteOffset": 0,
      "byteLength": 1344,
      "target": 34962,
      "byteStride": 12
    },
    {
      "buffer": 0,
      "byteOffset": 1344,
      "byteLength": 1344,
      "target": 34962,
      "byteStride": 12
    },
    {
      "buffer": 0,
      "byteOffset": 2688,
      "byteLength": 896,
      "target": 34962,
      "byteStride": 8
    },
    {
      "buffer": 0,
      "byteOffset": 3584,
      "byteLength": 896,
      "target": 34962,
      "byteStride": 8
    },
    {
      "buffer": 0,
      "byteOffset": 4480,
      "byteLength": 1792,
      "target": 34962,
      "byteStride": 16
    },
    {
      "buffer": 0,
      "byteOffset": 6272,
      "byteLength": 696,
      "target": 34963
    },
    {
      "buffer": 0,
      "byteOffset": 6968,
      "byteLength": 384,
      "target": 34963
    },
    {
      "buffer": 0,
      "byteOffset": 7352,
      "byteLength": 2304,
      "target": 34962,
      "byteStride": 12
    },
    {
      "buffer": 0,
      "byteOffset": 9656,
      "byteLength": 2304,
      "target": 34962,
      "byteStride": 12
    },
    {
      "buffer": 0,
      "byteOffset": 11960,
      "byteLength": 1536,
      "target": 34962,
      "byteStride": 8
    },
    {
      "buffer": 0,
      "byteOffset": 13496,
      "byteLength": 1536,
      "target": 34962,
      "byteStride": 8
    },
    {
      "buffer": 0,
      "byteOffset": 15032,
      "byteLength": 3072,
      "target": 34962,
      "byteStride": 16
    },
    {
      "buffer": 0,
      "byteOffset": 18104,
      "byteLength": 576,
      "target": 34963
    },
    {
      "buffer": 0,
      "byteOffset": 18680,
      "byteLength": 1408
    },
    {
      "buffer": 0,
      "byteOffset": 20088,
      "byteLength": 1408
    }
  ],
  "buffers": [
    {
      "byteLength": 21496,
      "uri": "data:application/octet-stream;base64,"
    }
  ],
  "accessors": [
    {
      "bufferView": 0,
      "componentType": 5126,
      "count": 112,
      "max": [
        25.79969024658203,
        -0.21257883310317993,
        72.82621765136719
      ],
      "min": [
        -25.82715606689453,
        -36.46426010131836,
        -70.76129150390625
      ],
      "type": "VEC3"
    },
    {
      "bufferView": 1,
      "componentType": 5126,
      "count": 112,
      "max": [
        0.9875754117965698,
        0.9935480952262878,
        0.9872252941131592
      ],
      "min": [
        -0.987369954586029,
        -0.998622477054596,
        -0.7420231103897095
      ],
      "type": "VEC3"
    },
    {
      "bufferView": 2,
      "componentType": 5126,
      "count": 112,
      "max": [
        0.498779296875,
        0.998779296875
      ],
      "min": [
        0.0009765625,
        0.2509765625
      ],
      "type": "VEC2"
    },
    {
      "bufferView": 3,
      "componentType": 5123,
      "count": 112,
      "max": [
        1,
        0,
        0,
        0
      ],
      "min": [
        0,
        0,
        0,
        0
      ],
      "type": "VEC4"
    },
    {
      "bufferView": 4,
      "componentType": 5126,
      "count": 112,
      "max": [
        1,
        0,
        0,
        0
      ],
      "min": [
        1,
        0,
        0,
        0
      ],
      "type": "VEC4"
    },
    {
      "bufferView": 5,
      "componentType": 5123,
      "count": 348,
      "max": [
        68
      ],
      "min": [
        0
      ],
      "type": "SCALAR"
    },
    {
      "bufferView": 6,
      "componentType": 5123,
      "count": 192,
      "max": [
        111
      ],
      "min": [
        69
      ],
      "type": "SCALAR"
    },
    {
      "bufferView": 7,
      "componentType": 5126,
      "count": 192,
      "max": [
        114.5332260131836,
        0.7839478850364685,
        160.48077392578125
      ],
      "min": [
        -114.53529357910156,
        -19.89243507385254,
        -97.52295684814453
      ],
      "type": "VEC3"
    },
    {
      "bufferView": 8,
      "componentType": 5126,
      "count": 192,
      "max": [
        0.9957735538482666,
        0.9874604940414429,
        0.989676296710968
      ],
      "min": [
        -0.9956569671630859,
        -0.9874604940414429,
        -0.9947468042373657
      ],
      "type": "VEC3"
    },
    {
      "bufferView": 9,
      "componentType": 5126,
      "count": 192,
      "max": [
        0.998779296875,
        0.998779296875
      ],
      "min": [
        0.0029296875,
        0.0009765625
      ],
      "type": "VEC2"
    },
    {
      "bufferView": 10,
      "componentType": 5123,
      "count": 192,
      "max": [
        21,
        0,
        0,
        0
      ],
      "min": [
        0,
        0,
        0,
        0
      ],
      "type": "VEC4"
    },
    {
      "bufferView": 11,
      "componentType": 5126,
      "count": 192,
      "max": [
        1,
        0,
        0,
        0
      ],
      "min": [
        1,
        0,
        0,
        0
      ],
      "type": "VEC4"
    },
    {
      "bufferView": 12,
      "componentType": 5123,
      "count": 288,
      "max": [
        191
      ],
      "min": [
        0
      ],
      "type": "SCALAR"
    },
    {
      "bufferView": 13,
      "componentType": 5126,
      "count": 22,
      "max": [
        0.9774656891822815,
        0.9928250908851624,
        0.9999778270721436,
        0,
        0.5494663715362549,
        0.9999128580093384,
        0.9952717423439026,
        0,
        0.9983823895454407,
        0.5494569540023804,
        0.9999995827674866,
        0,
        67.58493041992188,
        59.173927307128906,
        24.091581344604492,
        1
      ],
      "min": [
        -0.9621408581733704,
        -0.9936637878417969,
        -0.9999634027481079,
        0,
        -0.272551029920578,
        -0.9880627989768982,
        -0.995271623134613,
        0,
        -0.9998916387557983,
        -0.38288432359695435,
        -1.0000001192092896,
        0,
        -97.31675720214844,
        -57.689205169677734,
        -23.806459426879883,
        1
      ],
      "type": "MAT4"
    },
    {
      "bufferView": 14,
      "componentType": 5126,
      "count": 22,
      "max": [
        0.9774656891822815,
        0.9928250908851624,
        0.9999778270721436,
        0,
        0.5494663715362549,
        0.9999128580093384,
        0.9952717423439026,
        0,
        0.9983823895454407,
        0.5494569540023804,
        0.9999995827674866,
        0,
        67.58493041992188,
        59.173927307128906,
        24.091581344604492,
        1
      ],
      "min": [
        -0.9621408581733704,
        -0.9936637878417969,
        -0.9999634027481079,
        0,
        -0.272551029920578,
        -0.9880627989768982,
        -0.995271623134613,
        0,
        -0.9998916387557983,
        -0.38288432359695435,
        -1.0000001192092896,
        0,
        -97.31675720214844,
        -57.689205169677734,
        -23.806459426879883,
        1
      ],
      "type": "MAT4"
    }
  ],
  "materials": [
    {
      "pbrMetallicRoughness": {
        "metallicFactor": 0,
        "roughnessFactor": 1,
        "baseColorTexture": {
          "index": 0,
          "texCoord": 0
        }
      },
      "alphaMode": "MASK",
      "alphaCutoff": 0.01,
      "doubleSided": true
    },
    {
      "pbrMetallicRoughness": {
        "metallicFactor": 0,
        "roughnessFactor": 1,
        "baseColorTexture": {
          "index": 0,
          "texCoord": 0
        }
      },
      "alphaMode": "BLEND",
      "doubleSided": true
    }
  ],
  "textures": [
    {
      "sampler": 0,
      "source": 0
    }
  ],
  "samplers": [
    {
      "magFilter": 9729,
      "minFilter": 9729,
      "wrapS": 33071,
      "wrapT": 33071
    }
  ],
  "images": [
    {
      "mimeType": "image/png",
      "uri": "data:image/png;base64,"
    }
  ],
  "meshes": [
    {
      "primitives": [
        {
          "mode": 4,
          "attributes": {
            "POSITION": 0,
            "NORMAL": 1,
            "TEXCOORD_0": 2,
            "JOINTS_0": 3,
            "WEIGHTS_0": 4
          },
          "indices": 5,
          "material": 0
        },
        {
          "mode": 4,
          "attributes": {
            "POSITION": 0,
            "NORMAL": 1,
            "TEXCOORD_0": 2,
            "JOINTS_0": 3,
            "WEIGHTS_0": 4
          },
          "indices": 6,
          "material": 0
        }
      ]
    },
    {
      "primitives": [
        {
          "mode": 4,
          "attributes": {
            "POSITION": 7,
            "NORMAL": 8,
            "TEXCOORD_0": 9,
            "JOINTS_0": 10,
            "WEIGHTS_0": 11
          },
          "indices": 12,
          "material": 1
        }
      ]
    }
  ],
  "skins": [
    {
      "inverseBindMatrices": 13,
      "joints": [
        21,
        12,
        15,
        18,
        19,
        20,
        14,
        2,
        5,
        8,
        11,
        17,
        13,
        1,
        4,
        7,
        10,
        16,
        0,
        3,
        6,
        9
      ],
      "skeleton": 21
    },
    {
      "inverseBindMatrices": 14,
      "joints": [
        21,
        12,
        15,
        18,
        19,
        20,
        14,
        2,
        5,
        8,
        11,
        17,
        13,
        1,
        4,
        7,
        10,
        16,
        0,
        3,
        6,
        9
      ],
      "skeleton": 21
    }
  ]
}