{
  "asset": {
    "version": "2.0",
    "generator": "THREE.GLTFExporter"
  },
  "scenes": [
    {
      "name": "AuxScene",
      "nodes": [
        31
      ]
    }
  ],
  "scene": 0,
  "nodes": [
    {
      "rotation": [
        0.047743777554069236,
        0.005423188764866855,
        -0.38892130721977786,
        0.9200170331829735
      ],
      "translation": [
        198.4750154870842,
        1.818860889439975,
        -1.9277672467341773
      ],
      "scale": [
        0.9999988070730527,
        0.9999998724962955,
        0.9999991447892967
      ],
      "name": "Bone_20"
    },
    {
      "rotation": [
        3.700188484013224e-8,
        3.406033267935476e-7,
        8.315560881310762e-8,
        0.999999999999863
      ],
      "translation": [
        22.86511360950152,
        0.00000405924444635275,
        -0.000009420795691994499
      ],
      "scale": [
        0.999999602360747,
        0.9999995050837751,
        0.9999995431795052
      ],
      "name": "Bone_12",
      "children": [
        0
      ]
    },
    {
      "rotation": [
        3.700188484013224e-8,
        3.406033267935476e-7,
        8.315560881310762e-8,
        0.999999999999863
      ],
      "translation": [
        189.87321795117742,
        0.00003840587945802554,
        -0.000026534589665061503
      ],
      "scale": [
        0.999999602360747,
        0.9999995050837751,
        0.9999995431795052
      ],
      "name": "Bone_9",
      "children": [
        1
      ]
    },
    {
      "rotation": [
        -0.01600929573181175,
        0.04660412535320395,
        0.02973113622681317,
        0.9983425353127021
      ],
      "translation": [
        80.3714389619119,
        -5.4318698266248635,
        -47.27336120605468
      ],
      "scale": [
        0.9999998194658044,
        1.0000003225620597,
        0.9999999915804845
      ],
      "name": "Bone_6",
      "children": [
        2
      ]
    },
    {
      "rotation": [
        -0.0477434609963773,
        -0.0054230030220162135,
        -0.3889208247198339,
        0.9200172531731914
      ],
      "translation": [
        198.47502749055278,
        1.8188630346285137,
        1.92778655878125
      ],
      "scale": [
        1.0000003823353891,
        1.0000001531507234,
        0.9999999680833191
      ],
      "name": "Bone_21"
    },
    {
      "rotation": [
        -9.939531120993528e-8,
        -1.1118937906743862e-7,
        5.1246083345268785e-8,
        0.9999999999999691
      ],
      "translation": [
        22.865144287693397,
        0.000004418581724507931,
        0.000006512402222824676
      ],
      "scale": [
        0.9999999246409572,
        0.9999999223246346,
        0.9999999339275848
      ],
      "name": "Bone_13",
      "children": [
        4
      ]
    },
    {
      "rotation": [
        -9.939531120993528e-8,
        -1.1118937906743862e-7,
        5.1246083345268785e-8,
        0.9999999999999691
      ],
      "translation": [
        189.87321866837664,
        0.00003862766129714146,
        0.0000341280444615677
      ],
      "scale": [
        0.9999999246409572,
        0.9999999223246346,
        0.9999999339275848
      ],
      "name": "Bone_10",
      "children": [
        5
      ]
    },
    {
      "rotation": [
        0.015995149600665746,
        -0.04660442544352113,
        0.029730325938561907,
        0.9983427720127583
      ],
      "translation": [
        80.3714390898341,
        -5.431867923570069,
        47.27336120605468
      ],
      "scale": [
        1.0000001417461395,
        1.0000005431642518,
        0.99999959702456
      ],
      "name": "Bone_7",
      "children": [
        6
      ]
    },
    {
      "rotation": [
        -0.5164949247502194,
        -0.48294201795584674,
        0.5164949247502193,
        0.48294201795584674
      ],
      "translation": [
        0,
        -591.1074829101562,
        31.68143081665039
      ],
      "scale": [
        0.9999996115451568,
        0.9999996115451568,
        1
      ],
      "name": "Bone_0",
      "children": [
        3,
        7
      ]
    },
    {
      "rotation": [
        -0.026897045566328596,
        0.6938647669491108,
        0.3143950671959175,
        0.647289718684968
      ],
      "translation": [
        63.25961595483568,
        35.74284190399078,
        -13.128267566162322
      ],
      "scale": [
        1.0000002011206865,
        1.000000332806199,
        0.9999999406204992
      ],
      "name": "Bone_18"
    },
    {
      "rotation": [
        0.03453174906878865,
        0.5552914460219961,
        0.31364848214014285,
        0.7694696892437359
      ],
      "translation": [
        63.25961595483568,
        35.74284190399078,
        -13.128267566162322
      ],
      "scale": [
        0.9999997425659312,
        1.0000003310749168,
        1.0000000558965512
      ],
      "name": "Bone_19"
    },
    {
      "rotation": [
        7.203433835060158e-17,
        -6.733804258544535e-17,
        0.22440281901797712,
        0.9744964724496366
      ],
      "translation": [
        67.45572531062749,
        -0.000003691662296745335,
        0
      ],
      "scale": [
        0.9999995345204692,
        0.9999995345204691,
        1
      ],
      "name": "Bone_11",
      "children": [
        9,
        10
      ]
    },
    {
      "rotation": [
        -0.35603617236461943,
        -0.5495338691776084,
        -0.3856484543720373,
        0.6500199482546178
      ],
      "translation": [
        15.24508334903885,
        32.7395471389612,
        -14.238759969690875
      ],
      "scale": [
        1.0000004070431143,
        1.0000000228742272,
        0.9999990666956942
      ],
      "name": "Bone_28"
    },
    {
      "rotation": [
        -0.43071866599026226,
        -0.493184700678995,
        -0.2890763674937153,
        0.6983445329908542
      ],
      "translation": [
        15.245118349741404,
        32.73950296941865,
        -14.238783715046793
      ],
      "scale": [
        1.0000003710452547,
        1.0000005104446588,
        0.9999995452910404
      ],
      "name": "Bone_29"
    },
    {
      "rotation": [
        -9.712885367390609e-8,
        -5.135457614072433e-8,
        0.40820653505983256,
        0.912889601613707
      ],
      "translation": [
        130.87991357522617,
        -0.000006861092622045817,
        0.00005995064935859773
      ],
      "scale": [
        0.9999999049170569,
        1.0000007500268209,
        1.0000000077229259
      ],
      "name": "Bone_24",
      "children": [
        12,
        13
      ]
    },
    {
      "rotation": [
        0.42896396808737913,
        0.09431250853235648,
        0.5779890464910362,
        0.6877673071813029
      ],
      "translation": [
        61.53918747013182,
        13.566935866964855,
        5.1529774082660325
      ],
      "scale": [
        1.0000002281603606,
        0.9999995988136854,
        0.9999993709567595
      ],
      "name": "Bone_22",
      "children": [
        14
      ]
    },
    {
      "rotation": [
        -0.42406774387071844,
        0.42434425096368367,
        0.6027009333419543,
        0.5261653784267991
      ],
      "translation": [
        50.71147641263212,
        -7.2204132038574755,
        -14.060270587402556
      ],
      "scale": [
        1.0000003849938548,
        0.9999992950224837,
        1.000000200175841
      ],
      "name": "Bone_14",
      "children": [
        15
      ]
    },
    {
      "rotation": [
        -9.282854307778994e-8,
        -1.2753167736346713e-7,
        0.40872173963421177,
        0.9126590489061699
      ],
      "translation": [
        130.8798411364104,
        -0.000022856244179969565,
        0.000013117838022935757
      ],
      "scale": [
        0.9999999022168392,
        0.9999996083215152,
        1.0000004883546298
      ],
      "name": "Bone_25"
    },
    {
      "rotation": [
        0.7568585346335585,
        -0.6161535529958322,
        -0.10282936983489634,
        -0.19221341246124377
      ],
      "translation": [
        97.07893338708345,
        22.37343548435515,
        9.397469482839256
      ],
      "scale": [
        1.0000005182750065,
        0.9999995485957178,
        0.9999995812384102
      ],
      "name": "Bone_26"
    },
    {
      "rotation": [
        0.7402486376481294,
        -0.5902891118020812,
        -0.18825706010779444,
        -0.2610554135879559
      ],
      "translation": [
        97.0789398185243,
        22.37344270108076,
        9.397457676652095
      ],
      "scale": [
        1.0000011479502826,
        0.9999995417709232,
        0.9999994529883157
      ],
      "name": "Bone_27"
    },
    {
      "rotation": [
        -0.42880653036131133,
        -0.09480747038895432,
        0.5773579897560401,
        0.6883272337691995
      ],
      "translation": [
        61.539170457064756,
        13.566937026014898,
        -5.152973444482235
      ],
      "scale": [
        1.000000803620414,
        0.9999996062241148,
        0.9999992794217646
      ],
      "name": "Bone_23",
      "children": [
        17,
        18,
        19
      ]
    },
    {
      "rotation": [
        0.424067743783398,
        -0.42434425087681854,
        0.6027009334309403,
        0.5261653784797774
      ],
      "translation": [
        50.71147589905206,
        -7.2204055917707635,
        14.060273846191194
      ],
      "scale": [
        1.0000003838456202,
        0.9999992950224837,
        1.0000001990249452
      ],
      "name": "Bone_15",
      "children": [
        20
      ]
    },
    {
      "rotation": [
        -0.04394485942137365,
        0.05312510979538361,
        0.6358742051907438,
        0.7687070740367166
      ],
      "translation": [
        9.171274272294909,
        45.338103843751014,
        -0.000005000000214749889
      ],
      "scale": [
        1.0000001652913943,
        1.0000000522811514,
        0.9999999167737961
      ],
      "name": "Bone_16"
    },
    {
      "rotation": [
        0.03631181506964441,
        -0.04389699524398617,
        0.636355854550028,
        0.7692891073405531
      ],
      "translation": [
        9.171274272294909,
        45.338103843751014,
        -0.000005000000214749889
      ],
      "scale": [
        0.9999994268182414,
        1.0000000529553816,
        1.0000000616561004
      ],
      "name": "Bone_17"
    },
    {
      "rotation": [
        0,
        0,
        0.1924211308584469,
        0.9813124417835313
      ],
      "translation": [
        36.19333474339351,
        -0.000009149530683316698,
        0.000002000000222324161
      ],
      "scale": [
        1.000000258892597,
        1.000000258892597,
        1
      ],
      "name": "Bone_8",
      "children": [
        11,
        16,
        21,
        22,
        23
      ]
    },
    {
      "rotation": [
        0,
        0,
        0.08479097617555327,
        0.9963987607174132
      ],
      "translation": [
        46.604504848530496,
        -0.0000016007623457880982,
        0.000002999999992425728
      ],
      "scale": [
        0.9999999828841866,
        0.9999999828841866,
        1
      ],
      "name": "Bone_3",
      "children": [
        24
      ]
    },
    {
      "rotation": [
        0,
        0,
        -0.1672764170860363,
        0.9859100366092528
      ],
      "translation": [
        42.592988943464775,
        -0.0000021444787989821634,
        9.999999974752427e-7
      ],
      "scale": [
        1.0000001133211056,
        1.0000001133211056,
        1
      ],
      "name": "Bone_2",
      "children": [
        25
      ]
    },
    {
      "rotation": [
        -0.07043078495154759,
        0.06052721303892518,
        0.7551391210983693,
        0.6489536737742356
      ],
      "translation": [
        30.81560416092202,
        26.324916145404444,
        -0.0000019999999949504854
      ],
      "scale": [
        1.0000004579758524,
        0.9999997178517279,
        1.000000110729684
      ],
      "name": "Bone_4"
    },
    {
      "rotation": [
        0.037147504088922985,
        -0.03192381708853493,
        0.757506689348052,
        0.6509873646274542
      ],
      "translation": [
        30.81560416092202,
        26.324916145404444,
        -0.0000019999999949504854
      ],
      "scale": [
        1.000000538990084,
        0.9999995790510927,
        1.0000001472508238
      ],
      "name": "Bone_5"
    },
    {
      "rotation": [
        -0.5666350312909624,
        0.4229949660621152,
        0.5666350312909625,
        -0.4229949660621152
      ],
      "translation": [
        0,
        -591.1074829101562,
        31.68143081665039
      ],
      "scale": [
        0.9999999226524113,
        0.9999999226524113,
        1
      ],
      "name": "Bone_1",
      "children": [
        26,
        27,
        28
      ]
    },
    {
      "mesh": 0,
      "children": [
        8,
        29
      ],
      "skin": 0
    },
    {
      "extras": {
        "silentHillModel": {
          "name": "scu.mdl",
          "characterId": 512
        }
      },
      "children": [
        30
      ]
    }
  ],
  "bufferViews": [
    {
      "buffer": 0,
      "byteOffset": 0,
      "byteLength": 24216,
      "target": 34962,
      "byteStride": 12
    },
    {
      "buffer": 0,
      "byteOffset": 24216,
      "byteLength": 24216,
      "target": 34962,
      "byteStride": 12
    },
    {
      "buffer": 0,
      "byteOffset": 48432,
      "byteLength": 16144,
      "target": 34962,
      "byteStride": 8
    },
    {
      "buffer": 0,
      "byteOffset": 64576,
      "byteLength": 16144,
      "target": 34962,
      "byteStride": 8
    },
    {
      "buffer": 0,
      "byteOffset": 80720,
      "byteLength": 32288,
      "target": 34962,
      "byteStride": 16
    },
    {
      "buffer": 0,
      "byteOffset": 113008,
      "byteLength": 7272,
      "target": 34963
    },
    {
      "buffer": 0,
      "byteOffset": 120280,
      "byteLength": 1764,
      "target": 34963
    },
    {
      "buffer": 0,
      "byteOffset": 122044,
      "byteLength": 1880,
      "target": 34963
    },
    {
      "buffer": 0,
      "byteOffset": 123924,
      "byteLength": 1500,
      "target": 34963
    },
    {
      "buffer": 0,
      "byteOffset": 125424,
      "byteLength": 6128,
      "target": 34963
    },
    {
      "buffer": 0,
      "byteOffset": 131552,
      "byteLength": 1920
    }
  ],
  "buffers": [
    {
      "byteLength": 133472,
      "uri": "data:application/octet-stream;base64,"
    }
  ],
  "accessors": [
    {
      "bufferView": 0,
      "componentType": 5126,
      "count": 2018,
      "max": [
        117.8291015625,
        0.010344202630221844,
        119.36559295654297
      ],
      "min": [
        -117.83058166503906,
        -872.0956420898438,
        -65.98027038574219
      ],
      "type": "VEC3"
    },
    {
      "bufferView": 1,
      "componentType": 5126,
      "count": 2018,
      "max": [
        0.9992862343788147,
        0.9998062252998352,
        0.9962201714515686
      ],
      "min": [
        -0.9992865920066833,
        -0.9994490742683411,
        -0.9999299645423889
      ],
      "type": "VEC3"
    },
    {
      "bufferView": 2,
      "componentType": 5126,
      "count": 2018,
      "max": [
        0.998779296875,
        0.998779296875
      ],
      "min": [
        0.0009765625,
        0.0009765625
      ],
      "type": "VEC2"
    },
    {
      "bufferView": 3,
      "componentType": 5123,
      "count": 2018,
      "max": [
        25,
        27,
        29,
        29
      ],
      "min": [
        0,
        0,
        0,
        0
      ],
      "type": "VEC4"
    },
    {
      "bufferView": 4,
      "componentType": 5126,
      "count": 2018,
      "max": [
        1,
        0.9870573878288269,
        0.9413776397705078,
        0.2401074767112732
      ],
      "min": [
        0.01294261310249567,
        0,
        0,
        0
      ],
      "type": "VEC4"
    },
    {
      "bufferView": 5,
      "componentType": 5123,
      "count": 3636,
      "max": [
        662
      ],
      "min": [
        0
      ],
      "type": "SCALAR"
    },
    {
      "bufferView": 6,
      "componentType": 5123,
      "count": 882,
      "max": [
        880
      ],
      "min": [
        663
      ],
      "type": "SCALAR"
    },
    {
      "bufferView": 7,
      "componentType": 5123,
      "count": 939,
      "max": [
        1130
      ],
      "min": [
        881
      ],
      "type": "SCALAR"
    },
    {
      "bufferView": 8,
      "componentType": 5123,
      "count": 750,
      "max": [
        1341
      ],
      "min": [
        1131
      ],
      "type": "SCALAR"
    },
    {
      "bufferView": 9,
      "componentType": 5123,
      "count": 3063,
      "max": [
        2017
      ],
      "min": [
        1342
      ],
      "type": "SCALAR"
    },
    {
      "bufferView": 10,
      "componentType": 5126,
      "count": 30,
      "max": [
        0.9577223658561707,
        0.877182126045227,
        0.45847100019454956,
        0,
        0.9977487921714783,
        0.9976879358291626,
        0.437203973531723,
        0,
        0.9858341217041016,
        0.9977314472198486,
        0.9599421620368958,
        0,
        653.0172729492188,
        750.9076538085938,
        344.08514404296875,
        1
      ],
      "min": [
        -0.9947414398193359,
        -0.9277600049972534,
        -1,
        0,
        -0.9977314472198486,
        -0.9286390542984009,
        -0.9388042688369751,
        0,
        -0.5846189260482788,
        -0.9977487921714783,
        -0.9599421620368958,
        0,
        -702.5906982421875,
        -592.8843383789062,
        -583.5379638671875,
        1
      ],
      "type": "MAT4"
    }
  ],
  "materials": [
    {
      "pbrMetallicRoughness": {
        "metallicFactor": 0,
        "roughnessFactor": 1,
        "baseColorTexture": {
          "index": 0,
          "texCoord": 0
        }
      },
      "alphaMode": "MASK",
      "alphaCutoff": 0.01,
      "doubleSided": true
    },
    {
      "pbrMetallicRoughness": {
        "metallicFactor": 0,
        "roughnessFactor": 1,
        "baseColorTexture": {
          "index": 1,
          "texCoord": 0
        }
      },
      "alphaMode": "MASK",
      "alphaCutoff": 0.01,
      "doubleSided": true
    }
  ],
  "textures": [
    {
      "sampler": 0,
      "source": 0
    },
    {
      "sampler": 1,
      "source": 1
    }
  ],
  "samplers": [
    {
      "magFilter": 9729,
      "minFilter": 9729,
      "wrapS": 33071,
      "wrapT": 33071
    },
    {
      "magFilter": 9729,
      "minFilter": 9729,
      "wrapS": 33071,
      "wrapT": 33071
    }
  ],
  "images": [
    {
      "mimeType": "image/png",
      "uri": "data:image/png;base64,"
    },
    {
      "mimeType": "image/png",
      "uri": "data:image/png;base64,"
    }
  ],
  "meshes": [
    {
      "primitives": [
        {
          "mode": 4,
          "attributes": {
            "POSITION": 0,
            "NORMAL": 1,
            "TEXCOORD_0": 2,
            "JOINTS_0": 3,
            "WEIGHTS_0": 4
          },
          "indices": 5,
          "material": 0
        },
        {
          "mode": 4,
          "attributes": {
            "POSITION": 0,
            "NORMAL": 1,
            "TEXCOORD_0": 2,
            "JOINTS_0": 3,
            "WEIGHTS_0": 4
          },
          "indices": 6,
          "material": 1
        },
        {
          "mode": 4,
          "attributes": {
            "POSITION": 0,
            "NORMAL": 1,
            "TEXCOORD_0": 2,
            "JOINTS_0": 3,
            "WEIGHTS_0": 4
          },
          "indices": 7,
          "material": 1
        },
        {
          "mode": 4,
          "attributes": {
            "POSITION": 0,
            "NORMAL": 1,
            "TEXCOORD_0": 2,
            "JOINTS_0": 3,
            "WEIGHTS_0": 4
          },
          "indices": 8,
          "material": 1
        },
        {
          "mode": 4,
          "attributes": {
            "POSITION": 0,
            "NORMAL": 1,
            "TEXCOORD_0": 2,
            "JOINTS_0": 3,
            "WEIGHTS_0": 4
          },
          "indices": 9,
          "material": 1
        }
      ]
    }
  ],
  "skins": [
    {
      "inverseBindMatrices": 10,
      "joints": [
        8,
        29,
        26,
        25,
        27,
        28,
        3,
        7,
        24,
        2,
        6,
        11,
        1,
        5,
        16,
        21,
        22,
        23,
        9,
        10,
        0,
        4,
        15,
        20,
        14,
        17,
        18,
        19,
        12,
        13
      ],
      "skeleton": 8
    }
  ]
}