{
  "asset": {
    "version": "2.0",
    "generator": "THREE.GLTFExporter"
  },
  "scenes": [
    {
      "name": "AuxScene",
      "nodes": [
        16
      ]
    }
  ],
  "scene": 0,
  "nodes": [
    {
      "rotation": [
        0,
        0,
        -0.12347279406459633,
        0.9923479576871622
      ],
      "translation": [
        94.01573029139155,
        0.00004157341300015105,
        0
      ],
      "scale": [
        0.9999992732663272,
        0.9999992732663273,
        1
      ],
      "name": "Bone_8"
    },
    {
      "rotation": [
        0,
        0,
        0.6065766420797805,
        0.7950250167656474
      ],
      "translation": [
        60.80122215476922,
        -0.000020510844279897356,
        0
      ],
      "scale": [
        0.9999999876787141,
        0.999999987678714,
        1
      ],
      "name": "Bone_3",
      "children": [
        0
      ]
    },
    {
      "rotation": [
        -5.5229284452557235e-17,
        4.697576426748072e-17,
        0.1256143338245935,
        0.9920791496336386
      ],
      "translation": [
        219.73033837504147,
        -0.00011323361471227145,
        0
      ],
      "scale": [
        1.0000003731514557,
        1.0000003731514557,
        0.9999999999999998
      ],
      "name": "Bone_2",
      "children": [
        1
      ]
    },
    {
      "rotation": [
        0.7127722980008504,
        -0.007091930086307774,
        0.01786734656848273,
        0.7011320274372222
      ],
      "translation": [
        29.84704440501976,
        1.7461590811384795,
        -2.784333297088665
      ],
      "scale": [
        0.9999997270732036,
        0.9999998745386297,
        1.0000003673321796
      ],
      "name": "Bone_13"
    },
    {
      "rotation": [
        -6.128936457887162e-8,
        2.571089537890878e-7,
        0.024228386705253006,
        0.9997064495528617
      ],
      "translation": [
        234.6772804020132,
        -0.00004929747256454675,
        -0.00006938874787465465
      ],
      "scale": [
        1.0000005302268966,
        0.9999997887715597,
        0.9999999479826943
      ],
      "name": "Bone_11",
      "children": [
        3
      ]
    },
    {
      "rotation": [
        -0.691432556877847,
        -0.04609929792543087,
        0.15993561527953754,
        0.7030053034997705
      ],
      "translation": [
        58.35501910784515,
        1.280108654184005,
        -1.1239827955570263
      ],
      "scale": [
        1.0000001946284172,
        0.9999997027469967,
        1.0000000528350454
      ],
      "name": "Bone_9",
      "children": [
        4
      ]
    },
    {
      "rotation": [
        0.591491938178991,
        -0.48039911597095936,
        0.4836297569461624,
        0.43064628760912854
      ],
      "translation": [
        165.41568526972333,
        0.9500767531150984,
        26.401973724365234
      ],
      "scale": [
        0.9999995716023957,
        0.9999996166540492,
        1.0000001247966115
      ],
      "name": "Bone_5",
      "children": [
        5
      ]
    },
    {
      "rotation": [
        -0.7127722855020726,
        0.0070916590519261085,
        0.017867503937869858,
        0.7011320336312863
      ],
      "translation": [
        29.84706373628653,
        1.746139047765574,
        2.784369171078197
      ],
      "scale": [
        1.0000006382527244,
        0.9999999175881267,
        1.0000003704358946
      ],
      "name": "Bone_14"
    },
    {
      "rotation": [
        3.6712574913913765e-8,
        2.8164976048202455e-8,
        0.024228175973262874,
        0.9997064546600694
      ],
      "translation": [
        234.67731738183093,
        -0.000034038535574154594,
        0.0000787525360692598
      ],
      "scale": [
        0.9999999542665826,
        0.9999998505817379,
        1.000000009066639
      ],
      "name": "Bone_12",
      "children": [
        7
      ]
    },
    {
      "rotation": [
        0.6914325540463221,
        0.0460992967900899,
        0.15993561331688036,
        0.703005306419793
      ],
      "translation": [
        58.3550103568017,
        1.280108256730955,
        1.1239890944942914
      ],
      "scale": [
        1.000000209688314,
        0.9999997027469965,
        1.000000052835045
      ],
      "name": "Bone_10",
      "children": [
        8
      ]
    },
    {
      "rotation": [
        0.5914919381785547,
        -0.48039911597074314,
        -0.4836297569466419,
        -0.4306462876095442
      ],
      "translation": [
        165.41568526972333,
        0.9500767531150984,
        -26.401973724365234
      ],
      "scale": [
        0.9999995716112925,
        0.9999996166540492,
        1.0000001248055175
      ],
      "name": "Bone_7",
      "children": [
        9
      ]
    },
    {
      "rotation": [
        -0.5386239367161376,
        0.4581312637186095,
        0.5386239367161376,
        -0.4581312637186095
      ],
      "translation": [
        0,
        -843.353271484375,
        -0.33878999948501587
      ],
      "scale": [
        1.0000001526207298,
        1.0000001526207298,
        1
      ],
      "name": "Bone_0",
      "children": [
        2,
        6,
        10
      ]
    },
    {
      "rotation": [
        1.0864664132220652e-16,
        -6.350485122318925e-18,
        0.017860344191376117,
        0.9998404913311749
      ],
      "translation": [
        113.64244390102431,
        -15.45064104437671,
        54.42227554321289
      ],
      "scale": [
        1.0000000758472514,
        1.0000000758472514,
        0.9999999999999998
      ],
      "name": "Bone_4"
    },
    {
      "rotation": [
        1.0864664132220652e-16,
        -6.350485122318925e-18,
        0.017860344191376117,
        0.9998404913311749
      ],
      "translation": [
        113.64250501161996,
        -15.450642431516108,
        -54.42227554321289
      ],
      "scale": [
        1.0000000758472514,
        1.0000000758472514,
        0.9999999999999998
      ],
      "name": "Bone_6"
    },
    {
      "rotation": [
        -0.5189535084631547,
        -0.48029913184783335,
        0.5189535084631548,
        0.48029913184783335
      ],
      "translation": [
        0,
        -843.353271484375,
        -0.33878999948501587
      ],
      "scale": [
        1.0000003418419816,
        1.0000003418419816,
        1
      ],
      "name": "Bone_1",
      "children": [
        12,
        13
      ]
    },
    {
      "mesh": 0,
      "children": [
        11,
        14
      ],
      "skin": 0
    },
    {
      "extras": {
        "silentHillModel": {
          "name": "arm.mdl",
          "characterId": 522
        }
      },
      "children": [
        15
      ]
    }
  ],
  "bufferViews": [
    {
      "buffer": 0,
      "byteOffset": 0,
      "byteLength": 19428,
      "target": 34962,
      "byteStride": 12
    },
    {
      "buffer": 0,
      "byteOffset": 19428,
      "byteLength": 19428,
      "target": 34962,
      "byteStride": 12
    },
    {
      "buffer": 0,
      "byteOffset": 38856,
      "byteLength": 12952,
      "target": 34962,
      "byteStride": 8
    },
    {
      "buffer": 0,
      "byteOffset": 51808,
      "byteLength": 12952,
      "target": 34962,
      "byteStride": 8
    },
    {
      "buffer": 0,
      "byteOffset": 64760,
      "byteLength": 25904,
      "target": 34962,
      "byteStride": 16
    },
    {
      "buffer": 0,
      "byteOffset": 90664,
      "byteLength": 72,
      "target": 34963
    },
    {
      "buffer": 0,
      "byteOffset": 90736,
      "byteLength": 2244,
      "target": 34963
    },
    {
      "buffer": 0,
      "byteOffset": 92980,
      "byteLength": 180,
      "target": 34963
    },
    {
      "buffer": 0,
      "byteOffset": 93160,
      "byteLength": 4128,
      "target": 34963
    },
    {
      "buffer": 0,
      "byteOffset": 97288,
      "byteLength": 2496,
      "target": 34963
    },
    {
      "buffer": 0,
      "byteOffset": 99784,
      "byteLength": 2604,
      "target": 34963
    },
    {
      "buffer": 0,
      "byteOffset": 102388,
      "byteLength": 864,
      "target": 34963
    },
    {
      "buffer": 0,
      "byteOffset": 103252,
      "byteLength": 2952,
      "target": 34963
    },
    {
      "buffer": 0,
      "byteOffset": 106204,
      "byteLength": 960
    }
  ],
  "buffers": [
    {
      "byteLength": 107164,
      "uri": "data:application/octet-stream;base64,"
    }
  ],
  "accessors": [
    {
      "bufferView": 0,
      "componentType": 5126,
      "count": 1619,
      "max": [
        861.853515625,
        1.3802390098571777,
        149.36483764648438
      ],
      "min": [
        -861.85400390625,
        -1247.6259765625,
        -116.21485137939453
      ],
      "type": "VEC3"
    },
    {
      "bufferView": 1,
      "componentType": 5126,
      "count": 1619,
      "max": [
        0.9996682405471802,
        0.999568521976471,
        0.9990179538726807
      ],
      "min": [
        -0.9996680021286011,
        -0.9952093362808228,
        -0.9993568658828735
      ],
      "type": "VEC3"
    },
    {
      "bufferView": 2,
      "componentType": 5126,
      "count": 1619,
      "max": [
        0.999267578125,
        0.998779296875
      ],
      "min": [
        0.00048828125,
        0.0009765625
      ],
      "type": "VEC2"
    },
    {
      "bufferView": 3,
      "componentType": 5123,
      "count": 1619,
      "max": [
        14,
        12,
        6,
        0
      ],
      "min": [
        0,
        0,
        0,
        0
      ],
      "type": "VEC4"
    },
    {
      "bufferView": 4,
      "componentType": 5126,
      "count": 1619,
      "max": [
        1,
        0.9501831531524658,
        0.20000000298023224,
        0
      ],
      "min": [
        0.04981685057282448,
        0,
        0,
        0
      ],
      "type": "VEC4"
    },
    {
      "bufferView": 5,
      "componentType": 5123,
      "count": 36,
      "max": [
        15
      ],
      "min": [
        0
      ],
      "type": "SCALAR"
    },
    {
      "bufferView": 6,
      "componentType": 5123,
      "count": 1122,
      "max": [
        258
      ],
      "min": [
        16
      ],
      "type": "SCALAR"
    },
    {
      "bufferView": 7,
      "componentType": 5123,
      "count": 90,
      "max": [
        285
      ],
      "min": [
        259
      ],
      "type": "SCALAR"
    },
    {
      "bufferView": 8,
      "componentType": 5123,
      "count": 2064,
      "max": [
        713
      ],
      "min": [
        286
      ],
      "type": "SCALAR"
    },
    {
      "bufferView": 9,
      "componentType": 5123,
      "count": 1248,
      "max": [
        951
      ],
      "min": [
        714
      ],
      "type": "SCALAR"
    },
    {
      "bufferView": 10,
      "componentType": 5123,
      "count": 1302,
      "max": [
        1222
      ],
      "min": [
        952
      ],
      "type": "SCALAR"
    },
    {
      "bufferView": 11,
      "componentType": 5123,
      "count": 432,
      "max": [
        1311
      ],
      "min": [
        1223
      ],
      "type": "SCALAR"
    },
    {
      "bufferView": 12,
      "componentType": 5123,
      "count": 1476,
      "max": [
        1618
      ],
      "min": [
        1312
      ],
      "type": "SCALAR"
    },
    {
      "bufferView": 13,
      "componentType": 5126,
      "count": 15,
      "max": [
        0.9858908653259277,
        0.27854272723197937,
        0.24546611309051514,
        0,
        0.9970113635063171,
        0.9989704489707947,
        0.9694055914878845,
        0,
        0.9844520092010498,
        1.0000001192092896,
        0.997822642326355,
        0,
        840.8065795898438,
        1108.646484375,
        997.9644775390625,
        1
      ],
      "min": [
        -0.9858908653259277,
        -0.2785431146621704,
        -1,
        0,
        -0.9958859086036682,
        -0.16046296060085297,
        -0.9694054126739502,
        0,
        -0.1611260026693344,
        -0.9970113635063171,
        -0.9978227019309998,
        0,
        -1052.64892578125,
        -134.9925537109375,
        -997.9644165039062,
        1
      ],
      "type": "MAT4"
    }
  ],
  "materials": [
    {
      "pbrMetallicRoughness": {
        "metallicFactor": 0,
        "roughnessFactor": 1,
        "baseColorTexture": {
          "index": 0,
          "texCoord": 0
        }
      },
      "alphaMode": "MASK",
      "alphaCutoff": 0.01,
      "doubleSided": true
    },
    {
      "pbrMetallicRoughness": {
        "metallicFactor": 0,
        "roughnessFactor": 1,
        "baseColorTexture": {
          "index": 1,
          "texCoord": 0
        }
      },
      "alphaMode": "MASK",
      "alphaCutoff": 0.01,
      "doubleSided": true
    }
  ],
  "textures": [
    {
      "sampler": 0,
      "source": 0
    },
    {
      "sampler": 1,
      "source": 1
    }
  ],
  "samplers": [
    {
      "magFilter": 9729,
      "minFilter": 9729,
      "wrapS": 33071,
      "wrapT": 33071
    },
    {
      "magFilter": 9729,
      "minFilter": 9729,
      "wrapS": 33071,
      "wrapT": 33071
    }
  ],
  "images": [
    {
      "mimeType": "image/png",
      "uri": "data:image/png;base64,"
    },
    {
      "mimeType": "image/png",
      "uri": "data:image/png;base64,"
    }
  ],
  "meshes": [
    {
      "primitives": [
        {
          "mode": 4,
          "attributes": {
            "POSITION": 0,
            "NORMAL": 1,
            "TEXCOORD_0": 2,
            "JOINTS_0": 3,
            "WEIGHTS_0": 4
          },
          "indices": 5,
          "material": 0
        },
        {
          "mode": 4,
          "attributes": {
            "POSITION": 0,
            "NORMAL": 1,
            "TEXCOORD_0": 2,
            "JOINTS_0": 3,
            "WEIGHTS_0": 4
          },
          "indices": 6,
          "material": 0
        },
        {
          "mode": 4,
          "attributes": {
            "POSITION": 0,
            "NORMAL": 1,
            "TEXCOORD_0": 2,
            "JOINTS_0": 3,
            "WEIGHTS_0": 4
          },
          "indices": 7,
          "material": 1
        },
        {
          "mode": 4,
          "attributes": {
            "POSITION": 0,
            "NORMAL": 1,
            "TEXCOORD_0": 2,
            "JOINTS_0": 3,
            "WEIGHTS_0": 4
          },
          "indices": 8,
          "material": 1
        },
        {
          "mode": 4,
          "attributes": {
            "POSITION": 0,
            "NORMAL": 1,
            "TEXCOORD_0": 2,
            "JOINTS_0": 3,
            "WEIGHTS_0": 4
          },
          "indices": 9,
          "material": 1
        },
        {
          "mode": 4,
          "attributes": {
            "POSITION": 0,
            "NORMAL": 1,
            "TEXCOORD_0": 2,
            "JOINTS_0": 3,
            "WEIGHTS_0": 4
          },
          "indices": 10,
          "material": 1
        },
        {
          "mode": 4,
          "attributes": {
            "POSITION": 0,
            "NORMAL": 1,
            "TEXCOORD_0": 2,
            "JOINTS_0": 3,
            "WEIGHTS_0": 4
          },
          "indices": 11,
          "material": 1
        },
        {
          "mode": 4,
          "attributes": {
            "POSITION": 0,
            "NORMAL": 1,
            "TEXCOORD_0": 2,
            "JOINTS_0": 3,
            "WEIGHTS_0": 4
          },
          "indices": 12,
          "material": 1
        }
      ]
    }
  ],
  "skins": [
    {
      "inverseBindMatrices": 13,
      "joints": [
        11,
        14,
        2,
        1,
        12,
        6,
        13,
        10,
        0,
        5,
        9,
        4,
        8,
        3,
        7
      ],
      "skeleton": 11
    }
  ]
}