{
  "asset": {
    "version": "2.0",
    "generator": "THREE.GLTFExporter"
  },
  "scenes": [
    {
      "name": "AuxScene",
      "nodes": [
        18
      ]
    }
  ],
  "scene": 0,
  "nodes": [
    {
      "rotation": [
        -7.409552020388094e-7,
        4.513614775935209e-7,
        -0.23951457133893042,
        0.9708927696278189
      ],
      "translation": [
        89.03429874157673,
        0.0000030628155123224587,
        -0.00004941673219605036
      ],
      "scale": [
        0.9999997308280313,
        0.9999997940071347,
        0.9999997810871307
      ],
      "name": "Bone_15"
    },
    {
      "rotation": [
        0.016737769630828594,
        -0.055443444886226406,
        -0.5267397712266045,
        0.8480513508838986
      ],
      "translation": [
        216.2281599890846,
        -18.4538268456032,
        0.4771719442181208
      ],
      "scale": [
        1.000000311500823,
        1.000000509787722,
        0.9999997251646752
      ],
      "name": "Bone_13",
      "children": [
        0
      ]
    },
    {
      "rotation": [
        2.5598580377066e-7,
        -1.3998290253907343e-7,
        -0.03736938311469786,
        0.9993015206660731
      ],
      "translation": [
        23.218954185972564,
        -0.000010429632524733279,
        0.000005947104696701899
      ],
      "scale": [
        0.9999996689898317,
        0.9999990907698297,
        0.9999998636540041
      ],
      "name": "Bone_10",
      "children": [
        1
      ]
    },
    {
      "rotation": [
        -2.4169386870183084e-7,
        5.7797284734703795e-8,
        0.05266942017545027,
        0.9986120028210697
      ],
      "translation": [
        219.36120578313387,
        0.000009550117184176088,
        -0.0000389665821245444
      ],
      "scale": [
        0.9999998429932755,
        1.0000003498964087,
        1.0000000131889442
      ],
      "name": "Bone_6",
      "children": [
        2
      ]
    },
    {
      "rotation": [
        -0.002926767404136777,
        -0.022805563712536243,
        -0.023884302882773652,
        0.9994502891020577
      ],
      "translation": [
        68.52049959636679,
        3.9841928777920543,
        40.27415466308593
      ],
      "scale": [
        0.9999999761014386,
        1.0000003034118068,
        1.000000240145042
      ],
      "name": "Bone_3",
      "children": [
        3
      ]
    },
    {
      "rotation": [
        -1.726659173359407e-7,
        1.3718724663748507e-8,
        -0.23951468473131968,
        0.9708927416548215
      ],
      "translation": [
        89.03429311537082,
        0.000009864842780871186,
        -0.00002257433001773279
      ],
      "scale": [
        0.9999997429628262,
        1.0000001767422273,
        1.0000000380619403
      ],
      "name": "Bone_16"
    },
    {
      "rotation": [
        -0.016737899694234403,
        0.055443308019421475,
        -0.5267398587910016,
        0.8480513025630524
      ],
      "translation": [
        216.22791203230693,
        -18.45380542599574,
        -0.4771999002244982
      ],
      "scale": [
        1.000000073276638,
        0.9999996517813432,
        0.9999997271374867
      ],
      "name": "Bone_14",
      "children": [
        5
      ]
    },
    {
      "rotation": [
        -2.371641958007568e-7,
        2.3784192665800732e-7,
        -0.037369410270869916,
        0.9993015196505175
      ],
      "translation": [
        23.218984418136245,
        -0.000013973272807277226,
        -7.334738327813284e-7
      ],
      "scale": [
        1.0000005030491521,
        0.9999988833446544,
        0.9999996806411354
      ],
      "name": "Bone_12",
      "children": [
        6
      ]
    },
    {
      "rotation": [
        1.7662062389519917e-7,
        5.0798859358154695e-8,
        0.05266946960505995,
        0.9986120002140348
      ],
      "translation": [
        219.3612072114255,
        0.00000802310061942535,
        0.000004670619063062986
      ],
      "scale": [
        0.9999996776978523,
        1.0000001306132815,
        0.9999998314476936
      ],
      "name": "Bone_8",
      "children": [
        7
      ]
    },
    {
      "rotation": [
        0.002927752838351957,
        0.02280555902302932,
        -0.023884283222522583,
        0.9994502867572251
      ],
      "translation": [
        68.52049844684558,
        3.9841853354928745,
        -40.274116516113274
      ],
      "scale": [
        0.9999998623921464,
        1.0000001763653827,
        1.00000011637763
      ],
      "name": "Bone_4",
      "children": [
        8
      ]
    },
    {
      "rotation": [
        -0.5363464427090789,
        -0.46079550062182306,
        0.536346442709079,
        0.46079550062182306
      ],
      "translation": [
        0,
        -576.886962890625,
        36.17988967895508
      ],
      "scale": [
        0.9999998702096861,
        0.9999998702096861,
        1
      ],
      "name": "Bone_0",
      "children": [
        4,
        9
      ]
    },
    {
      "rotation": [
        4.007967356565868e-8,
        -1.2876932069090285e-8,
        1.3710185940863834e-8,
        0.999999999999998
      ],
      "translation": [
        199.74322285592223,
        0.00004735423210888712,
        0.000019073817810522087
      ],
      "scale": [
        1.000000053168339,
        1.0000000539949825,
        1.0000000531679611
      ],
      "name": "Bone_9"
    },
    {
      "rotation": [
        4.008890563968255e-8,
        -1.156871709327294e-8,
        -0.00037953342869578795,
        0.999999927977184
      ],
      "translation": [
        62.403913122636595,
        23.70482241186433,
        43.01745358268238
      ],
      "scale": [
        0.9999995869037478,
        0.9999995877303923,
        1.0000000531679607
      ],
      "name": "Bone_5",
      "children": [
        11
      ]
    },
    {
      "rotation": [
        2.433212601618385e-8,
        -2.7500826768252613e-8,
        0.00489661979722614,
        0.9999880114854166
      ],
      "translation": [
        199.74305725130887,
        0.00006209969913939517,
        0.00008148787621564679
      ],
      "scale": [
        1.0000002107481298,
        1.0000002110995216,
        1.000000032194253
      ],
      "name": "Bone_11"
    },
    {
      "rotation": [
        4.69533311976654e-8,
        4.906698859098188e-7,
        -0.002956949365432624,
        0.9999956282155463
      ],
      "translation": [
        62.899433808054596,
        -9.801682105206272,
        -43.01745274629971
      ],
      "scale": [
        1.0000000425376876,
        1.0000000437838295,
        1.000000060211572
      ],
      "name": "Bone_7",
      "children": [
        13
      ]
    },
    {
      "rotation": [
        -1.3827306130547885e-7,
        6.843401436472744e-8,
        0.137130376519307,
        0.9905530070801944
      ],
      "translation": [
        55.73995968343752,
        -0.000002061620421045518,
        0.0000035200710966848886
      ],
      "scale": [
        0.9999999448208234,
        0.9999999455745414,
        1.0000000506281113
      ],
      "name": "Bone_2",
      "children": [
        12,
        14
      ]
    },
    {
      "rotation": [
        -0.566979688045379,
        0.4225287372279569,
        0.5669836564221614,
        -0.42253138281251823
      ],
      "translation": [
        0,
        -576.886962890625,
        36.17988967895508
      ],
      "scale": [
        1.0000004521193773,
        1.0000004521353774,
        1.0000000000245
      ],
      "name": "Bone_1",
      "children": [
        15
      ]
    },
    {
      "mesh": 0,
      "children": [
        10,
        16
      ],
      "skin": 0
    },
    {
      "extras": {
        "silentHillModel": {
          "name": "mkn.mdl",
          "characterId": 513
        }
      },
      "children": [
        17
      ]
    }
  ],
  "bufferViews": [
    {
      "buffer": 0,
      "byteOffset": 0,
      "byteLength": 20844,
      "target": 34962,
      "byteStride": 12
    },
    {
      "buffer": 0,
      "byteOffset": 20844,
      "byteLength": 20844,
      "target": 34962,
      "byteStride": 12
    },
    {
      "buffer": 0,
      "byteOffset": 41688,
      "byteLength": 13896,
      "target": 34962,
      "byteStride": 8
    },
    {
      "buffer": 0,
      "byteOffset": 55584,
      "byteLength": 13896,
      "target": 34962,
      "byteStride": 8
    },
    {
      "buffer": 0,
      "byteOffset": 69480,
      "byteLength": 27792,
      "target": 34962,
      "byteStride": 16
    },
    {
      "buffer": 0,
      "byteOffset": 97272,
      "byteLength": 10488,
      "target": 34963
    },
    {
      "buffer": 0,
      "byteOffset": 107760,
      "byteLength": 1632,
      "target": 34963
    },
    {
      "buffer": 0,
      "byteOffset": 109392,
      "byteLength": 5208,
      "target": 34963
    },
    {
      "buffer": 0,
      "byteOffset": 114600,
      "byteLength": 1088
    }
  ],
  "buffers": [
    {
      "byteLength": 115688,
      "uri": "data:application/octet-stream;base64,"
    }
  ],
  "accessors": [
    {
      "bufferView": 0,
      "componentType": 5126,
      "count": 1737,
      "max": [
        94.87129211425781,
        0.03772391006350517,
        104.29097747802734
      ],
      "min": [
        -94.8711929321289,
        -1078.1534423828125,
        -50.59762191772461
      ],
      "type": "VEC3"
    },
    {
      "bufferView": 1,
      "componentType": 5126,
      "count": 1737,
      "max": [
        0.999969482421875,
        0.9992692470550537,
        0.9949620962142944
      ],
      "min": [
        -1,
        -0.9851076006889343,
        -0.9997546076774597
      ],
      "type": "VEC3"
    },
    {
      "bufferView": 2,
      "componentType": 5126,
      "count": 1737,
      "max": [
        0.999267578125,
        0.998779296875
      ],
      "min": [
        0.00048828125,
        0.0009765625
      ],
      "type": "VEC2"
    },
    {
      "bufferView": 3,
      "componentType": 5123,
      "count": 1737,
      "max": [
        16,
        16,
        10,
        0
      ],
      "min": [
        0,
        0,
        0,
        0
      ],
      "type": "VEC4"
    },
    {
      "bufferView": 4,
      "componentType": 5126,
      "count": 1737,
      "max": [
        1,
        0.9802197813987732,
        0.7972642779350281,
        0
      ],
      "min": [
        0.019780220463871956,
        0,
        0,
        0
      ],
      "type": "VEC4"
    },
    {
      "bufferView": 5,
      "componentType": 5123,
      "count": 5244,
      "max": [
        1037
      ],
      "min": [
        0
      ],
      "type": "SCALAR"
    },
    {
      "bufferView": 6,
      "componentType": 5123,
      "count": 816,
      "max": [
        1211
      ],
      "min": [
        1038
      ],
      "type": "SCALAR"
    },
    {
      "bufferView": 7,
      "componentType": 5123,
      "count": 2604,
      "max": [
        1736
      ],
      "min": [
        1212
      ],
      "type": "SCALAR"
    },
    {
      "bufferView": 8,
      "componentType": 5126,
      "count": 17,
      "max": [
        0.10183723270893097,
        0.1576545089483261,
        -0.9869691729545593,
        0,
        0.993601381778717,
        0.981330394744873,
        0.16022595763206482,
        0,
        0.9938033819198608,
        0.9999400973320007,
        0.014835186302661896,
        0,
        575.7525634765625,
        26.341699600219727,
        69.65269470214844,
        1
      ],
      "min": [
        -0.10183572769165039,
        -0.1576521396636963,
        -1.000000238418579,
        0,
        -0.9999401569366455,
        -0.2858731746673584,
        -0.16022519767284393,
        0,
        -0.2858729064464569,
        -0.9946526885032654,
        -0.014833728782832623,
        0,
        -892.6365966796875,
        -199.58651733398438,
        -69.6524429321289,
        1
      ],
      "type": "MAT4"
    }
  ],
  "materials": [
    {
      "pbrMetallicRoughness": {
        "metallicFactor": 0,
        "roughnessFactor": 1,
        "baseColorTexture": {
          "index": 0,
          "texCoord": 0
        }
      },
      "alphaMode": "MASK",
      "alphaCutoff": 0.01,
      "doubleSided": true
    }
  ],
  "textures": [
    {
      "sampler": 0,
      "source": 0
    }
  ],
  "samplers": [
    {
      "magFilter": 9729,
      "minFilter": 9729,
      "wrapS": 33071,
      "wrapT": 33071
    }
  ],
  "images": [
    {
      "mimeType": "image/png",
      "uri": "data:image/png;base64,"
    }
  ],
  "meshes": [
    {
      "primitives": [
        {
          "mode": 4,
          "attributes": {
            "POSITION": 0,
            "NORMAL": 1,
            "TEXCOORD_0": 2,
            "JOINTS_0": 3,
            "WEIGHTS_0": 4
          },
          "indices": 5,
          "material": 0
        },
        {
          "mode": 4,
          "attributes": {
            "POSITION": 0,
            "NORMAL": 1,
            "TEXCOORD_0": 2,
            "JOINTS_0": 3,
            "WEIGHTS_0": 4
          },
          "indices": 6,
          "material": 0
        },
        {
          "mode": 4,
          "attributes": {
            "POSITION": 0,
            "NORMAL": 1,
            "TEXCOORD_0": 2,
            "JOINTS_0": 3,
            "WEIGHTS_0": 4
          },
          "indices": 7,
          "material": 0
        }
      ]
    }
  ],
  "skins": [
    {
      "inverseBindMatrices": 8,
      "joints": [
        10,
        16,
        15,
        4,
        9,
        12,
        3,
        14,
        8,
        11,
        2,
        13,
        7,
        1,
        6,
        0,
        5
      ],
      "skeleton": 10
    }
  ]
}