{
  "asset": {
    "version": "2.0",
    "generator": "THREE.GLTFExporter"
  },
  "scenes": [
    {
      "name": "AuxScene",
      "nodes": [
        31
      ]
    }
  ],
  "scene": 0,
  "nodes": [
    {
      "rotation": [
        6.852596445109912e-17,
        -9.543018472779502e-17,
        0.6800734981275269,
        0.7331439402631578
      ],
      "translation": [
        26.385897236838673,
        13.11437873389724,
        -0.000009999999747378752
      ],
      "scale": [
        1.0000000408300376,
        1.0000000408300376,
        1.0000000000000002
      ],
      "name": "Bone_14"
    },
    {
      "rotation": [
        2.3086518393342578e-17,
        -2.7429343822399054e-17,
        0.07681015467091365,
        0.997045736232511
      ],
      "translation": [
        51.670635779618465,
        -0.00001621062469325807,
        0.00000199999976757681
      ],
      "scale": [
        0.9999995703533223,
        0.9999995703533224,
        0.9999999999999999
      ],
      "name": "Bone_9",
      "children": [
        0
      ]
    },
    {
      "rotation": [
        0,
        0,
        0.10184980248627308,
        0.9947997877630993
      ],
      "translation": [
        60.245676250294764,
        -0.00002041279305509125,
        0.000003000000106112566
      ],
      "scale": [
        0.9999998953058381,
        0.9999998953058381,
        1
      ],
      "name": "Bone_7",
      "children": [
        1
      ]
    },
    {
      "rotation": [
        9.704943706480626e-8,
        5.207032041680605e-7,
        0.3287205243502539,
        0.9444272427617653
      ],
      "translation": [
        22.50991388402406,
        0.000010880786987854663,
        1.4264920622508726e-7
      ],
      "scale": [
        1.000000076385229,
        0.9999999257917164,
        1.000000176017645
      ],
      "name": "Bone_27"
    },
    {
      "rotation": [
        -0.21388468266048916,
        0.20594567585298726,
        -0.12676935365950245,
        0.9464508664120286
      ],
      "translation": [
        19.987299088803013,
        -9.261177813493969,
        -4.257545022236229
      ],
      "scale": [
        1.0000002454562784,
        0.9999995831516988,
        0.9999996280300433
      ],
      "name": "Bone_25",
      "children": [
        3
      ]
    },
    {
      "rotation": [
        6.902055438837334e-8,
        1.33334951194677e-8,
        -0.17873331784004556,
        0.9838975561987542
      ],
      "translation": [
        15.220113255140063,
        0.000012752592965625809,
        0.0000031877682538095087
      ],
      "scale": [
        0.9999996721230432,
        0.9999993889069864,
        0.9999999999879231
      ],
      "name": "Bone_29"
    },
    {
      "rotation": [
        -8.910720015653526e-8,
        1.1346361746004007e-7,
        -0.28234633960673167,
        0.9593125374509542
      ],
      "translation": [
        22.027494404363154,
        0.000005553799763191591,
        0.0000013840873140935628
      ],
      "scale": [
        1.0000005247209602,
        1.0000001102032732,
        1.000000000002166
      ],
      "name": "Bone_28",
      "children": [
        5
      ]
    },
    {
      "rotation": [
        0.5930427294431176,
        0.2609691000799546,
        -0.16367331371932947,
        0.7439130019989248
      ],
      "translation": [
        47.6248894883683,
        2.357402468580318,
        2.52810562942625
      ],
      "scale": [
        0.9999991818930354,
        1.0000004310618886,
        0.9999999227321146
      ],
      "name": "Bone_26",
      "children": [
        6
      ]
    },
    {
      "rotation": [
        0.08437463397437683,
        0.08638185026008244,
        -0.03237419541044206,
        0.9921547311699892
      ],
      "translation": [
        97.01502345957641,
        -0.35375753425616807,
        0.2536908980640078
      ],
      "scale": [
        0.9999996491880123,
        0.9999994837471988,
        0.9999999335718317
      ],
      "name": "Bone_23",
      "children": [
        4,
        7
      ]
    },
    {
      "rotation": [
        0.1297800511058182,
        -0.030213069248023684,
        0.020374943083040692,
        0.9908729332594524
      ],
      "translation": [
        4.852656839992903,
        -1.8571070122173694,
        -3.690869882103698
      ],
      "scale": [
        1.000000167301487,
        1.000000079851452,
        0.9999998397925078
      ],
      "name": "Bone_21",
      "children": [
        8
      ]
    },
    {
      "rotation": [
        -6.307268407782288e-8,
        6.769536742490474e-8,
        -0.06479009142072152,
        0.997898914747215
      ],
      "translation": [
        16.201048731677815,
        0.00001653944524093731,
        -0.00001661085104842641
      ],
      "scale": [
        1.0000002110156465,
        0.9999997934420425,
        1.0000001016754283
      ],
      "name": "Bone_19",
      "children": [
        9
      ]
    },
    {
      "rotation": [
        1.6066417194767203e-7,
        1.6838161080122844e-7,
        -0.08215775542049764,
        0.996619337171489
      ],
      "translation": [
        119.57514910250325,
        -0.000016851683101837267,
        -0.00006103404490431785
      ],
      "scale": [
        0.9999999813491306,
        1.0000001544814208,
        1.0000001689606135
      ],
      "name": "Bone_17",
      "children": [
        10
      ]
    },
    {
      "rotation": [
        0.5353294182450399,
        0.2340525951190982,
        0.40548652610792274,
        0.7030095295652448
      ],
      "translation": [
        46.87279527561829,
        2.0469102438098616,
        0.4122012872035654
      ],
      "scale": [
        1.0000004392812318,
        0.9999998219061834,
        1.000000050478521
      ],
      "name": "Bone_15",
      "children": [
        11
      ]
    },
    {
      "rotation": [
        0.39869182927446095,
        -0.5064125867731522,
        0.6158160825706532,
        0.4531684936050396
      ],
      "translation": [
        46.63796195298676,
        -6.02313220581988,
        25.078810460205204
      ],
      "scale": [
        0.9999998257940087,
        0.9999996416797448,
        0.9999999011007987
      ],
      "name": "Bone_10",
      "children": [
        12
      ]
    },
    {
      "rotation": [
        0.06298653845269349,
        -0.16560143650949846,
        -0.4952019457469184,
        0.8505197965226221
      ],
      "translation": [
        99.27180971342153,
        0.5644811368758482,
        0.25875507248463236
      ],
      "scale": [
        0.9999994926958288,
        0.9999999638153754,
        0.9999997284171276
      ],
      "name": "Bone_24"
    },
    {
      "rotation": [
        -0.12978026294737208,
        0.0302161357057571,
        0.020374793699422435,
        0.990872815412146
      ],
      "translation": [
        4.85270007397429,
        -1.8570838330808215,
        3.6908755351504965
      ],
      "scale": [
        1.000000465238595,
        1.0000001661787825,
        1.0000008378861984
      ],
      "name": "Bone_22",
      "children": [
        14
      ]
    },
    {
      "rotation": [
        -8.478317285791764e-8,
        -6.312473898079944e-8,
        -0.06479680097360734,
        0.997898479096723
      ],
      "translation": [
        16.20099906388583,
        -0.000003725054824599283,
        -0.00001790813513480316
      ],
      "scale": [
        1.000000204467065,
        1.0000001621685624,
        0.999999248137601
      ],
      "name": "Bone_20",
      "children": [
        15
      ]
    },
    {
      "rotation": [
        4.7045365246178264e-8,
        -2.6882034210894434e-7,
        -0.08216385575514222,
        0.996618834262796
      ],
      "translation": [
        119.57515764889672,
        -0.000012807765528588533,
        0.000037235968363802385
      ],
      "scale": [
        1.0000000909095095,
        1.000000912086733,
        1.0000001177574758
      ],
      "name": "Bone_18",
      "children": [
        16
      ]
    },
    {
      "rotation": [
        -0.5353305668684588,
        -0.23404996196665617,
        0.40549048882778704,
        0.7030071834340628
      ],
      "translation": [
        46.87281664835487,
        2.046967661294957,
        -0.41220413511661036
      ],
      "scale": [
        0.9999998335306364,
        0.9999990168841449,
        1.0000004156901499
      ],
      "name": "Bone_16",
      "children": [
        17
      ]
    },
    {
      "rotation": [
        -0.39869182953449417,
        0.5064125869971832,
        0.6158160823365831,
        0.4531684936156141
      ],
      "translation": [
        46.63796213912474,
        -6.023137924836017,
        -25.078814738159053
      ],
      "scale": [
        0.9999998283744528,
        0.9999996416797448,
        0.9999999037778378
      ],
      "name": "Bone_11",
      "children": [
        18
      ]
    },
    {
      "rotation": [
        2.151438496963841e-17,
        5.504577042489593e-17,
        0.0989226749045184,
        0.9950951232870829
      ],
      "translation": [
        49.28098080287373,
        -0.000006329726829790161,
        0.0000029999998787388904
      ],
      "scale": [
        1.0000006254750147,
        1.0000006254750147,
        1
      ],
      "name": "Bone_3",
      "children": [
        2,
        13,
        19
      ]
    },
    {
      "rotation": [
        -5.932646372794238e-17,
        -3.5240647908832194e-17,
        0.09212148834584533,
        0.9957477749836785
      ],
      "translation": [
        44.9401074326654,
        0.000013317374651933278,
        0.0000019999999949504854
      ],
      "scale": [
        0.9999992961393938,
        0.9999992961393936,
        1
      ],
      "name": "Bone_2",
      "children": [
        20
      ]
    },
    {
      "rotation": [
        -0.5923220980190244,
        0.3862052979936206,
        0.5923220980190244,
        -0.3862052979936206
      ],
      "translation": [
        0,
        -579.8291015625,
        8.604063034057617
      ],
      "scale": [
        1.0000003274830058,
        1.0000003274830058,
        1
      ],
      "name": "Bone_0",
      "children": [
        21
      ]
    },
    {
      "rotation": [
        -0.006617557304456133,
        0.04505065631353836,
        -0.5436029853683171,
        0.8381064543409793
      ],
      "translation": [
        240.89703389119052,
        -10.978972754485618,
        -1.980273713454281
      ],
      "scale": [
        1.0000001800551155,
        1.0000007120493097,
        0.999999419257064
      ],
      "name": "Bone_12"
    },
    {
      "rotation": [
        3.247798571088841e-8,
        7.557291397372335e-9,
        0.04666548930926411,
        0.9989105726277439
      ],
      "translation": [
        212.79359928525207,
        -0.00006527598842520632,
        -0.00006017501962674032
      ],
      "scale": [
        0.9999996978880054,
        1.0000005950889703,
        1.0000002341218508
      ],
      "name": "Bone_6",
      "children": [
        23
      ]
    },
    {
      "rotation": [
        -0.042981256425533014,
        -0.04127706551830192,
        -0.02237072931016601,
        0.9979721268410162
      ],
      "translation": [
        70.00054287591576,
        -0.31334622472139273,
        38.058692932128906
      ],
      "scale": [
        0.9999996808559156,
        0.9999992814836517,
        0.9999995705815821
      ],
      "name": "Bone_4",
      "children": [
        24
      ]
    },
    {
      "rotation": [
        0.006618078410417267,
        -0.04505011660852684,
        -0.5436029949065089,
        0.8381064746501299
      ],
      "translation": [
        240.89713618028583,
        -10.97896881767517,
        1.9801620910684505
      ],
      "scale": [
        0.9999998068709816,
        1.000000300765772,
        0.9999994814187584
      ],
      "name": "Bone_13"
    },
    {
      "rotation": [
        3.9051756700099293e-7,
        2.746116050870477e-8,
        0.04666429427563954,
        0.9989106284546072
      ],
      "translation": [
        212.79356823765187,
        -0.000022094896307223166,
        0.00007693998098545762
      ],
      "scale": [
        0.9999989802199574,
        0.9999998142369999,
        0.9999996726854199
      ],
      "name": "Bone_8",
      "children": [
        26
      ]
    },
    {
      "rotation": [
        0.042981641967318185,
        0.04127742615897072,
        -0.02237028482120086,
        0.9979721046009787
      ],
      "translation": [
        70.00054294523164,
        -0.3133452735693538,
        -38.05869674682617
      ],
      "scale": [
        0.9999997647146932,
        0.9999992320002221,
        0.9999996189379434
      ],
      "name": "Bone_5",
      "children": [
        27
      ]
    },
    {
      "rotation": [
        -0.5178520558420846,
        -0.4814864985231949,
        0.5178520558420846,
        0.4814864985231949
      ],
      "translation": [
        0,
        -579.8291015625,
        8.604063034057617
      ],
      "scale": [
        0.9999998915147407,
        0.9999998915147407,
        1
      ],
      "name": "Bone_1",
      "children": [
        25,
        28
      ]
    },
    {
      "mesh": 0,
      "children": [
        22,
        29
      ],
      "skin": 0
    },
    {
      "extras": {
        "silentHillModel": {
          "name": "nse.mdl",
          "characterId": 519
        }
      },
      "children": [
        30
      ]
    }
  ],
  "bufferViews": [
    {
      "buffer": 0,
      "byteOffset": 0,
      "byteLength": 38364,
      "target": 34962,
      "byteStride": 12
    },
    {
      "buffer": 0,
      "byteOffset": 38364,
      "byteLength": 38364,
      "target": 34962,
      "byteStride": 12
    },
    {
      "buffer": 0,
      "byteOffset": 76728,
      "byteLength": 25576,
      "target": 34962,
      "byteStride": 8
    },
    {
      "buffer": 0,
      "byteOffset": 102304,
      "byteLength": 25576,
      "target": 34962,
      "byteStride": 8
    },
    {
      "buffer": 0,
      "byteOffset": 127880,
      "byteLength": 51152,
      "target": 34962,
      "byteStride": 16
    },
    {
      "buffer": 0,
      "byteOffset": 179032,
      "byteLength": 1920,
      "target": 34963
    },
    {
      "buffer": 0,
      "byteOffset": 180952,
      "byteLength": 12,
      "target": 34963
    },
    {
      "buffer": 0,
      "byteOffset": 180964,
      "byteLength": 2112,
      "target": 34963
    },
    {
      "buffer": 0,
      "byteOffset": 183076,
      "byteLength": 2364,
      "target": 34963
    },
    {
      "buffer": 0,
      "byteOffset": 185440,
      "byteLength": 612,
      "target": 34963
    },
    {
      "buffer": 0,
      "byteOffset": 186052,
      "byteLength": 972,
      "target": 34963
    },
    {
      "buffer": 0,
      "byteOffset": 187024,
      "byteLength": 5628,
      "target": 34963
    },
    {
      "buffer": 0,
      "byteOffset": 192652,
      "byteLength": 5136,
      "target": 34963
    },
    {
      "buffer": 0,
      "byteOffset": 197788,
      "byteLength": 5604,
      "target": 34963
    },
    {
      "buffer": 0,
      "byteOffset": 203392,
      "byteLength": 72,
      "target": 34963
    },
    {
      "buffer": 0,
      "byteOffset": 203464,
      "byteLength": 6144,
      "target": 34963
    },
    {
      "buffer": 0,
      "byteOffset": 209608,
      "byteLength": 1920
    }
  ],
  "buffers": [
    {
      "byteLength": 211528,
      "uri": "data:application/octet-stream;base64,"
    }
  ],
  "accessors": [
    {
      "bufferView": 0,
      "componentType": 5126,
      "count": 3197,
      "max": [
        182.1776123046875,
        0.4699230194091797,
        394.0860290527344
      ],
      "min": [
        -178.1302947998047,
        -870.6604614257812,
        -103.68272399902344
      ],
      "type": "VEC3"
    },
    {
      "bufferView": 1,
      "componentType": 5126,
      "count": 3197,
      "max": [
        0.9998444318771362,
        0.9997888207435608,
        0.9998161792755127
      ],
      "min": [
        -0.9998444318771362,
        -0.999728262424469,
        -0.9999554753303528
      ],
      "type": "VEC3"
    },
    {
      "bufferView": 2,
      "componentType": 5126,
      "count": 3197,
      "max": [
        0.999267578125,
        0.9990234375
      ],
      "min": [
        0.00048828125,
        0.0009765625
      ],
      "type": "VEC2"
    },
    {
      "bufferView": 3,
      "componentType": 5123,
      "count": 3197,
      "max": [
        29,
        28,
        20,
        0
      ],
      "min": [
        0,
        0,
        0,
        0
      ],
      "type": "VEC4"
    },
    {
      "bufferView": 4,
      "componentType": 5126,
      "count": 3197,
      "max": [
        1,
        0.9802197813987732,
        0.4000000059604645,
        0
      ],
      "min": [
        0.019780220463871956,
        0,
        0,
        0
      ],
      "type": "VEC4"
    },
    {
      "bufferView": 5,
      "componentType": 5123,
      "count": 960,
      "max": [
        252
      ],
      "min": [
        0
      ],
      "type": "SCALAR"
    },
    {
      "bufferView": 6,
      "componentType": 5123,
      "count": 6,
      "max": [
        256
      ],
      "min": [
        253
      ],
      "type": "SCALAR"
    },
    {
      "bufferView": 7,
      "componentType": 5123,
      "count": 1056,
      "max": [
        484
      ],
      "min": [
        257
      ],
      "type": "SCALAR"
    },
    {
      "bufferView": 8,
      "componentType": 5123,
      "count": 1182,
      "max": [
        724
      ],
      "min": [
        485
      ],
      "type": "SCALAR"
    },
    {
      "bufferView": 9,
      "componentType": 5123,
      "count": 306,
      "max": [
        805
      ],
      "min": [
        725
      ],
      "type": "SCALAR"
    },
    {
      "bufferView": 10,
      "componentType": 5123,
      "count": 486,
      "max": [
        905
      ],
      "min": [
        806
      ],
      "type": "SCALAR"
    },
    {
      "bufferView": 11,
      "componentType": 5123,
      "count": 2814,
      "max": [
        1471
      ],
      "min": [
        906
      ],
      "type": "SCALAR"
    },
    {
      "bufferView": 12,
      "componentType": 5123,
      "count": 2568,
      "max": [
        1958
      ],
      "min": [
        1472
      ],
      "type": "SCALAR"
    },
    {
      "bufferView": 13,
      "componentType": 5123,
      "count": 2802,
      "max": [
        2489
      ],
      "min": [
        1959
      ],
      "type": "SCALAR"
    },
    {
      "bufferView": 14,
      "componentType": 5123,
      "count": 36,
      "max": [
        2513
      ],
      "min": [
        2490
      ],
      "type": "SCALAR"
    },
    {
      "bufferView": 15,
      "componentType": 5123,
      "count": 3072,
      "max": [
        3196
      ],
      "min": [
        2514
      ],
      "type": "SCALAR"
    },
    {
      "bufferView": 16,
      "componentType": 5126,
      "count": 30,
      "max": [
        0.950022280216217,
        0.2623649835586548,
        0.1256599873304367,
        0,
        0.9973552227020264,
        0.9688584804534912,
        0.4491414725780487,
        0,
        0.9688584804534912,
        0.9994705319404602,
        0.9920738935470581,
        0,
        634.9920043945312,
        777.6381225585938,
        354.737060546875,
        1
      ],
      "min": [
        -0.950022280216217,
        -0.9456407427787781,
        -1,
        0,
        -0.9994705319404602,
        -0.40338173508644104,
        -0.4491336941719055,
        0,
        -0.40338173508644104,
        -0.9973552227020264,
        -0.9855846166610718,
        0,
        -734.6923217773438,
        -241.7654571533203,
        -354.7333984375,
        1
      ],
      "type": "MAT4"
    }
  ],
  "materials": [
    {
      "pbrMetallicRoughness": {
        "metallicFactor": 0,
        "roughnessFactor": 1,
        "baseColorTexture": {
          "index": 0,
          "texCoord": 0
        }
      },
      "alphaMode": "MASK",
      "alphaCutoff": 0.01,
      "doubleSided": true
    },
    {
      "pbrMetallicRoughness": {
        "metallicFactor": 0,
        "roughnessFactor": 1,
        "baseColorTexture": {
          "index": 1,
          "texCoord": 0
        }
      },
      "alphaMode": "MASK",
      "alphaCutoff": 0.01,
      "doubleSided": true
    }
  ],
  "textures": [
    {
      "sampler": 0,
      "source": 0
    },
    {
      "sampler": 1,
      "source": 1
    }
  ],
  "samplers": [
    {
      "magFilter": 9729,
      "minFilter": 9729,
      "wrapS": 33071,
      "wrapT": 33071
    },
    {
      "magFilter": 9729,
      "minFilter": 9729,
      "wrapS": 33071,
      "wrapT": 33071
    }
  ],
  "images": [
    {
      "mimeType": "image/png",
      "uri": "data:image/png;base64,"
    },
    {
      "mimeType": "image/png",
      "uri": "data:image/png;base64,"
    }
  ],
  "meshes": [
    {
      "primitives": [
        {
          "mode": 4,
          "attributes": {
            "POSITION": 0,
            "NORMAL": 1,
            "TEXCOORD_0": 2,
            "JOINTS_0": 3,
            "WEIGHTS_0": 4
          },
          "indices": 5,
          "material": 0
        },
        {
          "mode": 4,
          "attributes": {
            "POSITION": 0,
            "NORMAL": 1,
            "TEXCOORD_0": 2,
            "JOINTS_0": 3,
            "WEIGHTS_0": 4
          },
          "indices": 6,
          "material": 0
        },
        {
          "mode": 4,
          "attributes": {
            "POSITION": 0,
            "NORMAL": 1,
            "TEXCOORD_0": 2,
            "JOINTS_0": 3,
            "WEIGHTS_0": 4
          },
          "indices": 7,
          "material": 0
        },
        {
          "mode": 4,
          "attributes": {
            "POSITION": 0,
            "NORMAL": 1,
            "TEXCOORD_0": 2,
            "JOINTS_0": 3,
            "WEIGHTS_0": 4
          },
          "indices": 8,
          "material": 0
        },
        {
          "mode": 4,
          "attributes": {
            "POSITION": 0,
            "NORMAL": 1,
            "TEXCOORD_0": 2,
            "JOINTS_0": 3,
            "WEIGHTS_0": 4
          },
          "indices": 9,
          "material": 0
        },
        {
          "mode": 4,
          "attributes": {
            "POSITION": 0,
            "NORMAL": 1,
            "TEXCOORD_0": 2,
            "JOINTS_0": 3,
            "WEIGHTS_0": 4
          },
          "indices": 10,
          "material": 0
        },
        {
          "mode": 4,
          "attributes": {
            "POSITION": 0,
            "NORMAL": 1,
            "TEXCOORD_0": 2,
            "JOINTS_0": 3,
            "WEIGHTS_0": 4
          },
          "indices": 11,
          "material": 0
        },
        {
          "mode": 4,
          "attributes": {
            "POSITION": 0,
            "NORMAL": 1,
            "TEXCOORD_0": 2,
            "JOINTS_0": 3,
            "WEIGHTS_0": 4
          },
          "indices": 12,
          "material": 1
        },
        {
          "mode": 4,
          "attributes": {
            "POSITION": 0,
            "NORMAL": 1,
            "TEXCOORD_0": 2,
            "JOINTS_0": 3,
            "WEIGHTS_0": 4
          },
          "indices": 13,
          "material": 1
        },
        {
          "mode": 4,
          "attributes": {
            "POSITION": 0,
            "NORMAL": 1,
            "TEXCOORD_0": 2,
            "JOINTS_0": 3,
            "WEIGHTS_0": 4
          },
          "indices": 14,
          "material": 1
        },
        {
          "mode": 4,
          "attributes": {
            "POSITION": 0,
            "NORMAL": 1,
            "TEXCOORD_0": 2,
            "JOINTS_0": 3,
            "WEIGHTS_0": 4
          },
          "indices": 15,
          "material": 1
        }
      ]
    }
  ],
  "skins": [
    {
      "inverseBindMatrices": 16,
      "joints": [
        22,
        29,
        21,
        20,
        25,
        28,
        24,
        2,
        27,
        1,
        13,
        19,
        23,
        26,
        0,
        12,
        18,
        11,
        17,
        10,
        16,
        9,
        15,
        8,
        14,
        4,
        7,
        3,
        6,
        5
      ],
      "skeleton": 22
    }
  ]
}