{
  "asset": {
    "version": "2.0",
    "generator": "THREE.GLTFExporter"
  },
  "scenes": [
    {
      "name": "AuxScene",
      "nodes": [
        6
      ]
    }
  ],
  "scene": 0,
  "nodes": [
    {
      "rotation": [
        0,
        0,
        1,
        0
      ],
      "translation": [
        92.4989013671875,
        600,
        82.000732421875
      ],
      "name": "Bone_1"
    },
    {
      "rotation": [
        0.04552862758110512,
        -0.10742180084754606,
        0.3875623132193145,
        0.9144305081011156
      ],
      "translation": [
        -2.502440929412842,
        842.4999389648438,
        0
      ],
      "scale": [
        0.999999921088251,
        0.9999997389866845,
        0.9999995937845573
      ],
      "name": "Bone_2"
    },
    {
      "rotation": [
        0,
        0,
        0.9769142451016438,
        -0.21363182749179815
      ],
      "translation": [
        0,
        842.4999389648438,
        0
      ],
      "scale": [
        1.0000001234113323,
        1.0000001234113323,
        1
      ],
      "name": "Bone_3"
    },
    {
      "rotation": [
        0,
        0,
        1,
        0
      ],
      "name": "Bone_0",
      "children": [
        0,
        1,
        2
      ]
    },
    {
      "mesh": 0,
      "children": [
        3
      ],
      "skin": 0
    },
    {
      "mesh": 1,
      "skin": 1
    },
    {
      "extras": {
        "silentHillModel": {
          "name": "b_clo.mdl",
          "characterId": 1058
        }
      },
      "children": [
        4,
        5
      ]
    }
  ],
  "bufferViews": [
    {
      "buffer": 0,
      "byteOffset": 0,
      "byteLength": 22596,
      "target": 34962,
      "byteStride": 12
    },
    {
      "buffer": 0,
      "byteOffset": 22596,
      "byteLength": 22596,
      "target": 34962,
      "byteStride": 12
    },
    {
      "buffer": 0,
      "byteOffset": 45192,
      "byteLength": 15064,
      "target": 34962,
      "byteStride": 8
    },
    {
      "buffer": 0,
      "byteOffset": 60256,
      "byteLength": 15064,
      "target": 34962,
      "byteStride": 8
    },
    {
      "buffer": 0,
      "byteOffset": 75320,
      "byteLength": 30128,
      "target": 34962,
      "byteStride": 16
    },
    {
      "buffer": 0,
      "byteOffset": 105448,
      "byteLength": 12,
      "target": 34963
    },
    {
      "buffer": 0,
      "byteOffset": 105460,
      "byteLength": 12,
      "target": 34963
    },
    {
      "buffer": 0,
      "byteOffset": 105472,
      "byteLength": 780,
      "target": 34963
    },
    {
      "buffer": 0,
      "byteOffset": 106252,
      "byteLength": 9812,
      "target": 34963
    },
    {
      "buffer": 0,
      "byteOffset": 116064,
      "byteLength": 24,
      "target": 34963
    },
    {
      "buffer": 0,
      "byteOffset": 116088,
      "byteLength": 1560,
      "target": 34962,
      "byteStride": 12
    },
    {
      "buffer": 0,
      "byteOffset": 117648,
      "byteLength": 1560,
      "target": 34962,
      "byteStride": 12
    },
    {
      "buffer": 0,
      "byteOffset": 119208,
      "byteLength": 1040,
      "target": 34962,
      "byteStride": 8
    },
    {
      "buffer": 0,
      "byteOffset": 120248,
      "byteLength": 1040,
      "target": 34962,
      "byteStride": 8
    },
    {
      "buffer": 0,
      "byteOffset": 121288,
      "byteLength": 2080,
      "target": 34962,
      "byteStride": 16
    },
    {
      "buffer": 0,
      "byteOffset": 123368,
      "byteLength": 12,
      "target": 34963
    },
    {
      "buffer": 0,
      "byteOffset": 123380,
      "byteLength": 8,
      "target": 34963
    },
    {
      "buffer": 0,
      "byteOffset": 123388,
      "byteLength": 464,
      "target": 34963
    },
    {
      "buffer": 0,
      "byteOffset": 123852,
      "byteLength": 164,
      "target": 34963
    },
    {
      "buffer": 0,
      "byteOffset": 124016,
      "byteLength": 256
    },
    {
      "buffer": 0,
      "byteOffset": 124272,
      "byteLength": 256
    }
  ],
  "buffers": [
    {
      "byteLength": 124528,
      "uri": "data:application/octet-stream;base64,"
    }
  ],
  "accessors": [
    {
      "bufferView": 0,
      "componentType": 5126,
      "count": 1883,
      "max": [
        170,
        0,
        115
      ],
      "min": [
        -165,
        -1050,
        -115
      ],
      "type": "VEC3"
    },
    {
      "bufferView": 1,
      "componentType": 5126,
      "count": 1883,
      "max": [
        1,
        1,
        1
      ],
      "min": [
        -1,
        -1,
        -0.999969482421875
      ],
      "type": "VEC3"
    },
    {
      "bufferView": 2,
      "componentType": 5126,
      "count": 1883,
      "max": [
        0.998779296875,
        0.998779296875
      ],
      "min": [
        0.0009765625,
        0.0009765625
      ],
      "type": "VEC2"
    },
    {
      "bufferView": 3,
      "componentType": 5123,
      "count": 1883,
      "max": [
        3,
        0,
        0,
        0
      ],
      "min": [
        0,
        0,
        0,
        0
      ],
      "type": "VEC4"
    },
    {
      "bufferView": 4,
      "componentType": 5126,
      "count": 1883,
      "max": [
        1,
        0,
        0,
        0
      ],
      "min": [
        1,
        0,
        0,
        0
      ],
      "type": "VEC4"
    },
    {
      "bufferView": 5,
      "componentType": 5123,
      "count": 6,
      "max": [
        3
      ],
      "min": [
        0
      ],
      "type": "SCALAR"
    },
    {
      "bufferView": 6,
      "componentType": 5123,
      "count": 6,
      "max": [
        7
      ],
      "min": [
        4
      ],
      "type": "SCALAR"
    },
    {
      "bufferView": 7,
      "componentType": 5123,
      "count": 390,
      "max": [
        249
      ],
      "min": [
        8
      ],
      "type": "SCALAR"
    },
    {
      "bufferView": 8,
      "componentType": 5123,
      "count": 4905,
      "max": [
        1874
      ],
      "min": [
        250
      ],
      "type": "SCALAR"
    },
    {
      "bufferView": 9,
      "componentType": 5123,
      "count": 12,
      "max": [
        1882
      ],
      "min": [
        1875
      ],
      "type": "SCALAR"
    },
    {
      "bufferView": 10,
      "componentType": 5126,
      "count": 130,
      "max": [
        207.9375,
        34.875,
        153
      ],
      "min": [
        -202.8125,
        -1107,
        -172.375
      ],
      "type": "VEC3"
    },
    {
      "bufferView": 11,
      "componentType": 5126,
      "count": 130,
      "max": [
        1,
        0.074462890625,
        1
      ],
      "min": [
        -1,
        -1,
        0
      ],
      "type": "VEC3"
    },
    {
      "bufferView": 12,
      "componentType": 5126,
      "count": 130,
      "max": [
        0.998046875,
        0.998046875
      ],
      "min": [
        0.001708984375,
        0.001708984375
      ],
      "type": "VEC2"
    },
    {
      "bufferView": 13,
      "componentType": 5123,
      "count": 130,
      "max": [
        1,
        0,
        0,
        0
      ],
      "min": [
        0,
        0,
        0,
        0
      ],
      "type": "VEC4"
    },
    {
      "bufferView": 14,
      "componentType": 5126,
      "count": 130,
      "max": [
        1,
        0,
        0,
        0
      ],
      "min": [
        1,
        0,
        0,
        0
      ],
      "type": "VEC4"
    },
    {
      "bufferView": 15,
      "componentType": 5123,
      "count": 6,
      "max": [
        3
      ],
      "min": [
        0
      ],
      "type": "SCALAR"
    },
    {
      "bufferView": 16,
      "componentType": 5123,
      "count": 3,
      "max": [
        6
      ],
      "min": [
        4
      ],
      "type": "SCALAR"
    },
    {
      "bufferView": 17,
      "componentType": 5123,
      "count": 231,
      "max": [
        103
      ],
      "min": [
        7
      ],
      "type": "SCALAR"
    },
    {
      "bufferView": 18,
      "componentType": 5123,
      "count": 81,
      "max": [
        129
      ],
      "min": [
        104
      ],
      "type": "SCALAR"
    },
    {
      "bufferView": 19,
      "componentType": 5126,
      "count": 4,
      "max": [
        1,
        0.7185793519020081,
        0.16116924583911896,
        0,
        0.41739991307258606,
        1,
        0.16653087735176086,
        0,
        0.23174992203712463,
        2.4885090965653944e-7,
        1,
        0,
        351.6593933105469,
        765.598876953125,
        139.89894104003906,
        1
      ],
      "min": [
        -1,
        -0.41739991307258606,
        0,
        0,
        -0.6990161538124084,
        -1,
        0,
        0,
        0,
        0,
        0.9727758169174194,
        0,
        -587.2280883789062,
        -587.7108764648438,
        -82.000732421875,
        1
      ],
      "type": "MAT4"
    },
    {
      "bufferView": 20,
      "componentType": 5126,
      "count": 4,
      "max": [
        1,
        0.7185793519020081,
        0.16116924583911896,
        0,
        0.41739991307258606,
        1,
        0.16653087735176086,
        0,
        0.23174992203712463,
        2.4885090965653944e-7,
        1,
        0,
        351.6593933105469,
        765.598876953125,
        139.89894104003906,
        1
      ],
      "min": [
        -1,
        -0.41739991307258606,
        0,
        0,
        -0.6990161538124084,
        -1,
        0,
        0,
        0,
        0,
        0.9727758169174194,
        0,
        -587.2280883789062,
        -587.7108764648438,
        -82.000732421875,
        1
      ],
      "type": "MAT4"
    }
  ],
  "materials": [
    {
      "pbrMetallicRoughness": {
        "metallicFactor": 0,
        "roughnessFactor": 1,
        "baseColorTexture": {
          "index": 0,
          "texCoord": 0
        }
      },
      "alphaMode": "MASK",
      "alphaCutoff": 0.01,
      "doubleSided": true
    },
    {
      "pbrMetallicRoughness": {
        "metallicFactor": 0,
        "roughnessFactor": 1,
        "baseColorTexture": {
          "index": 1,
          "texCoord": 0
        }
      },
      "alphaMode": "BLEND",
      "doubleSided": true
    }
  ],
  "textures": [
    {
      "sampler": 0,
      "source": 0
    },
    {
      "sampler": 1,
      "source": 1
    }
  ],
  "samplers": [
    {
      "magFilter": 9729,
      "minFilter": 9729,
      "wrapS": 33071,
      "wrapT": 33071
    },
    {
      "magFilter": 9729,
      "minFilter": 9729,
      "wrapS": 33071,
      "wrapT": 33071
    }
  ],
  "images": [
    {
      "mimeType": "image/png",
      "uri": "data:image/png;base64,"
    },
    {
      "mimeType": "image/png",
      "uri": "data:image/png;base64,"
    }
  ],
  "meshes": [
    {
      "primitives": [
        {
          "mode": 4,
          "attributes": {
            "POSITION": 0,
            "NORMAL": 1,
            "TEXCOORD_0": 2,
            "JOINTS_0": 3,
            "WEIGHTS_0": 4
          },
          "indices": 5,
          "material": 0
        },
        {
          "mode": 4,
          "attributes": {
            "POSITION": 0,
            "NORMAL": 1,
            "TEXCOORD_0": 2,
            "JOINTS_0": 3,
            "WEIGHTS_0": 4
          },
          "indices": 6,
          "material": 0
        },
        {
          "mode": 4,
          "attributes": {
            "POSITION": 0,
            "NORMAL": 1,
            "TEXCOORD_0": 2,
            "JOINTS_0": 3,
            "WEIGHTS_0": 4
          },
          "indices": 7,
          "material": 0
        },
        {
          "mode": 4,
          "attributes": {
            "POSITION": 0,
            "NORMAL": 1,
            "TEXCOORD_0": 2,
            "JOINTS_0": 3,
            "WEIGHTS_0": 4
          },
          "indices": 8,
          "material": 0
        },
        {
          "mode": 4,
          "attributes": {
            "POSITION": 0,
            "NORMAL": 1,
            "TEXCOORD_0": 2,
            "JOINTS_0": 3,
            "WEIGHTS_0": 4
          },
          "indices": 9,
          "material": 0
        }
      ]
    },
    {
      "primitives": [
        {
          "mode": 4,
          "attributes": {
            "POSITION": 10,
            "NORMAL": 11,
            "TEXCOORD_0": 12,
            "JOINTS_0": 13,
            "WEIGHTS_0": 14
          },
          "indices": 15,
          "material": 1
        },
        {
          "mode": 4,
          "attributes": {
            "POSITION": 10,
            "NORMAL": 11,
            "TEXCOORD_0": 12,
            "JOINTS_0": 13,
            "WEIGHTS_0": 14
          },
          "indices": 16,
          "material": 1
        },
        {
          "mode": 4,
          "attributes": {
            "POSITION": 10,
            "NORMAL": 11,
            "TEXCOORD_0": 12,
            "JOINTS_0": 13,
            "WEIGHTS_0": 14
          },
          "indices": 17,
          "material": 1
        },
        {
          "mode": 4,
          "attributes": {
            "POSITION": 10,
            "NORMAL": 11,
            "TEXCOORD_0": 12,
            "JOINTS_0": 13,
            "WEIGHTS_0": 14
          },
          "indices": 18,
          "material": 1
        }
      ]
    }
  ],
  "skins": [
    {
      "inverseBindMatrices": 19,
      "joints": [
        3,
        0,
        1,
        2
      ],
      "skeleton": 3
    },
    {
      "inverseBindMatrices": 20,
      "joints": [
        3,
        0,
        1,
        2
      ],
      "skeleton": 3
    }
  ]
}