{
  "asset": {
    "version": "2.0",
    "generator": "THREE.GLTFExporter"
  },
  "scenes": [
    {
      "name": "AuxScene",
      "nodes": [
        6
      ]
    }
  ],
  "scene": 0,
  "nodes": [
    {
      "translation": [
        1077.3013610839844,
        0.072021484375,
        0.1383514404296875
      ],
      "name": "Bone_3"
    },
    {
      "rotation": [
        0.7071067811865475,
        0.7071067811865476,
        0,
        0
      ],
      "translation": [
        288.1907653808594,
        121.87490844726562,
        248.69000244140625
      ],
      "name": "Bone_1",
      "children": [
        0
      ]
    },
    {
      "rotation": [
        0,
        -0.000003000000106072066,
        0,
        0.9999999999954998
      ],
      "translation": [
        1077.3013610839844,
        0.072052001953125,
        -0.13623046875
      ],
      "scale": [
        1.000000000018,
        1,
        1.0000000000180003
      ],
      "name": "Bone_4"
    },
    {
      "rotation": [
        0,
        0,
        -0.7071067811865475,
        0.7071067811865476
      ],
      "translation": [
        288.1907653808594,
        -121.87490844726562,
        248.69000244140625
      ],
      "name": "Bone_2",
      "children": [
        2
      ]
    },
    {
      "rotation": [
        -0.7071067811865475,
        0.7071067811865476,
        0,
        0
      ],
      "name": "Bone_0",
      "children": [
        1,
        3
      ]
    },
    {
      "mesh": 0,
      "children": [
        4
      ],
      "skin": 0
    },
    {
      "extras": {
        "silentHillModel": {
          "name": "boat.mdl",
          "characterId": 267
        }
      },
      "children": [
        5
      ]
    }
  ],
  "bufferViews": [
    {
      "buffer": 0,
      "byteOffset": 0,
      "byteLength": 64692,
      "target": 34962,
      "byteStride": 12
    },
    {
      "buffer": 0,
      "byteOffset": 64692,
      "byteLength": 64692,
      "target": 34962,
      "byteStride": 12
    },
    {
      "buffer": 0,
      "byteOffset": 129384,
      "byteLength": 43128,
      "target": 34962,
      "byteStride": 8
    },
    {
      "buffer": 0,
      "byteOffset": 172512,
      "byteLength": 43128,
      "target": 34962,
      "byteStride": 8
    },
    {
      "buffer": 0,
      "byteOffset": 215640,
      "byteLength": 86256,
      "target": 34962,
      "byteStride": 16
    },
    {
      "buffer": 0,
      "byteOffset": 301896,
      "byteLength": 6708,
      "target": 34963
    },
    {
      "buffer": 0,
      "byteOffset": 308604,
      "byteLength": 6120,
      "target": 34963
    },
    {
      "buffer": 0,
      "byteOffset": 314724,
      "byteLength": 2376,
      "target": 34963
    },
    {
      "buffer": 0,
      "byteOffset": 317100,
      "byteLength": 248,
      "target": 34963
    },
    {
      "buffer": 0,
      "byteOffset": 317348,
      "byteLength": 1920,
      "target": 34963
    },
    {
      "buffer": 0,
      "byteOffset": 319268,
      "byteLength": 192,
      "target": 34963
    },
    {
      "buffer": 0,
      "byteOffset": 319460,
      "byteLength": 2576,
      "target": 34963
    },
    {
      "buffer": 0,
      "byteOffset": 322036,
      "byteLength": 3168,
      "target": 34963
    },
    {
      "buffer": 0,
      "byteOffset": 325204,
      "byteLength": 1344,
      "target": 34963
    },
    {
      "buffer": 0,
      "byteOffset": 326548,
      "byteLength": 320
    }
  ],
  "buffers": [
    {
      "byteLength": 326868,
      "uri": "data:application/octet-stream;base64,"
    }
  ],
  "accessors": [
    {
      "bufferView": 0,
      "componentType": 5126,
      "count": 5391,
      "max": [
        1255.30126953125,
        22.25,
        1716.3125
      ],
      "min": [
        -1255.30126953125,
        -358.125,
        -1525.5625
      ],
      "type": "VEC3"
    },
    {
      "bufferView": 1,
      "componentType": 5126,
      "count": 5391,
      "max": [
        1,
        0.999969482421875,
        1
      ],
      "min": [
        -1,
        -1,
        -1
      ],
      "type": "VEC3"
    },
    {
      "bufferView": 2,
      "componentType": 5126,
      "count": 5391,
      "max": [
        0.999267578125,
        0.998779296875
      ],
      "min": [
        0.0009765625,
        0.0009765625
      ],
      "type": "VEC2"
    },
    {
      "bufferView": 3,
      "componentType": 5123,
      "count": 5391,
      "max": [
        4,
        0,
        0,
        0
      ],
      "min": [
        0,
        0,
        0,
        0
      ],
      "type": "VEC4"
    },
    {
      "bufferView": 4,
      "componentType": 5126,
      "count": 5391,
      "max": [
        1,
        0,
        0,
        0
      ],
      "min": [
        1,
        0,
        0,
        0
      ],
      "type": "VEC4"
    },
    {
      "bufferView": 5,
      "componentType": 5123,
      "count": 3354,
      "max": [
        1502
      ],
      "min": [
        0
      ],
      "type": "SCALAR"
    },
    {
      "bufferView": 6,
      "componentType": 5123,
      "count": 3060,
      "max": [
        3354
      ],
      "min": [
        1503
      ],
      "type": "SCALAR"
    },
    {
      "bufferView": 7,
      "componentType": 5123,
      "count": 1188,
      "max": [
        3792
      ],
      "min": [
        3355
      ],
      "type": "SCALAR"
    },
    {
      "bufferView": 8,
      "componentType": 5123,
      "count": 123,
      "max": [
        3829
      ],
      "min": [
        3793
      ],
      "type": "SCALAR"
    },
    {
      "bufferView": 9,
      "componentType": 5123,
      "count": 960,
      "max": [
        4147
      ],
      "min": [
        3830
      ],
      "type": "SCALAR"
    },
    {
      "bufferView": 10,
      "componentType": 5123,
      "count": 96,
      "max": [
        4188
      ],
      "min": [
        4148
      ],
      "type": "SCALAR"
    },
    {
      "bufferView": 11,
      "componentType": 5123,
      "count": 1287,
      "max": [
        4602
      ],
      "min": [
        4189
      ],
      "type": "SCALAR"
    },
    {
      "bufferView": 12,
      "componentType": 5123,
      "count": 1584,
      "max": [
        5069
      ],
      "min": [
        4603
      ],
      "type": "SCALAR"
    },
    {
      "bufferView": 13,
      "componentType": 5123,
      "count": 672,
      "max": [
        5390
      ],
      "min": [
        5070
      ],
      "type": "SCALAR"
    },
    {
      "bufferView": 14,
      "componentType": 5126,
      "count": 5,
      "max": [
        1,
        -4.440892098500626e-16,
        0,
        0,
        4.440892098500626e-16,
        2.220446049250313e-16,
        2.6645353533472667e-21,
        0,
        0,
        0,
        1,
        0,
        0,
        0,
        248.69000244140625,
        1
      ],
      "min": [
        -1,
        -1,
        -0.000006000000212225132,
        0,
        -1,
        -1,
        0,
        0,
        -0.000006000000212225132,
        0,
        -1,
        0,
        -1199.177734375,
        -288.2628173828125,
        -248.69000244140625,
        1
      ],
      "type": "MAT4"
    }
  ],
  "materials": [
    {
      "pbrMetallicRoughness": {
        "metallicFactor": 0,
        "roughnessFactor": 1,
        "baseColorTexture": {
          "index": 0,
          "texCoord": 0
        }
      },
      "alphaMode": "MASK",
      "alphaCutoff": 0.01,
      "doubleSided": true
    },
    {
      "pbrMetallicRoughness": {
        "metallicFactor": 0,
        "roughnessFactor": 1,
        "baseColorTexture": {
          "index": 1,
          "texCoord": 0
        }
      },
      "alphaMode": "MASK",
      "alphaCutoff": 0.01,
      "doubleSided": true
    }
  ],
  "textures": [
    {
      "sampler": 0,
      "source": 0
    },
    {
      "sampler": 1,
      "source": 1
    }
  ],
  "samplers": [
    {
      "magFilter": 9729,
      "minFilter": 9729,
      "wrapS": 33071,
      "wrapT": 33071
    },
    {
      "magFilter": 9729,
      "minFilter": 9729,
      "wrapS": 33071,
      "wrapT": 33071
    }
  ],
  "images": [
    {
      "mimeType": "image/png",
      "uri": "data:image/png;base64,"
    },
    {
      "mimeType": "image/png",
      "uri": "data:image/png;base64,"
    }
  ],
  "meshes": [
    {
      "primitives": [
        {
          "mode": 4,
          "attributes": {
            "POSITION": 0,
            "NORMAL": 1,
            "TEXCOORD_0": 2,
            "JOINTS_0": 3,
            "WEIGHTS_0": 4
          },
          "indices": 5,
          "material": 0
        },
        {
          "mode": 4,
          "attributes": {
            "POSITION": 0,
            "NORMAL": 1,
            "TEXCOORD_0": 2,
            "JOINTS_0": 3,
            "WEIGHTS_0": 4
          },
          "indices": 6,
          "material": 0
        },
        {
          "mode": 4,
          "attributes": {
            "POSITION": 0,
            "NORMAL": 1,
            "TEXCOORD_0": 2,
            "JOINTS_0": 3,
            "WEIGHTS_0": 4
          },
          "indices": 7,
          "material": 1
        },
        {
          "mode": 4,
          "attributes": {
            "POSITION": 0,
            "NORMAL": 1,
            "TEXCOORD_0": 2,
            "JOINTS_0": 3,
            "WEIGHTS_0": 4
          },
          "indices": 8,
          "material": 1
        },
        {
          "mode": 4,
          "attributes": {
            "POSITION": 0,
            "NORMAL": 1,
            "TEXCOORD_0": 2,
            "JOINTS_0": 3,
            "WEIGHTS_0": 4
          },
          "indices": 9,
          "material": 1
        },
        {
          "mode": 4,
          "attributes": {
            "POSITION": 0,
            "NORMAL": 1,
            "TEXCOORD_0": 2,
            "JOINTS_0": 3,
            "WEIGHTS_0": 4
          },
          "indices": 10,
          "material": 1
        },
        {
          "mode": 4,
          "attributes": {
            "POSITION": 0,
            "NORMAL": 1,
            "TEXCOORD_0": 2,
            "JOINTS_0": 3,
            "WEIGHTS_0": 4
          },
          "indices": 11,
          "material": 1
        },
        {
          "mode": 4,
          "attributes": {
            "POSITION": 0,
            "NORMAL": 1,
            "TEXCOORD_0": 2,
            "JOINTS_0": 3,
            "WEIGHTS_0": 4
          },
          "indices": 12,
          "material": 1
        },
        {
          "mode": 4,
          "attributes": {
            "POSITION": 0,
            "NORMAL": 1,
            "TEXCOORD_0": 2,
            "JOINTS_0": 3,
            "WEIGHTS_0": 4
          },
          "indices": 13,
          "material": 1
        }
      ]
    }
  ],
  "skins": [
    {
      "inverseBindMatrices": 14,
      "joints": [
        4,
        1,
        3,
        0,
        2
      ],
      "skeleton": 4
    }
  ]
}