{
  "asset": {
    "version": "2.0",
    "generator": "THREE.GLTFExporter"
  },
  "scenes": [
    {
      "name": "AuxScene",
      "nodes": [
        11
      ]
    }
  ],
  "scene": 0,
  "nodes": [
    {
      "rotation": [
        0.5,
        -0.5,
        0.5000000000000001,
        0.5000000000000001
      ],
      "translation": [
        -165.00003051757812,
        -540,
        0
      ],
      "name": "Bone_0"
    },
    {
      "rotation": [
        -0.5,
        0.5,
        0.5,
        -0.5
      ],
      "translation": [
        -130,
        -707.4999389648438,
        -100
      ],
      "name": "Bone_1"
    },
    {
      "rotation": [
        0.652379192449539,
        0.27276618056294266,
        -0.27276618056294266,
        0.652379192449539
      ],
      "name": "Bone_2"
    },
    {
      "rotation": [
        0,
        0,
        0.8305459083899931,
        0.5569501719693859
      ],
      "translation": [
        0,
        -900,
        0
      ],
      "name": "Bone_3"
    },
    {
      "rotation": [
        0,
        0,
        -0.7071067811865475,
        0.7071067811865476
      ],
      "translation": [
        0,
        -900,
        0
      ],
      "name": "Bone_4"
    },
    {
      "rotation": [
        0,
        0,
        0.7071067811865475,
        0.7071067811865476
      ],
      "translation": [
        0,
        -150,
        0
      ],
      "name": "Bone_5"
    },
    {
      "rotation": [
        0.5,
        -0.5,
        0.5000000000000001,
        0.5000000000000001
      ],
      "translation": [
        165,
        -540,
        0
      ],
      "name": "Bone_6"
    },
    {
      "rotation": [
        0.5,
        -0.5,
        0.5000000000000001,
        0.5000000000000001
      ],
      "translation": [
        -105.00000762939453,
        -540,
        0
      ],
      "name": "Bone_7"
    },
    {
      "rotation": [
        0.5,
        -0.5,
        0.5000000000000001,
        0.5000000000000001
      ],
      "translation": [
        104.99999237060547,
        -540,
        0
      ],
      "name": "Bone_8"
    },
    {
      "mesh": 0,
      "children": [
        0,
        1,
        2,
        3,
        4,
        5,
        6,
        7,
        8
      ],
      "skin": 0
    },
    {
      "mesh": 1,
      "skin": 1
    },
    {
      "extras": {
        "silentHillModel": {
          "name": "org.mdl",
          "characterId": 1316
        }
      },
      "children": [
        9,
        10
      ]
    }
  ],
  "bufferViews": [
    {
      "buffer": 0,
      "byteOffset": 0,
      "byteLength": 68772,
      "target": 34962,
      "byteStride": 12
    },
    {
      "buffer": 0,
      "byteOffset": 68772,
      "byteLength": 68772,
      "target": 34962,
      "byteStride": 12
    },
    {
      "buffer": 0,
      "byteOffset": 137544,
      "byteLength": 45848,
      "target": 34962,
      "byteStride": 8
    },
    {
      "buffer": 0,
      "byteOffset": 183392,
      "byteLength": 45848,
      "target": 34962,
      "byteStride": 8
    },
    {
      "buffer": 0,
      "byteOffset": 229240,
      "byteLength": 91696,
      "target": 34962,
      "byteStride": 16
    },
    {
      "buffer": 0,
      "byteOffset": 320936,
      "byteLength": 14628,
      "target": 34963
    },
    {
      "buffer": 0,
      "byteOffset": 335564,
      "byteLength": 1176,
      "target": 34963
    },
    {
      "buffer": 0,
      "byteOffset": 336740,
      "byteLength": 3684,
      "target": 34963
    },
    {
      "buffer": 0,
      "byteOffset": 340424,
      "byteLength": 708,
      "target": 34963
    },
    {
      "buffer": 0,
      "byteOffset": 341132,
      "byteLength": 3912,
      "target": 34963
    },
    {
      "buffer": 0,
      "byteOffset": 345044,
      "byteLength": 3600,
      "target": 34963
    },
    {
      "buffer": 0,
      "byteOffset": 348644,
      "byteLength": 180,
      "target": 34962,
      "byteStride": 12
    },
    {
      "buffer": 0,
      "byteOffset": 348824,
      "byteLength": 180,
      "target": 34962,
      "byteStride": 12
    },
    {
      "buffer": 0,
      "byteOffset": 349004,
      "byteLength": 120,
      "target": 34962,
      "byteStride": 8
    },
    {
      "buffer": 0,
      "byteOffset": 349124,
      "byteLength": 120,
      "target": 34962,
      "byteStride": 8
    },
    {
      "buffer": 0,
      "byteOffset": 349244,
      "byteLength": 240,
      "target": 34962,
      "byteStride": 16
    },
    {
      "buffer": 0,
      "byteOffset": 349484,
      "byteLength": 80,
      "target": 34963
    },
    {
      "buffer": 0,
      "byteOffset": 349564,
      "byteLength": 576
    },
    {
      "buffer": 0,
      "byteOffset": 350140,
      "byteLength": 576
    }
  ],
  "buffers": [
    {
      "byteLength": 350716,
      "uri": "data:application/octet-stream;base64,"
    }
  ],
  "accessors": [
    {
      "bufferView": 0,
      "componentType": 5126,
      "count": 5731,
      "max": [
        234.6875,
        -0.0625,
        219.9375
      ],
      "min": [
        -234.6875,
        -1130.5,
        -240
      ],
      "type": "VEC3"
    },
    {
      "bufferView": 1,
      "componentType": 5126,
      "count": 5731,
      "max": [
        1,
        1,
        1
      ],
      "min": [
        -1,
        -1,
        -1
      ],
      "type": "VEC3"
    },
    {
      "bufferView": 2,
      "componentType": 5126,
      "count": 5731,
      "max": [
        0.998779296875,
        0.998779296875
      ],
      "min": [
        0,
        0.0009765625
      ],
      "type": "VEC2"
    },
    {
      "bufferView": 3,
      "componentType": 5123,
      "count": 5731,
      "max": [
        8,
        8,
        0,
        0
      ],
      "min": [
        0,
        0,
        0,
        0
      ],
      "type": "VEC4"
    },
    {
      "bufferView": 4,
      "componentType": 5126,
      "count": 5731,
      "max": [
        1,
        0.01294261310249567,
        0,
        0
      ],
      "min": [
        0.9870573878288269,
        0,
        0,
        0
      ],
      "type": "VEC4"
    },
    {
      "bufferView": 5,
      "componentType": 5123,
      "count": 7314,
      "max": [
        3056
      ],
      "min": [
        0
      ],
      "type": "SCALAR"
    },
    {
      "bufferView": 6,
      "componentType": 5123,
      "count": 588,
      "max": [
        3366
      ],
      "min": [
        3057
      ],
      "type": "SCALAR"
    },
    {
      "bufferView": 7,
      "componentType": 5123,
      "count": 1842,
      "max": [
        4051
      ],
      "min": [
        3367
      ],
      "type": "SCALAR"
    },
    {
      "bufferView": 8,
      "componentType": 5123,
      "count": 354,
      "max": [
        4258
      ],
      "min": [
        4052
      ],
      "type": "SCALAR"
    },
    {
      "bufferView": 9,
      "componentType": 5123,
      "count": 1956,
      "max": [
        4937
      ],
      "min": [
        4259
      ],
      "type": "SCALAR"
    },
    {
      "bufferView": 10,
      "componentType": 5123,
      "count": 1800,
      "max": [
        5730
      ],
      "min": [
        4938
      ],
      "type": "SCALAR"
    },
    {
      "bufferView": 11,
      "componentType": 5126,
      "count": 15,
      "max": [
        77.125,
        -730.75,
        -4.9375
      ],
      "min": [
        -77.125,
        -982.125,
        -4.9375
      ],
      "type": "VEC3"
    },
    {
      "bufferView": 12,
      "componentType": 5126,
      "count": 15,
      "max": [
        0,
        0,
        1
      ],
      "min": [
        0,
        0,
        1
      ],
      "type": "VEC3"
    },
    {
      "bufferView": 13,
      "componentType": 5126,
      "count": 15,
      "max": [
        0.435546875,
        0.716796875
      ],
      "min": [
        0.001708984375,
        0.001708984375
      ],
      "type": "VEC2"
    },
    {
      "bufferView": 14,
      "componentType": 5123,
      "count": 15,
      "max": [
        5,
        0,
        0,
        0
      ],
      "min": [
        5,
        0,
        0,
        0
      ],
      "type": "VEC4"
    },
    {
      "bufferView": 15,
      "componentType": 5126,
      "count": 15,
      "max": [
        1,
        0,
        0,
        0
      ],
      "min": [
        1,
        0,
        0,
        0
      ],
      "type": "VEC4"
    },
    {
      "bufferView": 16,
      "componentType": 5123,
      "count": 39,
      "max": [
        14
      ],
      "min": [
        0
      ],
      "type": "SCALAR"
    },
    {
      "bufferView": 17,
      "componentType": 5126,
      "count": 9,
      "max": [
        1,
        1,
        0,
        0,
        1,
        2.220446049250313e-16,
        0,
        0,
        0,
        1,
        1,
        0,
        165.00003051757812,
        100,
        0,
        1
      ],
      "min": [
        -1,
        -1,
        -1,
        0,
        -1,
        -2.220446049250313e-16,
        -1,
        0,
        -1,
        -1,
        0,
        0,
        -900,
        -1.199040866595169e-13,
        -540,
        1
      ],
      "type": "MAT4"
    },
    {
      "bufferView": 18,
      "componentType": 5126,
      "count": 9,
      "max": [
        1,
        1,
        0,
        0,
        1,
        2.220446049250313e-16,
        0,
        0,
        0,
        1,
        1,
        0,
        165.00003051757812,
        100,
        0,
        1
      ],
      "min": [
        -1,
        -1,
        -1,
        0,
        -1,
        -2.220446049250313e-16,
        -1,
        0,
        -1,
        -1,
        0,
        0,
        -900,
        -1.199040866595169e-13,
        -540,
        1
      ],
      "type": "MAT4"
    }
  ],
  "materials": [
    {
      "pbrMetallicRoughness": {
        "metallicFactor": 0,
        "roughnessFactor": 1,
        "baseColorTexture": {
          "index": 0,
          "texCoord": 0
        }
      },
      "alphaMode": "MASK",
      "alphaCutoff": 0.01,
      "doubleSided": true
    },
    {
      "pbrMetallicRoughness": {
        "metallicFactor": 0,
        "roughnessFactor": 1,
        "baseColorTexture": {
          "index": 1,
          "texCoord": 0
        }
      },
      "alphaMode": "MASK",
      "alphaCutoff": 0.01,
      "doubleSided": true
    },
    {
      "pbrMetallicRoughness": {
        "metallicFactor": 0,
        "roughnessFactor": 1,
        "baseColorTexture": {
          "index": 2,
          "texCoord": 0
        }
      },
      "alphaMode": "BLEND",
      "doubleSided": true
    }
  ],
  "textures": [
    {
      "sampler": 0,
      "source": 0
    },
    {
      "sampler": 1,
      "source": 1
    },
    {
      "sampler": 2,
      "source": 2
    }
  ],
  "samplers": [
    {
      "magFilter": 9729,
      "minFilter": 9729,
      "wrapS": 33071,
      "wrapT": 33071
    },
    {
      "magFilter": 9729,
      "minFilter": 9729,
      "wrapS": 33071,
      "wrapT": 33071
    },
    {
      "magFilter": 9729,
      "minFilter": 9729,
      "wrapS": 33071,
      "wrapT": 33071
    }
  ],
  "images": [
    {
      "mimeType": "image/png",
      "uri": "data:image/png;base64,"
    },
    {
      "mimeType": "image/png",
      "uri": "data:image/png;base64,"
    },
    {
      "mimeType": "image/png",
      "uri": "data:image/png;base64,"
    }
  ],
  "meshes": [
    {
      "primitives": [
        {
          "mode": 4,
          "attributes": {
            "POSITION": 0,
            "NORMAL": 1,
            "TEXCOORD_0": 2,
            "JOINTS_0": 3,
            "WEIGHTS_0": 4
          },
          "indices": 5,
          "material": 0
        },
        {
          "mode": 4,
          "attributes": {
            "POSITION": 0,
            "NORMAL": 1,
            "TEXCOORD_0": 2,
            "JOINTS_0": 3,
            "WEIGHTS_0": 4
          },
          "indices": 6,
          "material": 1
        },
        {
          "mode": 4,
          "attributes": {
            "POSITION": 0,
            "NORMAL": 1,
            "TEXCOORD_0": 2,
            "JOINTS_0": 3,
            "WEIGHTS_0": 4
          },
          "indices": 7,
          "material": 1
        },
        {
          "mode": 4,
          "attributes": {
            "POSITION": 0,
            "NORMAL": 1,
            "TEXCOORD_0": 2,
            "JOINTS_0": 3,
            "WEIGHTS_0": 4
          },
          "indices": 8,
          "material": 1
        },
        {
          "mode": 4,
          "attributes": {
            "POSITION": 0,
            "NORMAL": 1,
            "TEXCOORD_0": 2,
            "JOINTS_0": 3,
            "WEIGHTS_0": 4
          },
          "indices": 9,
          "material": 1
        },
        {
          "mode": 4,
          "attributes": {
            "POSITION": 0,
            "NORMAL": 1,
            "TEXCOORD_0": 2,
            "JOINTS_0": 3,
            "WEIGHTS_0": 4
          },
          "indices": 10,
          "material": 1
        }
      ]
    },
    {
      "primitives": [
        {
          "mode": 4,
          "attributes": {
            "POSITION": 11,
            "NORMAL": 12,
            "TEXCOORD_0": 13,
            "JOINTS_0": 14,
            "WEIGHTS_0": 15
          },
          "indices": 16,
          "material": 2
        }
      ]
    }
  ],
  "skins": [
    {
      "inverseBindMatrices": 17,
      "joints": [
        0,
        1,
        2,
        3,
        4,
        5,
        6,
        7,
        8
      ],
      "skeleton": 0
    },
    {
      "inverseBindMatrices": 18,
      "joints": [
        0,
        1,
        2,
        3,
        4,
        5,
        6,
        7,
        8
      ],
      "skeleton": 0
    }
  ]
}