{
  "asset": {
    "version": "2.0",
    "generator": "THREE.GLTFExporter"
  },
  "scenes": [
    {
      "name": "AuxScene",
      "nodes": [
        3
      ]
    }
  ],
  "scene": 0,
  "nodes": [
    {
      "rotation": [
        0.7810755633771602,
        0.5223675419180511,
        -0.3373743126134667,
        -0.05684800732882191
      ],
      "translation": [
        61.96961136166391,
        113.98455522625662,
        -72.46275227289141
      ],
      "scale": [
        1.0000000572111811,
        0.9999999092428778,
        0.9999993700737867
      ],
      "name": "Bone_1"
    },
    {
      "rotation": [
        0.6522461197408039,
        0.3313972775879302,
        0.4490117444855439,
        0.5129705189254253
      ],
      "translation": [
        166.5540008544922,
        -487.8045959472656,
        41.18252182006836
      ],
      "scale": [
        0.9999998560256658,
        0.9999999056228088,
        0.9999998298836437
      ],
      "name": "Bone_0",
      "children": [
        0
      ]
    },
    {
      "mesh": 0,
      "children": [
        1
      ],
      "skin": 0
    },
    {
      "extras": {
        "silentHillModel": {
          "name": "rwp_chinanife.mdl",
          "characterId": 2090
        }
      },
      "children": [
        2
      ]
    }
  ],
  "bufferViews": [
    {
      "buffer": 0,
      "byteOffset": 0,
      "byteLength": 3696,
      "target": 34962,
      "byteStride": 12
    },
    {
      "buffer": 0,
      "byteOffset": 3696,
      "byteLength": 3696,
      "target": 34962,
      "byteStride": 12
    },
    {
      "buffer": 0,
      "byteOffset": 7392,
      "byteLength": 2464,
      "target": 34962,
      "byteStride": 8
    },
    {
      "buffer": 0,
      "byteOffset": 9856,
      "byteLength": 2464,
      "target": 34962,
      "byteStride": 8
    },
    {
      "buffer": 0,
      "byteOffset": 12320,
      "byteLength": 4928,
      "target": 34962,
      "byteStride": 16
    },
    {
      "buffer": 0,
      "byteOffset": 17248,
      "byteLength": 1008,
      "target": 34963
    },
    {
      "buffer": 0,
      "byteOffset": 18256,
      "byteLength": 432,
      "target": 34963
    },
    {
      "buffer": 0,
      "byteOffset": 18688,
      "byteLength": 128
    }
  ],
  "buffers": [
    {
      "byteLength": 18816,
      "uri": "data:application/octet-stream;base64,"
    }
  ],
  "accessors": [
    {
      "bufferView": 0,
      "componentType": 5126,
      "count": 308,
      "max": [
        182.03271484375,
        -385.6204528808594,
        174.7282257080078
      ],
      "min": [
        114.5112533569336,
        -464.2554626464844,
        25.090452194213867
      ],
      "type": "VEC3"
    },
    {
      "bufferView": 1,
      "componentType": 5126,
      "count": 308,
      "max": [
        0.9635868072509766,
        0.9869441986083984,
        0.9152539968490601
      ],
      "min": [
        -0.9288029074668884,
        -0.9867262244224548,
        -0.9192332029342651
      ],
      "type": "VEC3"
    },
    {
      "bufferView": 2,
      "componentType": 5126,
      "count": 308,
      "max": [
        0.99609375,
        0.991943359375
      ],
      "min": [
        0.003173828125,
        0.009521484375
      ],
      "type": "VEC2"
    },
    {
      "bufferView": 3,
      "componentType": 5123,
      "count": 308,
      "max": [
        1,
        0,
        0,
        0
      ],
      "min": [
        0,
        0,
        0,
        0
      ],
      "type": "VEC4"
    },
    {
      "bufferView": 4,
      "componentType": 5126,
      "count": 308,
      "max": [
        1,
        0,
        0,
        0
      ],
      "min": [
        1,
        0,
        0,
        0
      ],
      "type": "VEC4"
    },
    {
      "bufferView": 5,
      "componentType": 5123,
      "count": 504,
      "max": [
        223
      ],
      "min": [
        0
      ],
      "type": "SCALAR"
    },
    {
      "bufferView": 6,
      "componentType": 5123,
      "count": 216,
      "max": [
        307
      ],
      "min": [
        224
      ],
      "type": "SCALAR"
    },
    {
      "bufferView": 7,
      "componentType": 5126,
      "count": 2,
      "max": [
        0.37712833285331726,
        -0.028354916721582413,
        0.9257274270057678,
        0,
        0.8929658532142639,
        0.9721583724021912,
        -0.17208538949489594,
        0,
        0.9146416187286377,
        0.9667699337005615,
        -0.07049887627363205,
        0,
        362.6604919433594,
        470.8519287109375,
        94.83683013916016,
        1
      ],
      "min": [
        -0.37166616320610046,
        -0.10252298414707184,
        -0.9226891994476318,
        0,
        0.15904879570007324,
        -0.25407376885414124,
        -0.37156450748443604,
        0,
        0.24573805928230286,
        -0.21071088314056396,
        -0.34501156210899353,
        0,
        -43.4956169128418,
        -159.02975463867188,
        -332.5311584472656,
        1
      ],
      "type": "MAT4"
    }
  ],
  "materials": [
    {
      "pbrMetallicRoughness": {
        "metallicFactor": 0,
        "roughnessFactor": 1,
        "baseColorTexture": {
          "index": 0,
          "texCoord": 0
        }
      },
      "alphaMode": "MASK",
      "alphaCutoff": 0.01,
      "doubleSided": true
    }
  ],
  "textures": [
    {
      "sampler": 0,
      "source": 0
    }
  ],
  "samplers": [
    {
      "magFilter": 9729,
      "minFilter": 9729,
      "wrapS": 33071,
      "wrapT": 33071
    }
  ],
  "images": [
    {
      "mimeType": "image/png",
      "uri": "data:image/png;base64,"
    }
  ],
  "meshes": [
    {
      "primitives": [
        {
          "mode": 4,
          "attributes": {
            "POSITION": 0,
            "NORMAL": 1,
            "TEXCOORD_0": 2,
            "JOINTS_0": 3,
            "WEIGHTS_0": 4
          },
          "indices": 5,
          "material": 0
        },
        {
          "mode": 4,
          "attributes": {
            "POSITION": 0,
            "NORMAL": 1,
            "TEXCOORD_0": 2,
            "JOINTS_0": 3,
            "WEIGHTS_0": 4
          },
          "indices": 6,
          "material": 0
        }
      ]
    }
  ],
  "skins": [
    {
      "inverseBindMatrices": 7,
      "joints": [
        1,
        0
      ],
      "skeleton": 1
    }
  ]
}