{
  "asset": {
    "version": "2.0",
    "generator": "THREE.GLTFExporter"
  },
  "scenes": [
    {
      "name": "AuxScene",
      "nodes": [
        3
      ]
    }
  ],
  "scene": 0,
  "nodes": [
    {
      "rotation": [
        0.9797457618990421,
        0.013762201773289847,
        -0.18125520151389582,
        0.08399639094934604
      ],
      "translation": [
        509.2552746063882,
        -2.7734248397302395,
        -157.62288136121816
      ],
      "scale": [
        1.0000001157865757,
        0.9999999659226405,
        1.000000573662015
      ],
      "name": "Bone_1"
    },
    {
      "rotation": [
        0.7264253650004413,
        0.49849634223373646,
        0.32661861194034625,
        0.34223966533283506
      ],
      "translation": [
        200.82240295410156,
        -455.9603576660156,
        -27.770015716552734
      ],
      "scale": [
        0.9999995629253893,
        0.9999996575320051,
        0.9999998896838236
      ],
      "name": "Bone_0",
      "children": [
        0
      ]
    },
    {
      "mesh": 0,
      "children": [
        1
      ],
      "skin": 0
    },
    {
      "extras": {
        "silentHillModel": {
          "name": "wp_csaw.mdl",
          "characterId": 2055
        }
      },
      "children": [
        2
      ]
    }
  ],
  "bufferViews": [
    {
      "buffer": 0,
      "byteOffset": 0,
      "byteLength": 3708,
      "target": 34962,
      "byteStride": 12
    },
    {
      "buffer": 0,
      "byteOffset": 3708,
      "byteLength": 3708,
      "target": 34962,
      "byteStride": 12
    },
    {
      "buffer": 0,
      "byteOffset": 7416,
      "byteLength": 2472,
      "target": 34962,
      "byteStride": 8
    },
    {
      "buffer": 0,
      "byteOffset": 9888,
      "byteLength": 2472,
      "target": 34962,
      "byteStride": 8
    },
    {
      "buffer": 0,
      "byteOffset": 12360,
      "byteLength": 4944,
      "target": 34962,
      "byteStride": 16
    },
    {
      "buffer": 0,
      "byteOffset": 17304,
      "byteLength": 1668,
      "target": 34963
    },
    {
      "buffer": 0,
      "byteOffset": 18972,
      "byteLength": 128
    }
  ],
  "buffers": [
    {
      "byteLength": 19100,
      "uri": "data:application/octet-stream;base64,"
    }
  ],
  "accessors": [
    {
      "bufferView": 0,
      "componentType": 5126,
      "count": 309,
      "max": [
        246.8020782470703,
        56.652381896972656,
        139.18321228027344
      ],
      "min": [
        134.3958740234375,
        -423.2515563964844,
        -82.28265380859375
      ],
      "type": "VEC3"
    },
    {
      "bufferView": 1,
      "componentType": 5126,
      "count": 309,
      "max": [
        0.9391537308692932,
        0.9911083579063416,
        0.9479454159736633
      ],
      "min": [
        -0.9983899593353271,
        -0.9909313917160034,
        -0.9498968124389648
      ],
      "type": "VEC3"
    },
    {
      "bufferView": 2,
      "componentType": 5126,
      "count": 309,
      "max": [
        0.99609375,
        0.9970703125
      ],
      "min": [
        0.003662109375,
        0.003662109375
      ],
      "type": "VEC2"
    },
    {
      "bufferView": 3,
      "componentType": 5123,
      "count": 309,
      "max": [
        1,
        0,
        0,
        0
      ],
      "min": [
        0,
        0,
        0,
        0
      ],
      "type": "VEC4"
    },
    {
      "bufferView": 4,
      "componentType": 5126,
      "count": 309,
      "max": [
        1,
        0,
        0,
        0
      ],
      "min": [
        1,
        0,
        0,
        0
      ],
      "type": "VEC4"
    },
    {
      "bufferView": 5,
      "componentType": 5123,
      "count": 834,
      "max": [
        308
      ],
      "min": [
        0
      ],
      "type": "SCALAR"
    },
    {
      "bufferView": 6,
      "componentType": 5126,
      "count": 2,
      "max": [
        0.28964361548423767,
        0.500677227973938,
        0.8157383799552917,
        0,
        0.9478046298027039,
        0.2918870449066162,
        -0.130973681807518,
        0,
        0.3191080391407013,
        0.822859525680542,
        0.32171255350112915,
        0,
        377.6966552734375,
        171.1223907470703,
        171.71493530273438,
        1
      ],
      "min": [
        -0.022851508110761642,
        -0.34659942984580994,
        -0.9377344250679016,
        0,
        0.9474429488182068,
        -0.26874691247940063,
        -0.17158664762973785,
        0,
        0.133317768573761,
        -0.8914433121681213,
        -0.552384614944458,
        0,
        -86.51024627685547,
        -200.23431396484375,
        -257.3949890136719,
        1
      ],
      "type": "MAT4"
    }
  ],
  "materials": [
    {
      "pbrMetallicRoughness": {
        "metallicFactor": 0,
        "roughnessFactor": 1,
        "baseColorTexture": {
          "index": 0,
          "texCoord": 0
        }
      },
      "alphaMode": "MASK",
      "alphaCutoff": 0.01,
      "doubleSided": true
    }
  ],
  "textures": [
    {
      "sampler": 0,
      "source": 0
    }
  ],
  "samplers": [
    {
      "magFilter": 9729,
      "minFilter": 9729,
      "wrapS": 33071,
      "wrapT": 33071
    }
  ],
  "images": [
    {
      "mimeType": "image/png",
      "uri": "data:image/png;base64,"
    }
  ],
  "meshes": [
    {
      "primitives": [
        {
          "mode": 4,
          "attributes": {
            "POSITION": 0,
            "NORMAL": 1,
            "TEXCOORD_0": 2,
            "JOINTS_0": 3,
            "WEIGHTS_0": 4
          },
          "indices": 5,
          "material": 0
        }
      ]
    }
  ],
  "skins": [
    {
      "inverseBindMatrices": 6,
      "joints": [
        1,
        0
      ],
      "skeleton": 1
    }
  ]
}