{
  "asset": {
    "version": "2.0",
    "generator": "THREE.GLTFExporter"
  },
  "scenes": [
    {
      "name": "AuxScene",
      "nodes": [
        3
      ]
    }
  ],
  "scene": 0,
  "nodes": [
    {
      "rotation": [
        0.9783232665596362,
        0.024591309467721173,
        -0.07337198432062214,
        0.19208175721588058
      ],
      "translation": [
        113.0185491800153,
        30.714227135007377,
        -39.02514906981338
      ],
      "scale": [
        0.9999998265117218,
        1.0000001636678257,
        1.0000001620439014
      ],
      "name": "Bone_1"
    },
    {
      "rotation": [
        0.6522461197408039,
        0.3313972775879302,
        0.4490117444855439,
        0.5129705189254253
      ],
      "translation": [
        166.5540008544922,
        -487.8045959472656,
        41.182559967041016
      ],
      "scale": [
        0.9999998560256658,
        0.9999999056228088,
        0.9999998298836437
      ],
      "name": "Bone_0",
      "children": [
        0
      ]
    },
    {
      "mesh": 0,
      "children": [
        1
      ],
      "skin": 0
    },
    {
      "extras": {
        "silentHillModel": {
          "name": "wp_colt.mdl",
          "characterId": 2057
        }
      },
      "children": [
        2
      ]
    }
  ],
  "bufferViews": [
    {
      "buffer": 0,
      "byteOffset": 0,
      "byteLength": 6648,
      "target": 34962,
      "byteStride": 12
    },
    {
      "buffer": 0,
      "byteOffset": 6648,
      "byteLength": 6648,
      "target": 34962,
      "byteStride": 12
    },
    {
      "buffer": 0,
      "byteOffset": 13296,
      "byteLength": 4432,
      "target": 34962,
      "byteStride": 8
    },
    {
      "buffer": 0,
      "byteOffset": 17728,
      "byteLength": 4432,
      "target": 34962,
      "byteStride": 8
    },
    {
      "buffer": 0,
      "byteOffset": 22160,
      "byteLength": 8864,
      "target": 34962,
      "byteStride": 16
    },
    {
      "buffer": 0,
      "byteOffset": 31024,
      "byteLength": 1908,
      "target": 34963
    },
    {
      "buffer": 0,
      "byteOffset": 32932,
      "byteLength": 600,
      "target": 34963
    },
    {
      "buffer": 0,
      "byteOffset": 33532,
      "byteLength": 128
    }
  ],
  "buffers": [
    {
      "byteLength": 33660,
      "uri": "data:application/octet-stream;base64,"
    }
  ],
  "accessors": [
    {
      "bufferView": 0,
      "componentType": 5126,
      "count": 554,
      "max": [
        179.32943725585938,
        -377.80108642578125,
        108.68043518066406
      ],
      "min": [
        151.0439910888672,
        -466.3396911621094,
        22.135028839111328
      ],
      "type": "VEC3"
    },
    {
      "bufferView": 1,
      "componentType": 5126,
      "count": 554,
      "max": [
        0.9932019114494324,
        0.9964960217475891,
        0.9719334840774536
      ],
      "min": [
        -0.9963887929916382,
        -0.9871482849121094,
        -0.994625985622406
      ],
      "type": "VEC3"
    },
    {
      "bufferView": 2,
      "componentType": 5126,
      "count": 554,
      "max": [
        0.99658203125,
        0.99609375
      ],
      "min": [
        0.002197265625,
        -0.0009765625
      ],
      "type": "VEC2"
    },
    {
      "bufferView": 3,
      "componentType": 5123,
      "count": 554,
      "max": [
        1,
        0,
        0,
        0
      ],
      "min": [
        0,
        0,
        0,
        0
      ],
      "type": "VEC4"
    },
    {
      "bufferView": 4,
      "componentType": 5126,
      "count": 554,
      "max": [
        1,
        0,
        0,
        0
      ],
      "min": [
        1,
        0,
        0,
        0
      ],
      "type": "VEC4"
    },
    {
      "bufferView": 5,
      "componentType": 5123,
      "count": 954,
      "max": [
        463
      ],
      "min": [
        0
      ],
      "type": "SCALAR"
    },
    {
      "bufferView": 6,
      "componentType": 5123,
      "count": 300,
      "max": [
        553
      ],
      "min": [
        464
      ],
      "type": "SCALAR"
    },
    {
      "bufferView": 7,
      "componentType": 5126,
      "count": 2,
      "max": [
        0.37712833285331726,
        0.3995855450630188,
        0.9257274270057678,
        0,
        0.9340610504150391,
        0.16484789550304413,
        0.3167918026447296,
        0,
        0.27284950017929077,
        0.9667699337005615,
        -0.07049887627363205,
        0,
        362.6604919433594,
        85.31066131591797,
        307.20416259765625,
        1
      ],
      "min": [
        0.23040097951889038,
        -0.028354916721582413,
        -0.8872696757316589,
        0,
        0.8929658532142639,
        -0.25407376885414124,
        -0.37156450748443604,
        0,
        0.24573805928230286,
        -0.901752769947052,
        -0.3352554440498352,
        0,
        287.780029296875,
        -159.02978515625,
        -332.5311584472656,
        1
      ],
      "type": "MAT4"
    }
  ],
  "materials": [
    {
      "pbrMetallicRoughness": {
        "metallicFactor": 0,
        "roughnessFactor": 1,
        "baseColorTexture": {
          "index": 0,
          "texCoord": 0
        }
      },
      "alphaMode": "MASK",
      "alphaCutoff": 0.01,
      "doubleSided": true
    }
  ],
  "textures": [
    {
      "sampler": 0,
      "source": 0
    }
  ],
  "samplers": [
    {
      "magFilter": 9729,
      "minFilter": 9729,
      "wrapS": 33071,
      "wrapT": 33071
    }
  ],
  "images": [
    {
      "mimeType": "image/png",
      "uri": "data:image/png;base64,"
    }
  ],
  "meshes": [
    {
      "primitives": [
        {
          "mode": 4,
          "attributes": {
            "POSITION": 0,
            "NORMAL": 1,
            "TEXCOORD_0": 2,
            "JOINTS_0": 3,
            "WEIGHTS_0": 4
          },
          "indices": 5,
          "material": 0
        },
        {
          "mode": 4,
          "attributes": {
            "POSITION": 0,
            "NORMAL": 1,
            "TEXCOORD_0": 2,
            "JOINTS_0": 3,
            "WEIGHTS_0": 4
          },
          "indices": 6,
          "material": 0
        }
      ]
    }
  ],
  "skins": [
    {
      "inverseBindMatrices": 7,
      "joints": [
        1,
        0
      ],
      "skeleton": 1
    }
  ]
}