{
  "asset": {
    "version": "2.0",
    "generator": "THREE.GLTFExporter"
  },
  "scenes": [
    {
      "name": "AuxScene",
      "nodes": [
        3
      ]
    }
  ],
  "scene": 0,
  "nodes": [
    {
      "rotation": [
        0.9957010281788142,
        0.060434608908325395,
        -0.03405101894707513,
        0.0613811865837227
      ],
      "translation": [
        125.46222402287813,
        46.05539067018299,
        -34.915927577682055
      ],
      "scale": [
        1.0000004963058315,
        1.000000289181076,
        1.0000000996207699
      ],
      "name": "Bone_1"
    },
    {
      "rotation": [
        0.7264253650004413,
        0.49849634223373646,
        0.32661861194034625,
        0.34223966533283506
      ],
      "translation": [
        200.82244873046875,
        -455.9603576660156,
        -27.769977569580078
      ],
      "scale": [
        0.9999995629253893,
        0.9999996575320051,
        0.9999998896838236
      ],
      "name": "Bone_0",
      "children": [
        0
      ]
    },
    {
      "mesh": 0,
      "children": [
        1
      ],
      "skin": 0
    },
    {
      "extras": {
        "silentHillModel": {
          "name": "wp_handgun.mdl",
          "characterId": 2049
        }
      },
      "children": [
        2
      ]
    }
  ],
  "bufferViews": [
    {
      "buffer": 0,
      "byteOffset": 0,
      "byteLength": 4416,
      "target": 34962,
      "byteStride": 12
    },
    {
      "buffer": 0,
      "byteOffset": 4416,
      "byteLength": 4416,
      "target": 34962,
      "byteStride": 12
    },
    {
      "buffer": 0,
      "byteOffset": 8832,
      "byteLength": 2944,
      "target": 34962,
      "byteStride": 8
    },
    {
      "buffer": 0,
      "byteOffset": 11776,
      "byteLength": 2944,
      "target": 34962,
      "byteStride": 8
    },
    {
      "buffer": 0,
      "byteOffset": 14720,
      "byteLength": 5888,
      "target": 34962,
      "byteStride": 16
    },
    {
      "buffer": 0,
      "byteOffset": 20608,
      "byteLength": 1740,
      "target": 34963
    },
    {
      "buffer": 0,
      "byteOffset": 22348,
      "byteLength": 128
    }
  ],
  "buffers": [
    {
      "byteLength": 22476,
      "uri": "data:application/octet-stream;base64,"
    }
  ],
  "accessors": [
    {
      "bufferView": 0,
      "componentType": 5126,
      "count": 368,
      "max": [
        238.80653381347656,
        -338.4202880859375,
        55.96133804321289
      ],
      "min": [
        170.81582641601562,
        -444.5996398925781,
        -42.88799285888672
      ],
      "type": "VEC3"
    },
    {
      "bufferView": 1,
      "componentType": 5126,
      "count": 368,
      "max": [
        0.9863952994346619,
        0.9803959727287292,
        0.9657737612724304
      ],
      "min": [
        -0.9850555062294006,
        -0.9938679337501526,
        -0.9519150257110596
      ],
      "type": "VEC3"
    },
    {
      "bufferView": 2,
      "componentType": 5126,
      "count": 368,
      "max": [
        0.99609375,
        0.99609375
      ],
      "min": [
        0,
        0
      ],
      "type": "VEC2"
    },
    {
      "bufferView": 3,
      "componentType": 5123,
      "count": 368,
      "max": [
        1,
        0,
        0,
        0
      ],
      "min": [
        0,
        0,
        0,
        0
      ],
      "type": "VEC4"
    },
    {
      "bufferView": 4,
      "componentType": 5126,
      "count": 368,
      "max": [
        1,
        0,
        0,
        0
      ],
      "min": [
        1,
        0,
        0,
        0
      ],
      "type": "VEC4"
    },
    {
      "bufferView": 5,
      "componentType": 5123,
      "count": 870,
      "max": [
        367
      ],
      "min": [
        0
      ],
      "type": "SCALAR"
    },
    {
      "bufferView": 6,
      "componentType": 5126,
      "count": 2,
      "max": [
        0.28964361548423767,
        0.500677227973938,
        0.8157383799552917,
        0,
        0.9478046298027039,
        0.36252090334892273,
        0.1466139554977417,
        0,
        0.2691807448863983,
        0.822859525680542,
        0.4349215626716614,
        0,
        377.6966247558594,
        247.76646423339844,
        236.17300415039062,
        1
      ],
      "min": [
        0.28365278244018555,
        -0.36082369089126587,
        -0.8884521722793579,
        0,
        0.920370876789093,
        -0.26874691247940063,
        -0.17158664762973785,
        0,
        0.133317768573761,
        -0.8592931032180786,
        -0.552384614944458,
        0,
        237.93228149414062,
        -200.234375,
        -257.3949890136719,
        1
      ],
      "type": "MAT4"
    }
  ],
  "materials": [
    {
      "pbrMetallicRoughness": {
        "metallicFactor": 0,
        "roughnessFactor": 1,
        "baseColorTexture": {
          "index": 0,
          "texCoord": 0
        }
      },
      "alphaMode": "MASK",
      "alphaCutoff": 0.01,
      "doubleSided": true
    }
  ],
  "textures": [
    {
      "sampler": 0,
      "source": 0
    }
  ],
  "samplers": [
    {
      "magFilter": 9729,
      "minFilter": 9729,
      "wrapS": 33071,
      "wrapT": 33071
    }
  ],
  "images": [
    {
      "mimeType": "image/png",
      "uri": "data:image/png;base64,"
    }
  ],
  "meshes": [
    {
      "primitives": [
        {
          "mode": 4,
          "attributes": {
            "POSITION": 0,
            "NORMAL": 1,
            "TEXCOORD_0": 2,
            "JOINTS_0": 3,
            "WEIGHTS_0": 4
          },
          "indices": 5,
          "material": 0
        }
      ]
    }
  ],
  "skins": [
    {
      "inverseBindMatrices": 6,
      "joints": [
        1,
        0
      ],
      "skeleton": 1
    }
  ]
}