{
  "asset": {
    "version": "2.0",
    "generator": "THREE.GLTFExporter"
  },
  "scenes": [
    {
      "name": "AuxScene",
      "nodes": [
        3
      ]
    }
  ],
  "scene": 0,
  "nodes": [
    {
      "rotation": [
        0.7693793639555069,
        0.6246992383306008,
        -0.13222912821756935,
        -0.017936623485687395
      ],
      "translation": [
        97.45962456975076,
        316.1591835408933,
        -75.2109751147982
      ],
      "scale": [
        0.9999998329732538,
        0.9999991013524399,
        0.9999999732327652
      ],
      "name": "Bone_1"
    },
    {
      "rotation": [
        0.726424935564701,
        0.49849661969750436,
        0.32661867613793744,
        0.34224004254048834
      ],
      "translation": [
        200.82249450683594,
        -455.9603576660156,
        -27.769649505615234
      ],
      "scale": [
        1.000000388227931,
        1.0000002190030854,
        1.000000140837769
      ],
      "name": "Bone_0",
      "children": [
        0
      ]
    },
    {
      "mesh": 0,
      "children": [
        1
      ],
      "skin": 0
    },
    {
      "extras": {
        "silentHillModel": {
          "name": "wp_kakuzai.mdl",
          "characterId": 2053
        }
      },
      "children": [
        2
      ]
    }
  ],
  "bufferViews": [
    {
      "buffer": 0,
      "byteOffset": 0,
      "byteLength": 3084,
      "target": 34962,
      "byteStride": 12
    },
    {
      "buffer": 0,
      "byteOffset": 3084,
      "byteLength": 3084,
      "target": 34962,
      "byteStride": 12
    },
    {
      "buffer": 0,
      "byteOffset": 6168,
      "byteLength": 2056,
      "target": 34962,
      "byteStride": 8
    },
    {
      "buffer": 0,
      "byteOffset": 8224,
      "byteLength": 2056,
      "target": 34962,
      "byteStride": 8
    },
    {
      "buffer": 0,
      "byteOffset": 10280,
      "byteLength": 4112,
      "target": 34962,
      "byteStride": 16
    },
    {
      "buffer": 0,
      "byteOffset": 14392,
      "byteLength": 120,
      "target": 34963
    },
    {
      "buffer": 0,
      "byteOffset": 14512,
      "byteLength": 1536,
      "target": 34963
    },
    {
      "buffer": 0,
      "byteOffset": 16048,
      "byteLength": 128
    }
  ],
  "buffers": [
    {
      "byteLength": 16176,
      "uri": "data:application/octet-stream;base64,"
    }
  ],
  "accessors": [
    {
      "bufferView": 0,
      "componentType": 5126,
      "count": 257,
      "max": [
        335.23809814453125,
        -387.6722412109375,
        292.34381103515625
      ],
      "min": [
        121.21009063720703,
        -462.9186706542969,
        -177.06468200683594
      ],
      "type": "VEC3"
    },
    {
      "bufferView": 1,
      "componentType": 5126,
      "count": 257,
      "max": [
        0.9341768026351929,
        0.9983815550804138,
        0.9324101805686951
      ],
      "min": [
        -0.9341768026351929,
        -0.9983815550804138,
        -0.9479847550392151
      ],
      "type": "VEC3"
    },
    {
      "bufferView": 2,
      "componentType": 5126,
      "count": 257,
      "max": [
        0.99853515625,
        0.998291015625
      ],
      "min": [
        0.003173828125,
        0.003662109375
      ],
      "type": "VEC2"
    },
    {
      "bufferView": 3,
      "componentType": 5123,
      "count": 257,
      "max": [
        1,
        0,
        0,
        0
      ],
      "min": [
        0,
        0,
        0,
        0
      ],
      "type": "VEC4"
    },
    {
      "bufferView": 4,
      "componentType": 5126,
      "count": 257,
      "max": [
        1,
        0,
        0,
        0
      ],
      "min": [
        1,
        0,
        0,
        0
      ],
      "type": "VEC4"
    },
    {
      "bufferView": 5,
      "componentType": 5123,
      "count": 60,
      "max": [
        34
      ],
      "min": [
        0
      ],
      "type": "SCALAR"
    },
    {
      "bufferView": 6,
      "componentType": 5123,
      "count": 768,
      "max": [
        256
      ],
      "min": [
        35
      ],
      "type": "SCALAR"
    },
    {
      "bufferView": 7,
      "componentType": 5126,
      "count": 2,
      "max": [
        0.38940805196762085,
        0.5006766319274902,
        0.8157386779785156,
        0,
        0.9478042125701904,
        0.998492956161499,
        -0.01163154374808073,
        0,
        0.9195018410682678,
        0.8228596448898315,
        0.38936761021614075,
        0,
        377.696533203125,
        416.19525146484375,
        183.4555206298828,
        1
      ],
      "min": [
        0.28964269161224365,
        0.010191074572503567,
        -0.9210087656974792,
        0,
        -0.05364156514406204,
        -0.26874569058418274,
        -0.17158667743206024,
        0,
        0.13331687450408936,
        0.05393385887145996,
        -0.5523838996887207,
        0,
        -414.1395263671875,
        -200.23399353027344,
        -257.3948974609375,
        1
      ],
      "type": "MAT4"
    }
  ],
  "materials": [
    {
      "pbrMetallicRoughness": {
        "metallicFactor": 0,
        "roughnessFactor": 1,
        "baseColorTexture": {
          "index": 0,
          "texCoord": 0
        }
      },
      "alphaMode": "MASK",
      "alphaCutoff": 0.01,
      "doubleSided": true
    }
  ],
  "textures": [
    {
      "sampler": 0,
      "source": 0
    }
  ],
  "samplers": [
    {
      "magFilter": 9729,
      "minFilter": 9729,
      "wrapS": 33071,
      "wrapT": 33071
    }
  ],
  "images": [
    {
      "mimeType": "image/png",
      "uri": "data:image/png;base64,"
    }
  ],
  "meshes": [
    {
      "primitives": [
        {
          "mode": 4,
          "attributes": {
            "POSITION": 0,
            "NORMAL": 1,
            "TEXCOORD_0": 2,
            "JOINTS_0": 3,
            "WEIGHTS_0": 4
          },
          "indices": 5,
          "material": 0
        },
        {
          "mode": 4,
          "attributes": {
            "POSITION": 0,
            "NORMAL": 1,
            "TEXCOORD_0": 2,
            "JOINTS_0": 3,
            "WEIGHTS_0": 4
          },
          "indices": 6,
          "material": 0
        }
      ]
    }
  ],
  "skins": [
    {
      "inverseBindMatrices": 7,
      "joints": [
        1,
        0
      ],
      "skeleton": 1
    }
  ]
}