{
  "asset": {
    "version": "2.0",
    "generator": "THREE.GLTFExporter"
  },
  "scenes": [
    {
      "name": "AuxScene",
      "nodes": [
        3
      ]
    }
  ],
  "scene": 0,
  "nodes": [
    {
      "rotation": [
        0.7620518060024795,
        0.6255217497083448,
        -0.16016940369132826,
        -0.048429443876194585
      ],
      "translation": [
        114.90930312722583,
        566.1465914346168,
        -112.29698691711053
      ],
      "scale": [
        0.9999998622265256,
        1.0000001125127083,
        1.0000007952978187
      ],
      "name": "Bone_1"
    },
    {
      "rotation": [
        0.7264253650004413,
        0.49849634223373646,
        0.32661861194034625,
        0.34223966533283506
      ],
      "translation": [
        200.82249450683594,
        -455.96026611328125,
        -27.77000617980957
      ],
      "scale": [
        0.9999995629253893,
        0.9999996575320051,
        0.9999998896838236
      ],
      "name": "Bone_0",
      "children": [
        0
      ]
    },
    {
      "mesh": 0,
      "children": [
        1
      ],
      "skin": 0
    },
    {
      "extras": {
        "silentHillModel": {
          "name": "wp_nata.mdl",
          "characterId": 2056
        }
      },
      "children": [
        2
      ]
    }
  ],
  "bufferViews": [
    {
      "buffer": 0,
      "byteOffset": 0,
      "byteLength": 4152,
      "target": 34962,
      "byteStride": 12
    },
    {
      "buffer": 0,
      "byteOffset": 4152,
      "byteLength": 4152,
      "target": 34962,
      "byteStride": 12
    },
    {
      "buffer": 0,
      "byteOffset": 8304,
      "byteLength": 2768,
      "target": 34962,
      "byteStride": 8
    },
    {
      "buffer": 0,
      "byteOffset": 11072,
      "byteLength": 2768,
      "target": 34962,
      "byteStride": 8
    },
    {
      "buffer": 0,
      "byteOffset": 13840,
      "byteLength": 5536,
      "target": 34962,
      "byteStride": 16
    },
    {
      "buffer": 0,
      "byteOffset": 19376,
      "byteLength": 1776,
      "target": 34963
    },
    {
      "buffer": 0,
      "byteOffset": 21152,
      "byteLength": 128
    }
  ],
  "buffers": [
    {
      "byteLength": 21280,
      "uri": "data:application/octet-stream;base64,"
    }
  ],
  "accessors": [
    {
      "bufferView": 0,
      "componentType": 5126,
      "count": 346,
      "max": [
        429.36407470703125,
        -362.6426696777344,
        523.6417846679688
      ],
      "min": [
        142.20416259765625,
        -502.0272216796875,
        -127.28113555908203
      ],
      "type": "VEC3"
    },
    {
      "bufferView": 1,
      "componentType": 5126,
      "count": 346,
      "max": [
        0.9946224689483643,
        0.9969416856765747,
        0.9184595346450806
      ],
      "min": [
        -0.9888675808906555,
        -0.9971074461936951,
        -0.9848819375038147
      ],
      "type": "VEC3"
    },
    {
      "bufferView": 2,
      "componentType": 5126,
      "count": 346,
      "max": [
        0.99609375,
        0.99609375
      ],
      "min": [
        0.003662109375,
        0.003662109375
      ],
      "type": "VEC2"
    },
    {
      "bufferView": 3,
      "componentType": 5123,
      "count": 346,
      "max": [
        1,
        0,
        0,
        0
      ],
      "min": [
        0,
        0,
        0,
        0
      ],
      "type": "VEC4"
    },
    {
      "bufferView": 4,
      "componentType": 5126,
      "count": 346,
      "max": [
        1,
        0,
        0,
        0
      ],
      "min": [
        1,
        0,
        0,
        0
      ],
      "type": "VEC4"
    },
    {
      "bufferView": 5,
      "componentType": 5123,
      "count": 888,
      "max": [
        345
      ],
      "min": [
        0
      ],
      "type": "SCALAR"
    },
    {
      "bufferView": 6,
      "componentType": 5126,
      "count": 2,
      "max": [
        0.38350310921669006,
        0.500677227973938,
        0.8157383799552917,
        0,
        0.9478046298027039,
        0.9931191205978394,
        -0.09280546009540558,
        0,
        0.9207737445831299,
        0.822859525680542,
        0.37668171525001526,
        0,
        377.696533203125,
        449.2891845703125,
        153.89955139160156,
        1
      ],
      "min": [
        0.28964361548423767,
        -0.05854766443371773,
        -0.9216812252998352,
        0,
        -0.07142581790685654,
        -0.26874691247940063,
        -0.17158664762973785,
        0,
        0.133317768573761,
        0.10142319649457932,
        -0.552384614944458,
        0,
        -672.2383422851562,
        -200.23434448242188,
        -257.3950500488281,
        1
      ],
      "type": "MAT4"
    }
  ],
  "materials": [
    {
      "pbrMetallicRoughness": {
        "metallicFactor": 0,
        "roughnessFactor": 1,
        "baseColorTexture": {
          "index": 0,
          "texCoord": 0
        }
      },
      "alphaMode": "MASK",
      "alphaCutoff": 0.01,
      "doubleSided": true
    }
  ],
  "textures": [
    {
      "sampler": 0,
      "source": 0
    }
  ],
  "samplers": [
    {
      "magFilter": 9729,
      "minFilter": 9729,
      "wrapS": 33071,
      "wrapT": 33071
    }
  ],
  "images": [
    {
      "mimeType": "image/png",
      "uri": "data:image/png;base64,"
    }
  ],
  "meshes": [
    {
      "primitives": [
        {
          "mode": 4,
          "attributes": {
            "POSITION": 0,
            "NORMAL": 1,
            "TEXCOORD_0": 2,
            "JOINTS_0": 3,
            "WEIGHTS_0": 4
          },
          "indices": 5,
          "material": 0
        }
      ]
    }
  ],
  "skins": [
    {
      "inverseBindMatrices": 6,
      "joints": [
        1,
        0
      ],
      "skeleton": 1
    }
  ]
}