{
  "asset": {
    "version": "2.0",
    "generator": "THREE.GLTFExporter"
  },
  "scenes": [
    {
      "name": "AuxScene",
      "nodes": [
        3
      ]
    }
  ],
  "scene": 0,
  "nodes": [
    {
      "rotation": [
        0.7620518060024795,
        0.6255217497083448,
        -0.16016940369132826,
        -0.048429443876194585
      ],
      "translation": [
        117.88641132544194,
        474.1871162726951,
        -101.36232163794517
      ],
      "scale": [
        0.9999998622265256,
        1.0000001125127083,
        1.0000007952978187
      ],
      "name": "Bone_1"
    },
    {
      "rotation": [
        0.7264253650004413,
        0.49849634223373646,
        0.32661861194034625,
        0.34223966533283506
      ],
      "translation": [
        200.82241821289062,
        -455.9603271484375,
        -27.76997947692871
      ],
      "scale": [
        0.9999995629253893,
        0.9999996575320051,
        0.9999998896838236
      ],
      "name": "Bone_0",
      "children": [
        0
      ]
    },
    {
      "mesh": 0,
      "children": [
        1
      ],
      "skin": 0
    },
    {
      "extras": {
        "silentHillModel": {
          "name": "wp_pipe.mdl",
          "characterId": 2054
        }
      },
      "children": [
        2
      ]
    }
  ],
  "bufferViews": [
    {
      "buffer": 0,
      "byteOffset": 0,
      "byteLength": 2064,
      "target": 34962,
      "byteStride": 12
    },
    {
      "buffer": 0,
      "byteOffset": 2064,
      "byteLength": 2064,
      "target": 34962,
      "byteStride": 12
    },
    {
      "buffer": 0,
      "byteOffset": 4128,
      "byteLength": 1376,
      "target": 34962,
      "byteStride": 8
    },
    {
      "buffer": 0,
      "byteOffset": 5504,
      "byteLength": 1376,
      "target": 34962,
      "byteStride": 8
    },
    {
      "buffer": 0,
      "byteOffset": 6880,
      "byteLength": 2752,
      "target": 34962,
      "byteStride": 16
    },
    {
      "buffer": 0,
      "byteOffset": 9632,
      "byteLength": 1080,
      "target": 34963
    },
    {
      "buffer": 0,
      "byteOffset": 10712,
      "byteLength": 128
    }
  ],
  "buffers": [
    {
      "byteLength": 10840,
      "uri": "data:application/octet-stream;base64,"
    }
  ],
  "accessors": [
    {
      "bufferView": 0,
      "componentType": 5126,
      "count": 172,
      "max": [
        384.21856689453125,
        -398.9864501953125,
        419.57855224609375
      ],
      "min": [
        147.45822143554688,
        -460.675537109375,
        -124.12764739990234
      ],
      "type": "VEC3"
    },
    {
      "bufferView": 1,
      "componentType": 5126,
      "count": 172,
      "max": [
        0.9385448098182678,
        0.9942604899406433,
        0.9810175895690918
      ],
      "min": [
        -0.9202231168746948,
        -0.9979541897773743,
        -0.9201887249946594
      ],
      "type": "VEC3"
    },
    {
      "bufferView": 2,
      "componentType": 5126,
      "count": 172,
      "max": [
        0.99609375,
        1
      ],
      "min": [
        0.003662109375,
        0.00341796875
      ],
      "type": "VEC2"
    },
    {
      "bufferView": 3,
      "componentType": 5123,
      "count": 172,
      "max": [
        1,
        0,
        0,
        0
      ],
      "min": [
        0,
        0,
        0,
        0
      ],
      "type": "VEC4"
    },
    {
      "bufferView": 4,
      "componentType": 5126,
      "count": 172,
      "max": [
        1,
        0,
        0,
        0
      ],
      "min": [
        1,
        0,
        0,
        0
      ],
      "type": "VEC4"
    },
    {
      "bufferView": 5,
      "componentType": 5123,
      "count": 540,
      "max": [
        171
      ],
      "min": [
        0
      ],
      "type": "SCALAR"
    },
    {
      "bufferView": 6,
      "componentType": 5126,
      "count": 2,
      "max": [
        0.38350310921669006,
        0.500677227973938,
        0.8157383799552917,
        0,
        0.9478046298027039,
        0.9931191205978394,
        -0.09280546009540558,
        0,
        0.9207737445831299,
        0.822859525680542,
        0.37668171525001526,
        0,
        377.6966247558594,
        429.9305725097656,
        153.48985290527344,
        1
      ],
      "min": [
        0.28964361548423767,
        -0.05854766443371773,
        -0.9216812252998352,
        0,
        -0.07142581790685654,
        -0.26874691247940063,
        -0.17158664762973785,
        0,
        0.133317768573761,
        0.10142319649457932,
        -0.552384614944458,
        0,
        -581.6289672851562,
        -200.23434448242188,
        -257.39495849609375,
        1
      ],
      "type": "MAT4"
    }
  ],
  "materials": [
    {
      "pbrMetallicRoughness": {
        "metallicFactor": 0,
        "roughnessFactor": 1,
        "baseColorTexture": {
          "index": 0,
          "texCoord": 0
        }
      },
      "alphaMode": "MASK",
      "alphaCutoff": 0.01,
      "doubleSided": true
    }
  ],
  "textures": [
    {
      "sampler": 0,
      "source": 0
    }
  ],
  "samplers": [
    {
      "magFilter": 9729,
      "minFilter": 9729,
      "wrapS": 33071,
      "wrapT": 33071
    }
  ],
  "images": [
    {
      "mimeType": "image/png",
      "uri": "data:image/png;base64,"
    }
  ],
  "meshes": [
    {
      "primitives": [
        {
          "mode": 4,
          "attributes": {
            "POSITION": 0,
            "NORMAL": 1,
            "TEXCOORD_0": 2,
            "JOINTS_0": 3,
            "WEIGHTS_0": 4
          },
          "indices": 5,
          "material": 0
        }
      ]
    }
  ],
  "skins": [
    {
      "inverseBindMatrices": 6,
      "joints": [
        1,
        0
      ],
      "skeleton": 1
    }
  ]
}