{
  "asset": {
    "version": "2.0",
    "generator": "THREE.GLTFExporter"
  },
  "scenes": [
    {
      "name": "AuxScene",
      "nodes": [
        3
      ]
    }
  ],
  "scene": 0,
  "nodes": [
    {
      "rotation": [
        0.9962000361164904,
        0.04988713517988993,
        -0.042115548081210076,
        0.05764584266714283
      ],
      "translation": [
        482.7253502499934,
        81.3078787228394,
        -66.26145892720021
      ],
      "scale": [
        0.9999997198578896,
        1.0000002934301466,
        1.0000000922325298
      ],
      "name": "Bone_1"
    },
    {
      "rotation": [
        0.7264251620995443,
        0.49849660791046957,
        0.3266183165825205,
        0.34223983804169533
      ],
      "translation": [
        200.82241821289062,
        -455.96044921875,
        -27.769868850708008
      ],
      "scale": [
        1.000000388227931,
        0.9999993852167053,
        0.9999998896838236
      ],
      "name": "Bone_0",
      "children": [
        0
      ]
    },
    {
      "mesh": 0,
      "children": [
        1
      ],
      "skin": 0
    },
    {
      "extras": {
        "silentHillModel": {
          "name": "wp_riflgun.mdl",
          "characterId": 2051
        }
      },
      "children": [
        2
      ]
    }
  ],
  "bufferViews": [
    {
      "buffer": 0,
      "byteOffset": 0,
      "byteLength": 2892,
      "target": 34962,
      "byteStride": 12
    },
    {
      "buffer": 0,
      "byteOffset": 2892,
      "byteLength": 2892,
      "target": 34962,
      "byteStride": 12
    },
    {
      "buffer": 0,
      "byteOffset": 5784,
      "byteLength": 1928,
      "target": 34962,
      "byteStride": 8
    },
    {
      "buffer": 0,
      "byteOffset": 7712,
      "byteLength": 1928,
      "target": 34962,
      "byteStride": 8
    },
    {
      "buffer": 0,
      "byteOffset": 9640,
      "byteLength": 3856,
      "target": 34962,
      "byteStride": 16
    },
    {
      "buffer": 0,
      "byteOffset": 13496,
      "byteLength": 1260,
      "target": 34963
    },
    {
      "buffer": 0,
      "byteOffset": 14756,
      "byteLength": 128
    }
  ],
  "buffers": [
    {
      "byteLength": 14884,
      "uri": "data:application/octet-stream;base64,"
    }
  ],
  "accessors": [
    {
      "bufferView": 0,
      "componentType": 5126,
      "count": 241,
      "max": [
        330.6224365234375,
        -7.275548934936523,
        145.26588439941406
      ],
      "min": [
        122.9639663696289,
        -565.5160522460938,
        -95.57584381103516
      ],
      "type": "VEC3"
    },
    {
      "bufferView": 1,
      "componentType": 5126,
      "count": 241,
      "max": [
        0.9876750707626343,
        0.9717108607292175,
        0.9980194568634033
      ],
      "min": [
        -0.9753090143203735,
        -0.9218019843101501,
        -0.9633914828300476
      ],
      "type": "VEC3"
    },
    {
      "bufferView": 2,
      "componentType": 5126,
      "count": 241,
      "max": [
        0.99609375,
        0.99609375
      ],
      "min": [
        0.00146484375,
        0.004150390625
      ],
      "type": "VEC2"
    },
    {
      "bufferView": 3,
      "componentType": 5123,
      "count": 241,
      "max": [
        1,
        0,
        0,
        0
      ],
      "min": [
        0,
        0,
        0,
        0
      ],
      "type": "VEC4"
    },
    {
      "bufferView": 4,
      "componentType": 5126,
      "count": 241,
      "max": [
        1,
        0,
        0,
        0
      ],
      "min": [
        1,
        0,
        0,
        0
      ],
      "type": "VEC4"
    },
    {
      "bufferView": 5,
      "componentType": 5123,
      "count": 630,
      "max": [
        240
      ],
      "min": [
        0
      ],
      "type": "SCALAR"
    },
    {
      "bufferView": 6,
      "componentType": 5126,
      "count": 2,
      "max": [
        0.2896431088447571,
        0.5006776452064514,
        0.8157383799552917,
        0,
        0.9478041529655457,
        0.3454452157020569,
        0.1277538239955902,
        0,
        0.25950130820274353,
        0.8228600025177002,
        0.43836793303489685,
        0,
        377.6965637207031,
        246.17095947265625,
        230.9134521484375,
        1
      ],
      "min": [
        0.2613666355609894,
        -0.37439969182014465,
        -0.8896698951721191,
        0,
        0.9297022819519043,
        -0.2687462270259857,
        -0.1715870201587677,
        0,
        0.13331668078899384,
        -0.8605190515518188,
        -0.5523847937583923,
        0,
        -113.61278533935547,
        -200.23423767089844,
        -257.3951110839844,
        1
      ],
      "type": "MAT4"
    }
  ],
  "materials": [
    {
      "pbrMetallicRoughness": {
        "metallicFactor": 0,
        "roughnessFactor": 1,
        "baseColorTexture": {
          "index": 0,
          "texCoord": 0
        }
      },
      "alphaMode": "MASK",
      "alphaCutoff": 0.01,
      "doubleSided": true
    }
  ],
  "textures": [
    {
      "sampler": 0,
      "source": 0
    }
  ],
  "samplers": [
    {
      "magFilter": 9729,
      "minFilter": 9729,
      "wrapS": 33071,
      "wrapT": 33071
    }
  ],
  "images": [
    {
      "mimeType": "image/png",
      "uri": "data:image/png;base64,"
    }
  ],
  "meshes": [
    {
      "primitives": [
        {
          "mode": 4,
          "attributes": {
            "POSITION": 0,
            "NORMAL": 1,
            "TEXCOORD_0": 2,
            "JOINTS_0": 3,
            "WEIGHTS_0": 4
          },
          "indices": 5,
          "material": 0
        }
      ]
    }
  ],
  "skins": [
    {
      "inverseBindMatrices": 6,
      "joints": [
        1,
        0
      ],
      "skeleton": 1
    }
  ]
}