{
  "asset": {
    "version": "2.0",
    "generator": "THREE.GLTFExporter"
  },
  "scenes": [
    {
      "name": "AuxScene",
      "nodes": [
        3
      ]
    }
  ],
  "scene": 0,
  "nodes": [
    {
      "rotation": [
        0.6893398482448405,
        -0.5432109180598503,
        -0.38844801886379293,
        -0.2807856065425853
      ],
      "translation": [
        78.85156632438355,
        -17.595672293721975,
        -18.860610833788314
      ],
      "scale": [
        0.9999997836716488,
        1.0000005375543284,
        0.9999997415920976
      ],
      "name": "Bone_1"
    },
    {
      "rotation": [
        0.7264253238669806,
        0.4984964499781286,
        0.3266182438479861,
        0.3422396847119803
      ],
      "translation": [
        200.82249450683594,
        -455.96026611328125,
        -27.769947052001953
      ],
      "scale": [
        1.000000388227931,
        0.9999996575320051,
        0.9999998896838236
      ],
      "name": "Bone_0",
      "children": [
        0
      ]
    },
    {
      "mesh": 0,
      "children": [
        1
      ],
      "skin": 0
    },
    {
      "extras": {
        "silentHillModel": {
          "name": "wp_sp.mdl",
          "characterId": 2052
        }
      },
      "children": [
        2
      ]
    }
  ],
  "bufferViews": [
    {
      "buffer": 0,
      "byteOffset": 0,
      "byteLength": 1692,
      "target": 34962,
      "byteStride": 12
    },
    {
      "buffer": 0,
      "byteOffset": 1692,
      "byteLength": 1692,
      "target": 34962,
      "byteStride": 12
    },
    {
      "buffer": 0,
      "byteOffset": 3384,
      "byteLength": 1128,
      "target": 34962,
      "byteStride": 8
    },
    {
      "buffer": 0,
      "byteOffset": 4512,
      "byteLength": 1128,
      "target": 34962,
      "byteStride": 8
    },
    {
      "buffer": 0,
      "byteOffset": 5640,
      "byteLength": 2256,
      "target": 34962,
      "byteStride": 16
    },
    {
      "buffer": 0,
      "byteOffset": 7896,
      "byteLength": 216,
      "target": 34963
    },
    {
      "buffer": 0,
      "byteOffset": 8112,
      "byteLength": 648,
      "target": 34963
    },
    {
      "buffer": 0,
      "byteOffset": 8760,
      "byteLength": 128
    }
  ],
  "buffers": [
    {
      "byteLength": 8888,
      "uri": "data:application/octet-stream;base64,"
    }
  ],
  "accessors": [
    {
      "bufferView": 0,
      "componentType": 5126,
      "count": 141,
      "max": [
        216.67527770996094,
        -368.1824645996094,
        -9.227930068969727
      ],
      "min": [
        148.19764709472656,
        -470.3817443847656,
        -76.54341125488281
      ],
      "type": "VEC3"
    },
    {
      "bufferView": 1,
      "componentType": 5126,
      "count": 141,
      "max": [
        0.9224593639373779,
        0.9877945780754089,
        0.9306859970092773
      ],
      "min": [
        -0.9224593639373779,
        -0.9841262102127075,
        -0.9306859970092773
      ],
      "type": "VEC3"
    },
    {
      "bufferView": 2,
      "componentType": 5126,
      "count": 141,
      "max": [
        0.99853515625,
        0.996826171875
      ],
      "min": [
        0.001708984375,
        0.001708984375
      ],
      "type": "VEC2"
    },
    {
      "bufferView": 3,
      "componentType": 5123,
      "count": 141,
      "max": [
        1,
        0,
        0,
        0
      ],
      "min": [
        0,
        0,
        0,
        0
      ],
      "type": "VEC4"
    },
    {
      "bufferView": 4,
      "componentType": 5126,
      "count": 141,
      "max": [
        1,
        0,
        0,
        0
      ],
      "min": [
        1,
        0,
        0,
        0
      ],
      "type": "VEC4"
    },
    {
      "bufferView": 5,
      "componentType": 5123,
      "count": 108,
      "max": [
        41
      ],
      "min": [
        0
      ],
      "type": "SCALAR"
    },
    {
      "bufferView": 6,
      "componentType": 5123,
      "count": 324,
      "max": [
        140
      ],
      "min": [
        42
      ],
      "type": "SCALAR"
    },
    {
      "bufferView": 7,
      "componentType": 5126,
      "count": 2,
      "max": [
        0.28964343667030334,
        0.5006776452064514,
        0.8157382607460022,
        0,
        0.9478040933609009,
        -0.26874667406082153,
        -0.17158716917037964,
        0,
        0.13331690430641174,
        0.8228596448898315,
        0.9336571097373962,
        0,
        377.6962890625,
        -200.23435974121094,
        -87.72431182861328,
        1
      ],
      "min": [
        -0.9201545715332031,
        -0.37787991762161255,
        -0.10258201509714127,
        0,
        0.38929885625839233,
        -0.854799747467041,
        -0.34316563606262207,
        0,
        0.041988179087638855,
        -0.3557001054286957,
        -0.552385151386261,
        0,
        329.7443542480469,
        -251.2705841064453,
        -257.3952331542969,
        1
      ],
      "type": "MAT4"
    }
  ],
  "materials": [
    {
      "pbrMetallicRoughness": {
        "metallicFactor": 0,
        "roughnessFactor": 1,
        "baseColorTexture": {
          "index": 0,
          "texCoord": 0
        }
      },
      "alphaMode": "MASK",
      "alphaCutoff": 0.01,
      "doubleSided": true
    }
  ],
  "textures": [
    {
      "sampler": 0,
      "source": 0
    }
  ],
  "samplers": [
    {
      "magFilter": 9729,
      "minFilter": 9729,
      "wrapS": 33071,
      "wrapT": 33071
    }
  ],
  "images": [
    {
      "mimeType": "image/png",
      "uri": "data:image/png;base64,"
    }
  ],
  "meshes": [
    {
      "primitives": [
        {
          "mode": 4,
          "attributes": {
            "POSITION": 0,
            "NORMAL": 1,
            "TEXCOORD_0": 2,
            "JOINTS_0": 3,
            "WEIGHTS_0": 4
          },
          "indices": 5,
          "material": 0
        },
        {
          "mode": 4,
          "attributes": {
            "POSITION": 0,
            "NORMAL": 1,
            "TEXCOORD_0": 2,
            "JOINTS_0": 3,
            "WEIGHTS_0": 4
          },
          "indices": 6,
          "material": 0
        }
      ]
    }
  ],
  "skins": [
    {
      "inverseBindMatrices": 7,
      "joints": [
        1,
        0
      ],
      "skeleton": 1
    }
  ]
}