{
  "asset": {
    "version": "2.0",
    "generator": "THREE.GLTFExporter"
  },
  "scenes": [
    {
      "name": "AuxScene",
      "nodes": [
        3
      ]
    }
  ],
  "scene": 0,
  "nodes": [
    {
      "rotation": [
        0.9969634974255895,
        0.04883048225894041,
        -0.042598493706476386,
        0.04318261054034263
      ],
      "translation": [
        293.9346569339473,
        54.69001673749739,
        -53.57545376631572
      ],
      "scale": [
        1.0000003977854928,
        0.9999995024824202,
        0.9999994135515812
      ],
      "name": "Bone_1"
    },
    {
      "rotation": [
        0.726425457713643,
        0.498496189652288,
        0.32661906564139814,
        0.3422391673888065
      ],
      "translation": [
        200.82228088378906,
        -455.9603576660156,
        -27.77051544189453
      ],
      "scale": [
        0.9999996960276755,
        0.9999999218389424,
        1.0000004963244036
      ],
      "name": "Bone_0",
      "children": [
        0
      ]
    },
    {
      "mesh": 0,
      "children": [
        1
      ],
      "skin": 0
    },
    {
      "extras": {
        "silentHillModel": {
          "name": "wp_shotgun.mdl",
          "characterId": 2050
        }
      },
      "children": [
        2
      ]
    }
  ],
  "bufferViews": [
    {
      "buffer": 0,
      "byteOffset": 0,
      "byteLength": 3480,
      "target": 34962,
      "byteStride": 12
    },
    {
      "buffer": 0,
      "byteOffset": 3480,
      "byteLength": 3480,
      "target": 34962,
      "byteStride": 12
    },
    {
      "buffer": 0,
      "byteOffset": 6960,
      "byteLength": 2320,
      "target": 34962,
      "byteStride": 8
    },
    {
      "buffer": 0,
      "byteOffset": 9280,
      "byteLength": 2320,
      "target": 34962,
      "byteStride": 8
    },
    {
      "buffer": 0,
      "byteOffset": 11600,
      "byteLength": 4640,
      "target": 34962,
      "byteStride": 16
    },
    {
      "buffer": 0,
      "byteOffset": 16240,
      "byteLength": 1536,
      "target": 34963
    },
    {
      "buffer": 0,
      "byteOffset": 17776,
      "byteLength": 128
    }
  ],
  "buffers": [
    {
      "byteLength": 17904,
      "uri": "data:application/octet-stream;base64,"
    }
  ],
  "accessors": [
    {
      "bufferView": 0,
      "componentType": 5126,
      "count": 290,
      "max": [
        272.7912902832031,
        -180.4373321533203,
        90.00691986083984
      ],
      "min": [
        128.0816192626953,
        -545.2671508789062,
        -86.73458862304688
      ],
      "type": "VEC3"
    },
    {
      "bufferView": 1,
      "componentType": 5126,
      "count": 290,
      "max": [
        0.9790034294128418,
        0.9915692806243896,
        0.9682785272598267
      ],
      "min": [
        -0.997532308101654,
        -0.9919845461845398,
        -0.9834943413734436
      ],
      "type": "VEC3"
    },
    {
      "bufferView": 2,
      "componentType": 5126,
      "count": 290,
      "max": [
        0.997314453125,
        0.997314453125
      ],
      "min": [
        0.00146484375,
        0.004150390625
      ],
      "type": "VEC2"
    },
    {
      "bufferView": 3,
      "componentType": 5123,
      "count": 290,
      "max": [
        1,
        0,
        0,
        0
      ],
      "min": [
        0,
        0,
        0,
        0
      ],
      "type": "VEC4"
    },
    {
      "bufferView": 4,
      "componentType": 5126,
      "count": 290,
      "max": [
        1,
        0,
        0,
        0
      ],
      "min": [
        1,
        0,
        0,
        0
      ],
      "type": "VEC4"
    },
    {
      "bufferView": 5,
      "componentType": 5123,
      "count": 768,
      "max": [
        289
      ],
      "min": [
        0
      ],
      "type": "SCALAR"
    },
    {
      "bufferView": 6,
      "componentType": 5126,
      "count": 2,
      "max": [
        0.28964322805404663,
        0.5006769895553589,
        0.8157381415367126,
        0,
        0.9478045105934143,
        0.3481733202934265,
        0.11807329952716827,
        0,
        0.25853732228279114,
        0.8228591680526733,
        0.4632842540740967,
        0,
        377.6968078613281,
        244.52005004882812,
        218.568359375,
        1
      ],
      "min": [
        0.26138919591903687,
        -0.4003118872642517,
        -0.8783088326454163,
        0,
        0.9299644231796265,
        -0.26874783635139465,
        -0.17158560454845428,
        0,
        0.13331903517246246,
        -0.8476595282554626,
        -0.5523843765258789,
        0,
        77.34760284423828,
        -200.23422241210938,
        -257.3946228027344,
        1
      ],
      "type": "MAT4"
    }
  ],
  "materials": [
    {
      "pbrMetallicRoughness": {
        "metallicFactor": 0,
        "roughnessFactor": 1,
        "baseColorTexture": {
          "index": 0,
          "texCoord": 0
        }
      },
      "alphaMode": "MASK",
      "alphaCutoff": 0.01,
      "doubleSided": true
    }
  ],
  "textures": [
    {
      "sampler": 0,
      "source": 0
    }
  ],
  "samplers": [
    {
      "magFilter": 9729,
      "minFilter": 9729,
      "wrapS": 33071,
      "wrapT": 33071
    }
  ],
  "images": [
    {
      "mimeType": "image/png",
      "uri": "data:image/png;base64,"
    }
  ],
  "meshes": [
    {
      "primitives": [
        {
          "mode": 4,
          "attributes": {
            "POSITION": 0,
            "NORMAL": 1,
            "TEXCOORD_0": 2,
            "JOINTS_0": 3,
            "WEIGHTS_0": 4
          },
          "indices": 5,
          "material": 0
        }
      ]
    }
  ],
  "skins": [
    {
      "inverseBindMatrices": 6,
      "joints": [
        1,
        0
      ],
      "skeleton": 1
    }
  ]
}