{
  "asset": {
    "version": "2.0",
    "generator": "THREE.GLTFExporter"
  },
  "scenes": [
    {
      "name": "AuxScene",
      "nodes": [
        30
      ]
    }
  ],
  "scene": 0,
  "nodes": [
    {
      "rotation": [
        -2.3953765953693754e-7,
        -3.137274812666111e-7,
        -0.21403171865262993,
        0.9768267110446965
      ],
      "translation": [
        76.1582158544349,
        0.00006047307158496551,
        0.00002400068383323628
      ],
      "scale": [
        1.0000003103597699,
        1.0000000375054503,
        1.0000001752155117
      ],
      "name": "Bone_20"
    },
    {
      "rotation": [
        0.0742653841213949,
        0.13940243382350212,
        -0.5055312834156351,
        0.8482273976541188
      ],
      "translation": [
        190.03547180858772,
        -3.290468913246542,
        -4.54988447405697
      ],
      "scale": [
        0.9999999042257381,
        1.0000002044131349,
        1.0000002351598474
      ],
      "name": "Bone_17",
      "children": [
        0
      ]
    },
    {
      "rotation": [
        2.2163445064782258e-7,
        -1.7149462181929412e-7,
        0.43579974211550004,
        0.9000436571477826
      ],
      "translation": [
        212.46742701490663,
        0.00003000545632403373,
        0.000019135814880222313
      ],
      "scale": [
        1.000000386903367,
        1.0000005873548319,
        0.9999999892929717
      ],
      "name": "Bone_8",
      "children": [
        1
      ]
    },
    {
      "rotation": [
        0.0887776456488908,
        -0.10862613245050885,
        -0.38492897543174537,
        0.9122217784870333
      ],
      "translation": [
        98.33164645330427,
        -10.085882599799788,
        68.46215057373047
      ],
      "scale": [
        0.9999986977007278,
        0.9999991282840851,
        1.0000000052865716
      ],
      "name": "Bone_5",
      "children": [
        2
      ]
    },
    {
      "rotation": [
        -1.6894795907530553e-8,
        7.274759394862557e-8,
        -0.21402848406628364,
        0.9768274197667961
      ],
      "translation": [
        76.1581649119694,
        0.000046162304101926566,
        -0.000013441400678715354
      ],
      "scale": [
        1.0000001290754936,
        1.0000008730710561,
        0.9999999132822681
      ],
      "name": "Bone_24"
    },
    {
      "rotation": [
        -0.08466788181593421,
        -0.13078786691345018,
        -0.5075238319044552,
        0.8474346326450776
      ],
      "translation": [
        190.0354906893955,
        -3.290534201750063,
        4.549854646197444
      ],
      "scale": [
        1.0000002399086438,
        0.9999989182559192,
        0.9999990488656268
      ],
      "name": "Bone_18",
      "children": [
        4
      ]
    },
    {
      "rotation": [
        -1.8319746166723877e-8,
        -2.1274669910385e-7,
        0.4358001056951217,
        0.900043481103023
      ],
      "translation": [
        212.46725961488113,
        0.000015974851351074904,
        -0.000021521947379810058
      ],
      "scale": [
        0.9999999424114824,
        0.9999998116776456,
        1.0000000147983066
      ],
      "name": "Bone_9",
      "children": [
        5
      ]
    },
    {
      "rotation": [
        -0.08877772309829975,
        0.10862614752472222,
        -0.3849293776533123,
        0.912221598461444
      ],
      "translation": [
        98.33164645330427,
        -10.085882599799788,
        -68.46214294433594
      ],
      "scale": [
        0.9999999541006506,
        0.9999999289437027,
        1.0000003691719093
      ],
      "name": "Bone_6",
      "children": [
        6
      ]
    },
    {
      "rotation": [
        -0.7012010418977709,
        -0.09119812959420048,
        0.7012010418977709,
        0.09119812959420048
      ],
      "translation": [
        0,
        -366.2179260253906,
        -118.24880981445312
      ],
      "scale": [
        1.0000004349836136,
        1.0000004349836136,
        1
      ],
      "name": "Bone_0",
      "children": [
        3,
        7
      ]
    },
    {
      "rotation": [
        0.4341105145535432,
        0.5581648069230032,
        0.43558926662105646,
        0.5570116805419906
      ],
      "translation": [
        325.24393390090245,
        -77.22218837522166,
        60.550403594970696
      ],
      "scale": [
        1.0000009094147153,
        1.0000004890780465,
        1.0000004769517332
      ],
      "name": "Bone_11"
    },
    {
      "rotation": [
        0,
        0,
        0.32176117903313967,
        0.946820861444869
      ],
      "translation": [
        2.842170943040401e-14,
        5.684341886080802e-14,
        0
      ],
      "scale": [
        0.999999726475329,
        0.999999726475329,
        1
      ],
      "name": "Bone_21"
    },
    {
      "rotation": [
        4.2502183966756884e-17,
        -8.449971328298592e-17,
        -0.7543248206719437,
        0.6565013822668159
      ],
      "translation": [
        584.6078933929529,
        -91.58092130171588,
        0
      ],
      "scale": [
        1.0000003767005468,
        1.0000003767005468,
        1
      ],
      "name": "Bone_13",
      "children": [
        10
      ]
    },
    {
      "rotation": [
        4.934498224583529e-17,
        -9.65790961614962e-17,
        0.3392636565617174,
        0.9406913262789093
      ],
      "scale": [
        1.000000310586483,
        1.000000310586483,
        0.9999999999999999
      ],
      "name": "Bone_22"
    },
    {
      "rotation": [
        0,
        0,
        -0.45380057996388523,
        0.8911032676544518
      ],
      "translation": [
        593.1445058139359,
        -82.91124440983015,
        0
      ],
      "scale": [
        1.0000001845333883,
        1.0000001845333883,
        0.9999999999999999
      ],
      "name": "Bone_14",
      "children": [
        12
      ]
    },
    {
      "rotation": [
        -0.4341105145535434,
        -0.5581648069230034,
        0.4355892666210565,
        0.5570116805419905
      ],
      "translation": [
        325.24393390090245,
        -77.22218837522166,
        -60.550403594970696
      ],
      "scale": [
        1.0000009094147155,
        1.0000004890780467,
        1.0000004769517332
      ],
      "name": "Bone_15"
    },
    {
      "rotation": [
        -8.97897838624959e-17,
        -6.538823709737854e-17,
        -0.8091449175515608,
        0.5876091408414932
      ],
      "translation": [
        186.18510480658253,
        1.209823602309541,
        0
      ],
      "scale": [
        0.9999996846877824,
        0.9999996846877823,
        1.0000000000000002
      ],
      "name": "Bone_4",
      "children": [
        9,
        11,
        13,
        14
      ]
    },
    {
      "rotation": [
        -0.5716003982339581,
        -0.4162607172659707,
        0.5716003982339583,
        0.4162607172659707
      ],
      "translation": [
        0,
        -366.2179260253906,
        -118.24880981445312
      ],
      "scale": [
        0.999999838360661,
        0.999999838360661,
        1
      ],
      "name": "Bone_1",
      "children": [
        15
      ]
    },
    {
      "rotation": [
        -1.65691677355005e-17,
        -1.0989386159623024e-16,
        -0.18275572402483528,
        0.9831583521163609
      ],
      "translation": [
        163.0298710719378,
        -2.3408587643675105,
        0
      ],
      "scale": [
        1.0000001632715627,
        1.0000001632715627,
        1
      ],
      "name": "Bone_10"
    },
    {
      "rotation": [
        1.0867657500054379e-8,
        2.011719529575049e-7,
        0.3168518178469363,
        0.9484750526645384
      ],
      "translation": [
        131.62924718863073,
        0.000015869002993440517,
        -0.00005701756728626606
      ],
      "scale": [
        0.999999985497634,
        0.999999724249407,
        0.9999999653355832
      ],
      "name": "Bone_27"
    },
    {
      "rotation": [
        -1.0705781294317415e-7,
        -9.869720182424968e-9,
        -0.26725342658726803,
        0.9636262792064719
      ],
      "translation": [
        164.96276144647493,
        0.000054306618693544806,
        -0.00001864646458216157
      ],
      "scale": [
        1.0000000414309025,
        1.0000002089586342,
        1.0000000455766174
      ],
      "name": "Bone_25",
      "children": [
        18
      ]
    },
    {
      "rotation": [
        -0.5868386852463097,
        0.22938077364390455,
        -0.42602458677741095,
        0.6492364157108695
      ],
      "translation": [
        77.01229328057441,
        0.04405063459125813,
        -3.5555062419870467
      ],
      "scale": [
        1.0000000199151586,
        1.0000003019675512,
        0.9999998047115688
      ],
      "name": "Bone_19",
      "children": [
        19
      ]
    },
    {
      "rotation": [
        0.7700872134648938,
        0.020313016854028906,
        0.6041007771010046,
        0.20399835757410784
      ],
      "translation": [
        61.43992008495599,
        -15.720575201996041,
        32.221927642822266
      ],
      "scale": [
        1.0000001315538396,
        0.9999995335593538,
        0.9999996838885673
      ],
      "name": "Bone_12",
      "children": [
        20
      ]
    },
    {
      "rotation": [
        -3.7492221951645967e-8,
        1.0207205211077965e-7,
        0.31685176631248674,
        0.9484750698803813
      ],
      "translation": [
        131.62923017342086,
        0.0000017327839145764301,
        0.00005114228844149693
      ],
      "scale": [
        1.0000002339452492,
        0.9999999972001815,
        1.000000577985476
      ],
      "name": "Bone_28"
    },
    {
      "rotation": [
        6.581898936275454e-8,
        2.403748426511952e-8,
        -0.2672537059750429,
        0.9636262017206383
      ],
      "translation": [
        164.96274884975108,
        0.000011869098472061523,
        0.00003030215791000046
      ],
      "scale": [
        0.9999998640481735,
        1.000000141886192,
        0.9999998593098142
      ],
      "name": "Bone_26",
      "children": [
        22
      ]
    },
    {
      "rotation": [
        0.5868387269268991,
        -0.22938090375714315,
        -0.42602397023177707,
        0.6492367232667758
      ],
      "translation": [
        77.01227302137353,
        0.04410821547224941,
        3.555584667767789
      ],
      "scale": [
        0.9999996838651912,
        0.9999997822761925,
        0.9999985765272096
      ],
      "name": "Bone_23",
      "children": [
        23
      ]
    },
    {
      "rotation": [
        0.7700875257918609,
        0.020313125167054222,
        -0.6041003429217315,
        -0.20399845264740704
      ],
      "translation": [
        61.43992908293796,
        -15.720546041088994,
        -32.221923828125
      ],
      "scale": [
        1.0000003078051911,
        0.9999998768444557,
        0.9999998801137406
      ],
      "name": "Bone_16",
      "children": [
        24
      ]
    },
    {
      "rotation": [
        1.0399153701882891e-18,
        -1.1229916088622599e-16,
        0.15823923592994116,
        0.9874008022137255
      ],
      "translation": [
        120.72805993539848,
        0.00004508191966579034,
        0
      ],
      "scale": [
        0.9999997271228334,
        0.9999997271228332,
        1
      ],
      "name": "Bone_7",
      "children": [
        17,
        21,
        25
      ]
    },
    {
      "rotation": [
        0,
        0,
        0.1351005115847708,
        0.9908318988453759
      ],
      "translation": [
        109.62348930634516,
        -0.00002801254663609143,
        0
      ],
      "scale": [
        0.9999999513629554,
        0.9999999513629554,
        1
      ],
      "name": "Bone_3",
      "children": [
        26
      ]
    },
    {
      "rotation": [
        0.10201409437268301,
        -0.6997093143222557,
        -0.10201409437268301,
        0.6997093143222558
      ],
      "translation": [
        0,
        -366.2179260253906,
        -118.24880981445312
      ],
      "scale": [
        1.000000534198607,
        1.000000534198607,
        1
      ],
      "name": "Bone_2",
      "children": [
        27
      ]
    },
    {
      "mesh": 0,
      "children": [
        8,
        16,
        28
      ],
      "skin": 0
    },
    {
      "extras": {
        "silentHillModel": {
          "name": "pap.mdl",
          "characterId": 516
        }
      },
      "children": [
        29
      ]
    }
  ],
  "bufferViews": [
    {
      "buffer": 0,
      "byteOffset": 0,
      "byteLength": 23604,
      "target": 34962,
      "byteStride": 12
    },
    {
      "buffer": 0,
      "byteOffset": 23604,
      "byteLength": 23604,
      "target": 34962,
      "byteStride": 12
    },
    {
      "buffer": 0,
      "byteOffset": 47208,
      "byteLength": 15736,
      "target": 34962,
      "byteStride": 8
    },
    {
      "buffer": 0,
      "byteOffset": 62944,
      "byteLength": 15736,
      "target": 34962,
      "byteStride": 8
    },
    {
      "buffer": 0,
      "byteOffset": 78680,
      "byteLength": 31472,
      "target": 34962,
      "byteStride": 16
    },
    {
      "buffer": 0,
      "byteOffset": 110152,
      "byteLength": 5856,
      "target": 34963
    },
    {
      "buffer": 0,
      "byteOffset": 116008,
      "byteLength": 3504,
      "target": 34963
    },
    {
      "buffer": 0,
      "byteOffset": 119512,
      "byteLength": 2304,
      "target": 34963
    },
    {
      "buffer": 0,
      "byteOffset": 121816,
      "byteLength": 4560,
      "target": 34963
    },
    {
      "buffer": 0,
      "byteOffset": 126376,
      "byteLength": 3804,
      "target": 34963
    },
    {
      "buffer": 0,
      "byteOffset": 130180,
      "byteLength": 1856
    }
  ],
  "buffers": [
    {
      "byteLength": 132036,
      "uri": "data:application/octet-stream;base64,"
    }
  ],
  "accessors": [
    {
      "bufferView": 0,
      "componentType": 5126,
      "count": 1967,
      "max": [
        210.375,
        13.283523559570312,
        461.9263610839844
      ],
      "min": [
        -210.375,
        -447.18292236328125,
        -542.6890869140625
      ],
      "type": "VEC3"
    },
    {
      "bufferView": 1,
      "componentType": 5126,
      "count": 1967,
      "max": [
        0.9981602430343628,
        0.9997588396072388,
        0.9999951720237732
      ],
      "min": [
        -0.9990842342376709,
        -0.9999743700027466,
        -0.9992415308952332
      ],
      "type": "VEC3"
    },
    {
      "bufferView": 2,
      "componentType": 5126,
      "count": 1967,
      "max": [
        0.998779296875,
        0.998779296875
      ],
      "min": [
        0.0009765625,
        0.0009765625
      ],
      "type": "VEC2"
    },
    {
      "bufferView": 3,
      "componentType": 5123,
      "count": 1967,
      "max": [
        28,
        28,
        26,
        0
      ],
      "min": [
        0,
        0,
        0,
        0
      ],
      "type": "VEC4"
    },
    {
      "bufferView": 4,
      "componentType": 5126,
      "count": 1967,
      "max": [
        1,
        0.94017094373703,
        0.8001953959465027,
        0
      ],
      "min": [
        0.05982905998826027,
        0,
        0,
        0
      ],
      "type": "VEC4"
    },
    {
      "bufferView": 5,
      "componentType": 5123,
      "count": 2928,
      "max": [
        549
      ],
      "min": [
        0
      ],
      "type": "SCALAR"
    },
    {
      "bufferView": 6,
      "componentType": 5123,
      "count": 1752,
      "max": [
        888
      ],
      "min": [
        550
      ],
      "type": "SCALAR"
    },
    {
      "bufferView": 7,
      "componentType": 5123,
      "count": 1152,
      "max": [
        1140
      ],
      "min": [
        889
      ],
      "type": "SCALAR"
    },
    {
      "bufferView": 8,
      "componentType": 5123,
      "count": 2280,
      "max": [
        1592
      ],
      "min": [
        1141
      ],
      "type": "SCALAR"
    },
    {
      "bufferView": 9,
      "componentType": 5123,
      "count": 1902,
      "max": [
        1966
      ],
      "min": [
        1593
      ],
      "type": "SCALAR"
    },
    {
      "bufferView": 10,
      "componentType": 5126,
      "count": 29,
      "max": [
        0.9221322536468506,
        0.9698701500892639,
        0.18689483404159546,
        0,
        0.9698702096939087,
        0.9999969601631165,
        0.29600048065185547,
        0,
        0.9999969601631165,
        0.9900611639022827,
        1.0000001192092896,
        0,
        312.2524719238281,
        413.6837463378906,
        255.9412841796875,
        1
      ],
      "min": [
        -0.9221327900886536,
        -0.9698701500892639,
        -1,
        0,
        -0.9900611639022827,
        -0.9877529740333557,
        -0.30121973156929016,
        0,
        -0.9667311906814575,
        -0.9883512258529663,
        -1.0000001192092896,
        0,
        -471.5874328613281,
        -530.5673217773438,
        -255.94085693359375,
        1
      ],
      "type": "MAT4"
    }
  ],
  "materials": [
    {
      "pbrMetallicRoughness": {
        "metallicFactor": 0,
        "roughnessFactor": 1,
        "baseColorTexture": {
          "index": 0,
          "texCoord": 0
        }
      },
      "alphaMode": "MASK",
      "alphaCutoff": 0.01,
      "doubleSided": true
    },
    {
      "pbrMetallicRoughness": {
        "metallicFactor": 0,
        "roughnessFactor": 1,
        "baseColorTexture": {
          "index": 1,
          "texCoord": 0
        }
      },
      "alphaMode": "MASK",
      "alphaCutoff": 0.01,
      "doubleSided": true
    }
  ],
  "textures": [
    {
      "sampler": 0,
      "source": 0
    },
    {
      "sampler": 1,
      "source": 1
    }
  ],
  "samplers": [
    {
      "magFilter": 9729,
      "minFilter": 9729,
      "wrapS": 33071,
      "wrapT": 33071
    },
    {
      "magFilter": 9729,
      "minFilter": 9729,
      "wrapS": 33071,
      "wrapT": 33071
    }
  ],
  "images": [
    {
      "mimeType": "image/png",
      "uri": "data:image/png;base64,"
    },
    {
      "mimeType": "image/png",
      "uri": "data:image/png;base64,"
    }
  ],
  "meshes": [
    {
      "primitives": [
        {
          "mode": 4,
          "attributes": {
            "POSITION": 0,
            "NORMAL": 1,
            "TEXCOORD_0": 2,
            "JOINTS_0": 3,
            "WEIGHTS_0": 4
          },
          "indices": 5,
          "material": 0
        },
        {
          "mode": 4,
          "attributes": {
            "POSITION": 0,
            "NORMAL": 1,
            "TEXCOORD_0": 2,
            "JOINTS_0": 3,
            "WEIGHTS_0": 4
          },
          "indices": 6,
          "material": 0
        },
        {
          "mode": 4,
          "attributes": {
            "POSITION": 0,
            "NORMAL": 1,
            "TEXCOORD_0": 2,
            "JOINTS_0": 3,
            "WEIGHTS_0": 4
          },
          "indices": 7,
          "material": 1
        },
        {
          "mode": 4,
          "attributes": {
            "POSITION": 0,
            "NORMAL": 1,
            "TEXCOORD_0": 2,
            "JOINTS_0": 3,
            "WEIGHTS_0": 4
          },
          "indices": 8,
          "material": 1
        },
        {
          "mode": 4,
          "attributes": {
            "POSITION": 0,
            "NORMAL": 1,
            "TEXCOORD_0": 2,
            "JOINTS_0": 3,
            "WEIGHTS_0": 4
          },
          "indices": 9,
          "material": 1
        }
      ]
    }
  ],
  "skins": [
    {
      "inverseBindMatrices": 10,
      "joints": [
        8,
        16,
        28,
        27,
        15,
        3,
        7,
        26,
        2,
        6,
        17,
        9,
        21,
        11,
        13,
        14,
        25,
        1,
        5,
        20,
        0,
        10,
        12,
        24,
        4,
        19,
        23,
        18,
        22
      ],
      "skeleton": 8
    }
  ]
}