{
  "asset": {
    "version": "2.0",
    "generator": "THREE.GLTFExporter"
  },
  "scenes": [
    {
      "name": "AuxScene",
      "nodes": [
        17
      ]
    }
  ],
  "scene": 0,
  "nodes": [
    {
      "rotation": [
        0.001979962871111691,
        0.045940739171076564,
        0.07250518739666621,
        0.996307445285259
      ],
      "translation": [
        58.74825722916046,
        -71.80335660031344,
        -54.14849090576172
      ],
      "scale": [
        0.9999999811386532,
        1.0000008771639834,
        1.0000003103266322
      ],
      "name": "Bone_1"
    },
    {
      "rotation": [
        -7.371195836035405e-17,
        -7.353401655166064e-17,
        0.9431721534753238,
        -0.3323045123207329
      ],
      "translation": [
        339.94216058886417,
        3.2388872348195603,
        61.938106536865234
      ],
      "scale": [
        0.9999999297877804,
        0.9999999297877804,
        1
      ],
      "name": "Bone_2"
    },
    {
      "rotation": [
        -4.7475907588934373e-17,
        -1.197630724316582e-16,
        0.2803003516006472,
        0.9599123464632349
      ],
      "translation": [
        -0.00002646663089933554,
        -0.00001700138784599403,
        0
      ],
      "scale": [
        1.0000000815506906,
        1.0000000815506906,
        1
      ],
      "name": "Bone_11"
    },
    {
      "rotation": [
        2.803176958358654e-17,
        3.60054832885602e-17,
        -0.2803003516006473,
        0.9599123464632349
      ],
      "translation": [
        180.1242812385058,
        -1.8427000647677971,
        0
      ],
      "scale": [
        0.9999999184493161,
        0.9999999184493162,
        0.9999999999999999
      ],
      "name": "Bone_5",
      "children": [
        2
      ]
    },
    {
      "rotation": [
        0.13834432536178304,
        0.3073077824075547,
        -0.2755403056868347,
        0.9002779373849422
      ],
      "translation": [
        142.15620529296024,
        -0.000038048190354800226,
        0.00003975984652981879
      ],
      "scale": [
        1.0000000344500506,
        1.0000005972723567,
        0.9999997862578187
      ],
      "name": "Bone_13"
    },
    {
      "rotation": [
        -1.9994541861285967e-7,
        -1.581570051137582e-7,
        0.15754039875400985,
        0.987512543090096
      ],
      "translation": [
        113.23957806212698,
        0.0000014124989604624716,
        -0.000020076959998505117
      ],
      "scale": [
        0.9999999052551423,
        0.9999999954624254,
        1.0000009384177382
      ],
      "name": "Bone_9",
      "children": [
        4
      ]
    },
    {
      "rotation": [
        -0.13730020965390463,
        -0.0709040069100032,
        0.129715617069184,
        0.9794361266628672
      ],
      "translation": [
        53.38342782026069,
        11.832865993632552,
        75.41253662109375
      ],
      "scale": [
        0.9999991040265399,
        0.9999991940307928,
        0.999999115246255
      ],
      "name": "Bone_6",
      "children": [
        5
      ]
    },
    {
      "rotation": [
        -0.13834429967822284,
        -0.30730770626479625,
        -0.2755399378106203,
        0.9002780629605507
      ],
      "translation": [
        142.15619731693397,
        -0.000005548967372703828,
        -0.000018201760966007896
      ],
      "scale": [
        1.0000007500868575,
        1.000000689812734,
        1.0000000692834488
      ],
      "name": "Bone_14"
    },
    {
      "rotation": [
        -3.050130809572268e-7,
        -2.05772451226681e-8,
        0.15754027437032364,
        0.9875125629333609
      ],
      "translation": [
        113.23957772805386,
        0.000017763331673137372,
        0.00002311872616189703
      ],
      "scale": [
        1.0000001904881255,
        1.0000000819528996,
        1.0000010680508755
      ],
      "name": "Bone_10",
      "children": [
        7
      ]
    },
    {
      "rotation": [
        0.13730054238695866,
        0.07090387789406725,
        0.12971582461077646,
        0.9794360652291486
      ],
      "translation": [
        53.38342805413106,
        11.83286506907929,
        -75.41252899169922
      ],
      "scale": [
        0.9999994493188106,
        0.9999997889115948,
        0.9999995187054097
      ],
      "name": "Bone_7",
      "children": [
        8
      ]
    },
    {
      "rotation": [
        -8.398988456162542e-17,
        -8.378712241084199e-17,
        -0.12476149181748486,
        0.9921867617336343
      ],
      "translation": [
        446.52115133010216,
        -6.2565302090232215,
        0
      ],
      "scale": [
        1.0000003914961877,
        1.0000003914961877,
        1
      ],
      "name": "Bone_3",
      "children": [
        3,
        6,
        9
      ]
    },
    {
      "rotation": [
        1.652801853653379e-7,
        1.2879784422486153e-8,
        -0.4323268610594631,
        0.9017169651317458
      ],
      "translation": [
        54.14580279605309,
        -0.000008497569268683947,
        0.000007376388218460761
      ],
      "scale": [
        1.0000001869317166,
        0.9999998479409499,
        1.0000000006515923
      ],
      "name": "Bone_15"
    },
    {
      "rotation": [
        -0.5395835364322387,
        -0.06394166497300172,
        -0.08176658593041175,
        0.8355090140515603
      ],
      "translation": [
        129.69714319520722,
        1.137788490577016,
        -1.9492017237350439
      ],
      "scale": [
        0.9999997946350863,
        0.9999998892541956,
        0.9999999755542257
      ],
      "name": "Bone_12",
      "children": [
        11
      ]
    },
    {
      "rotation": [
        3.915202518159262e-8,
        -4.7204518821207306e-8,
        0.09218051906914036,
        0.9957423119984952
      ],
      "translation": [
        108.97846746946368,
        -0.00004407127383387888,
        0.000029547518018091523
      ],
      "scale": [
        1.0000004858933524,
        1.0000004915577967,
        1.0000001631036506
      ],
      "name": "Bone_8",
      "children": [
        12
      ]
    },
    {
      "rotation": [
        -0.026864374859746364,
        -0.0026699960268594374,
        0.994491919846414,
        0.10127683710736164
      ],
      "translation": [
        41.433978077335496,
        -38.17478362095463,
        10.608654975891113
      ],
      "scale": [
        1.000000178042433,
        0.9999998510450855,
        0.9999997494156894
      ],
      "name": "Bone_4",
      "children": [
        13
      ]
    },
    {
      "rotation": [
        -0.5006038853609451,
        -0.4993953844015037,
        0.5006038853609451,
        0.4993953844015037
      ],
      "translation": [
        0,
        -832.0167236328125,
        0
      ],
      "scale": [
        0.999999940716726,
        0.999999940716726,
        1
      ],
      "name": "Bone_0",
      "children": [
        0,
        1,
        10,
        14
      ]
    },
    {
      "mesh": 0,
      "children": [
        15
      ],
      "skin": 0
    },
    {
      "extras": {
        "silentHillModel": {
          "name": "ike.mdl",
          "characterId": 515
        }
      },
      "children": [
        16
      ]
    }
  ],
  "bufferViews": [
    {
      "buffer": 0,
      "byteOffset": 0,
      "byteLength": 29172,
      "target": 34962,
      "byteStride": 12
    },
    {
      "buffer": 0,
      "byteOffset": 29172,
      "byteLength": 29172,
      "target": 34962,
      "byteStride": 12
    },
    {
      "buffer": 0,
      "byteOffset": 58344,
      "byteLength": 19448,
      "target": 34962,
      "byteStride": 8
    },
    {
      "buffer": 0,
      "byteOffset": 77792,
      "byteLength": 19448,
      "target": 34962,
      "byteStride": 8
    },
    {
      "buffer": 0,
      "byteOffset": 97240,
      "byteLength": 38896,
      "target": 34962,
      "byteStride": 16
    },
    {
      "buffer": 0,
      "byteOffset": 136136,
      "byteLength": 7088,
      "target": 34963
    },
    {
      "buffer": 0,
      "byteOffset": 143224,
      "byteLength": 2904,
      "target": 34963
    },
    {
      "buffer": 0,
      "byteOffset": 146128,
      "byteLength": 3684,
      "target": 34963
    },
    {
      "buffer": 0,
      "byteOffset": 149812,
      "byteLength": 768,
      "target": 34963
    },
    {
      "buffer": 0,
      "byteOffset": 150580,
      "byteLength": 180,
      "target": 34963
    },
    {
      "buffer": 0,
      "byteOffset": 150760,
      "byteLength": 2496,
      "target": 34963
    },
    {
      "buffer": 0,
      "byteOffset": 153256,
      "byteLength": 5096,
      "target": 34963
    },
    {
      "buffer": 0,
      "byteOffset": 158352,
      "byteLength": 1024
    }
  ],
  "buffers": [
    {
      "byteLength": 159376,
      "uri": "data:application/octet-stream;base64,"
    }
  ],
  "accessors": [
    {
      "bufferView": 0,
      "componentType": 5126,
      "count": 2431,
      "max": [
        168.625,
        18.785343170166016,
        136.75222778320312
      ],
      "min": [
        -181.0625,
        -1108.1455078125,
        -101.48664093017578
      ],
      "type": "VEC3"
    },
    {
      "bufferView": 1,
      "componentType": 5126,
      "count": 2431,
      "max": [
        0.999969482421875,
        0.999758243560791,
        0.999758243560791
      ],
      "min": [
        -1,
        -0.9997895359992981,
        -0.999758243560791
      ],
      "type": "VEC3"
    },
    {
      "bufferView": 2,
      "componentType": 5126,
      "count": 2431,
      "max": [
        0.998779296875,
        0.998779296875
      ],
      "min": [
        0.0009765625,
        0.0009765625
      ],
      "type": "VEC2"
    },
    {
      "bufferView": 3,
      "componentType": 5123,
      "count": 2431,
      "max": [
        15,
        15,
        6,
        0
      ],
      "min": [
        0,
        0,
        0,
        0
      ],
      "type": "VEC4"
    },
    {
      "bufferView": 4,
      "componentType": 5126,
      "count": 2431,
      "max": [
        1,
        0.9601953625679016,
        0.11993160843849182,
        0
      ],
      "min": [
        0.03980464115738869,
        0,
        0,
        0
      ],
      "type": "VEC4"
    },
    {
      "bufferView": 5,
      "componentType": 5123,
      "count": 3543,
      "max": [
        670
      ],
      "min": [
        0
      ],
      "type": "SCALAR"
    },
    {
      "bufferView": 6,
      "componentType": 5123,
      "count": 1452,
      "max": [
        950
      ],
      "min": [
        671
      ],
      "type": "SCALAR"
    },
    {
      "bufferView": 7,
      "componentType": 5123,
      "count": 1842,
      "max": [
        1318
      ],
      "min": [
        951
      ],
      "type": "SCALAR"
    },
    {
      "bufferView": 8,
      "componentType": 5123,
      "count": 384,
      "max": [
        1398
      ],
      "min": [
        1319
      ],
      "type": "SCALAR"
    },
    {
      "bufferView": 9,
      "componentType": 5123,
      "count": 90,
      "max": [
        1425
      ],
      "min": [
        1399
      ],
      "type": "SCALAR"
    },
    {
      "bufferView": 10,
      "componentType": 5123,
      "count": 1248,
      "max": [
        1663
      ],
      "min": [
        1426
      ],
      "type": "SCALAR"
    },
    {
      "bufferView": 11,
      "componentType": 5123,
      "count": 2547,
      "max": [
        2430
      ],
      "min": [
        1664
      ],
      "type": "SCALAR"
    },
    {
      "bufferView": 12,
      "componentType": 5126,
      "count": 16,
      "max": [
        0.4682616591453552,
        0.9013434648513794,
        -0.40914544463157654,
        0,
        0.9999971389770508,
        0.7283916473388672,
        0.49687352776527405,
        0,
        0.7283916473388672,
        0.9998727440834045,
        0.912290632724762,
        0,
        832.0143432617188,
        312.54132080078125,
        125.1175537109375,
        1
      ],
      "min": [
        -0.7917073965072632,
        -0.3052175045013428,
        -1,
        0,
        -0.9984149932861328,
        -0.8715053200721741,
        -0.49687376618385315,
        0,
        -0.3647555708885193,
        -0.9999971389770508,
        -0.2857038676738739,
        0,
        -1010.6586303710938,
        -941.580810546875,
        -105.51187896728516,
        1
      ],
      "type": "MAT4"
    }
  ],
  "materials": [
    {
      "pbrMetallicRoughness": {
        "metallicFactor": 0,
        "roughnessFactor": 1,
        "baseColorTexture": {
          "index": 0,
          "texCoord": 0
        }
      },
      "alphaMode": "MASK",
      "alphaCutoff": 0.01,
      "doubleSided": true
    },
    {
      "pbrMetallicRoughness": {
        "metallicFactor": 0,
        "roughnessFactor": 1,
        "baseColorTexture": {
          "index": 1,
          "texCoord": 0
        }
      },
      "alphaMode": "MASK",
      "alphaCutoff": 0.01,
      "doubleSided": true
    },
    {
      "pbrMetallicRoughness": {
        "metallicFactor": 0,
        "roughnessFactor": 1,
        "baseColorTexture": {
          "index": 2,
          "texCoord": 0
        }
      },
      "alphaMode": "MASK",
      "alphaCutoff": 0.01,
      "doubleSided": true
    }
  ],
  "textures": [
    {
      "sampler": 0,
      "source": 0
    },
    {
      "sampler": 1,
      "source": 1
    },
    {
      "sampler": 2,
      "source": 2
    }
  ],
  "samplers": [
    {
      "magFilter": 9729,
      "minFilter": 9729,
      "wrapS": 33071,
      "wrapT": 33071
    },
    {
      "magFilter": 9729,
      "minFilter": 9729,
      "wrapS": 33071,
      "wrapT": 33071
    },
    {
      "magFilter": 9729,
      "minFilter": 9729,
      "wrapS": 33071,
      "wrapT": 33071
    }
  ],
  "images": [
    {
      "mimeType": "image/png",
      "uri": "data:image/png;base64,"
    },
    {
      "mimeType": "image/png",
      "uri": "data:image/png;base64,"
    },
    {
      "mimeType": "image/png",
      "uri": "data:image/png;base64,"
    }
  ],
  "meshes": [
    {
      "primitives": [
        {
          "mode": 4,
          "attributes": {
            "POSITION": 0,
            "NORMAL": 1,
            "TEXCOORD_0": 2,
            "JOINTS_0": 3,
            "WEIGHTS_0": 4
          },
          "indices": 5,
          "material": 0
        },
        {
          "mode": 4,
          "attributes": {
            "POSITION": 0,
            "NORMAL": 1,
            "TEXCOORD_0": 2,
            "JOINTS_0": 3,
            "WEIGHTS_0": 4
          },
          "indices": 6,
          "material": 1
        },
        {
          "mode": 4,
          "attributes": {
            "POSITION": 0,
            "NORMAL": 1,
            "TEXCOORD_0": 2,
            "JOINTS_0": 3,
            "WEIGHTS_0": 4
          },
          "indices": 7,
          "material": 1
        },
        {
          "mode": 4,
          "attributes": {
            "POSITION": 0,
            "NORMAL": 1,
            "TEXCOORD_0": 2,
            "JOINTS_0": 3,
            "WEIGHTS_0": 4
          },
          "indices": 8,
          "material": 1
        },
        {
          "mode": 4,
          "attributes": {
            "POSITION": 0,
            "NORMAL": 1,
            "TEXCOORD_0": 2,
            "JOINTS_0": 3,
            "WEIGHTS_0": 4
          },
          "indices": 9,
          "material": 1
        },
        {
          "mode": 4,
          "attributes": {
            "POSITION": 0,
            "NORMAL": 1,
            "TEXCOORD_0": 2,
            "JOINTS_0": 3,
            "WEIGHTS_0": 4
          },
          "indices": 10,
          "material": 1
        },
        {
          "mode": 4,
          "attributes": {
            "POSITION": 0,
            "NORMAL": 1,
            "TEXCOORD_0": 2,
            "JOINTS_0": 3,
            "WEIGHTS_0": 4
          },
          "indices": 11,
          "material": 2
        }
      ]
    }
  ],
  "skins": [
    {
      "inverseBindMatrices": 12,
      "joints": [
        15,
        0,
        1,
        10,
        14,
        3,
        6,
        9,
        13,
        5,
        8,
        2,
        12,
        4,
        7,
        11
      ],
      "skeleton": 15
    }
  ]
}